<svg width="640" height="420" viewBox="0 0 640 420" fill="none" xmlns="http://www.w3.org/2000/svg">
<rect width="640" height="420" fill="white"/>
<rect width="100" height="100" transform="translate(250 101)" fill="white"/>
<path d="M329.019 194.75C337.369 194.75 343.75 187.531 343.75 179.125V132.25H256.25V179.125C256.25 187.531 262.631 194.75 270.981 194.75H329.019ZM284.375 144.75H315.625C316.454 144.75 317.249 145.079 317.835 145.665C318.421 146.251 318.75 147.046 318.75 147.875C318.75 148.704 318.421 149.499 317.835 150.085C317.249 150.671 316.454 151 315.625 151H284.375C283.546 151 282.751 150.671 282.165 150.085C281.579 149.499 281.25 148.704 281.25 147.875C281.25 147.046 281.579 146.251 282.165 145.665C282.751 145.079 283.546 144.75 284.375 144.75ZM255 107.25C253.674 107.25 252.402 107.777 251.464 108.714C250.527 109.652 250 110.924 250 112.25V119.75C250 121.076 250.527 122.348 251.464 123.286C252.402 124.223 253.674 124.75 255 124.75H345C346.326 124.75 347.598 124.223 348.536 123.286C349.473 122.348 350 121.076 350 119.75V112.25C350 110.924 349.473 109.652 348.536 108.714C347.598 107.777 346.326 107.25 345 107.25H255Z" fill="#3F4CFF"/>
<rect width="100" height="100" transform="translate(364 160)" fill="white"/>
<path d="M443.019 253.75C451.369 253.75 457.75 246.531 457.75 238.125V191.25H370.25V238.125C370.25 246.531 376.631 253.75 384.981 253.75H443.019ZM398.375 203.75H429.625C430.454 203.75 431.249 204.079 431.835 204.665C432.421 205.251 432.75 206.046 432.75 206.875C432.75 207.704 432.421 208.499 431.835 209.085C431.249 209.671 430.454 210 429.625 210H398.375C397.546 210 396.751 209.671 396.165 209.085C395.579 208.499 395.25 207.704 395.25 206.875C395.25 206.046 395.579 205.251 396.165 204.665C396.751 204.079 397.546 203.75 398.375 203.75ZM369 166.25C367.674 166.25 366.402 166.777 365.464 167.714C364.527 168.652 364 169.924 364 171.25V178.75C364 180.076 364.527 181.348 365.464 182.286C366.402 183.223 367.674 183.75 369 183.75H459C460.326 183.75 461.598 183.223 462.536 182.286C463.473 181.348 464 180.076 464 178.75V171.25C464 169.924 463.473 168.652 462.536 167.714C461.598 166.777 460.326 166.25 459 166.25H369Z" fill="#3F4CFF"/>
<rect width="100" height="100" transform="translate(378 45)" fill="white"/>
<path d="M457.019 138.75C465.369 138.75 471.75 131.531 471.75 123.125V76.25H384.25V123.125C384.25 131.531 390.631 138.75 398.981 138.75H457.019ZM412.375 88.75H443.625C444.454 88.75 445.249 89.0792 445.835 89.6653C446.421 90.2513 446.75 91.0462 446.75 91.875C446.75 92.7038 446.421 93.4987 445.835 94.0847C445.249 94.6708 444.454 95 443.625 95H412.375C411.546 95 410.751 94.6708 410.165 94.0847C409.579 93.4987 409.25 92.7038 409.25 91.875C409.25 91.0462 409.579 90.2513 410.165 89.6653C410.751 89.0792 411.546 88.75 412.375 88.75ZM383 51.25C381.674 51.25 380.402 51.7768 379.464 52.7145C378.527 53.6521 378 54.9239 378 56.25V63.75C378 65.0761 378.527 66.3479 379.464 67.2855C380.402 68.2232 381.674 68.75 383 68.75H473C474.326 68.75 475.598 68.2232 476.536 67.2855C477.473 66.3479 478 65.0761 478 63.75V56.25C478 54.9239 477.473 53.6521 476.536 52.7145C475.598 51.7768 474.326 51.25 473 51.25H383Z" fill="#3F4CFF"/>
<rect width="100" height="100" transform="translate(63 180)" fill="white"/>
<path d="M142.019 273.75C150.369 273.75 156.75 266.531 156.75 258.125V211.25H69.25V258.125C69.25 266.531 75.6313 273.75 83.9813 273.75H142.019ZM97.375 223.75H128.625C129.454 223.75 130.249 224.079 130.835 224.665C131.421 225.251 131.75 226.046 131.75 226.875C131.75 227.704 131.421 228.499 130.835 229.085C130.249 229.671 129.454 230 128.625 230H97.375C96.5462 230 95.7513 229.671 95.1653 229.085C94.5792 228.499 94.25 227.704 94.25 226.875C94.25 226.046 94.5792 225.251 95.1653 224.665C95.7513 224.079 96.5462 223.75 97.375 223.75ZM68 186.25C66.6739 186.25 65.4021 186.777 64.4645 187.714C63.5268 188.652 63 189.924 63 191.25V198.75C63 200.076 63.5268 201.348 64.4645 202.286C65.4021 203.223 66.6739 203.75 68 203.75H158C159.326 203.75 160.598 203.223 161.536 202.286C162.473 201.348 163 200.076 163 198.75V191.25C163 189.924 162.473 188.652 161.536 187.714C160.598 186.777 159.326 186.25 158 186.25H68Z" fill="#3F4CFF"/>
<rect width="100" height="100" transform="translate(328 274)" fill="white"/>
<path d="M407.019 367.75C415.369 367.75 421.75 360.531 421.75 352.125V305.25H334.25V352.125C334.25 360.531 340.631 367.75 348.981 367.75H407.019ZM362.375 317.75H393.625C394.454 317.75 395.249 318.079 395.835 318.665C396.421 319.251 396.75 320.046 396.75 320.875C396.75 321.704 396.421 322.499 395.835 323.085C395.249 323.671 394.454 324 393.625 324H362.375C361.546 324 360.751 323.671 360.165 323.085C359.579 322.499 359.25 321.704 359.25 320.875C359.25 320.046 359.579 319.251 360.165 318.665C360.751 318.079 361.546 317.75 362.375 317.75ZM333 280.25C331.674 280.25 330.402 280.777 329.464 281.714C328.527 282.652 328 283.924 328 285.25V292.75C328 294.076 328.527 295.348 329.464 296.286C330.402 297.223 331.674 297.75 333 297.75H423C424.326 297.75 425.598 297.223 426.536 296.286C427.473 295.348 428 294.076 428 292.75V285.25C428 283.924 427.473 282.652 426.536 281.714C425.598 280.777 424.326 280.25 423 280.25H333Z" fill="#3F4CFF"/>
<rect width="100" height="100" transform="translate(478 130)" fill="white"/>
<path d="M557.019 223.75C565.369 223.75 571.75 216.531 571.75 208.125V161.25H484.25V208.125C484.25 216.531 490.631 223.75 498.981 223.75H557.019ZM512.375 173.75H543.625C544.454 173.75 545.249 174.079 545.835 174.665C546.421 175.251 546.75 176.046 546.75 176.875C546.75 177.704 546.421 178.499 545.835 179.085C545.249 179.671 544.454 180 543.625 180H512.375C511.546 180 510.751 179.671 510.165 179.085C509.579 178.499 509.25 177.704 509.25 176.875C509.25 176.046 509.579 175.251 510.165 174.665C510.751 174.079 511.546 173.75 512.375 173.75ZM483 136.25C481.674 136.25 480.402 136.777 479.464 137.714C478.527 138.652 478 139.924 478 141.25V148.75C478 150.076 478.527 151.348 479.464 152.286C480.402 153.223 481.674 153.75 483 153.75H573C574.326 153.75 575.598 153.223 576.536 152.286C577.473 151.348 578 150.076 578 148.75V141.25C578 139.924 577.473 138.652 576.536 137.714C575.598 136.777 574.326 136.25 573 136.25H483Z" fill="#3F4CFF"/>
</svg>
