<svg width="640" height="420" viewBox="0 0 640 420" fill="none" xmlns="http://www.w3.org/2000/svg">
<rect width="640" height="420" fill="white"/>
<rect width="100" height="100" transform="translate(160 105)" fill="white"/>
<path d="M239.019 198.75C247.369 198.75 253.75 191.531 253.75 183.125V136.25H166.25V183.125C166.25 191.531 172.631 198.75 180.981 198.75H239.019ZM194.375 148.75H225.625C226.454 148.75 227.249 149.079 227.835 149.665C228.421 150.251 228.75 151.046 228.75 151.875C228.75 152.704 228.421 153.499 227.835 154.085C227.249 154.671 226.454 155 225.625 155H194.375C193.546 155 192.751 154.671 192.165 154.085C191.579 153.499 191.25 152.704 191.25 151.875C191.25 151.046 191.579 150.251 192.165 149.665C192.751 149.079 193.546 148.75 194.375 148.75ZM165 111.25C163.674 111.25 162.402 111.777 161.464 112.714C160.527 113.652 160 114.924 160 116.25V123.75C160 125.076 160.527 126.348 161.464 127.286C162.402 128.223 163.674 128.75 165 128.75H255C256.326 128.75 257.598 128.223 258.536 127.286C259.473 126.348 260 125.076 260 123.75V116.25C260 114.924 259.473 113.652 258.536 112.714C257.598 111.777 256.326 111.25 255 111.25H165Z" fill="#3F4CFF"/>
<rect width="100" height="100" transform="translate(380 215)" fill="white"/>
<path d="M459.019 308.75C467.369 308.75 473.75 301.531 473.75 293.125V246.25H386.25V293.125C386.25 301.531 392.631 308.75 400.981 308.75H459.019ZM414.375 258.75H445.625C446.454 258.75 447.249 259.079 447.835 259.665C448.421 260.251 448.75 261.046 448.75 261.875C448.75 262.704 448.421 263.499 447.835 264.085C447.249 264.671 446.454 265 445.625 265H414.375C413.546 265 412.751 264.671 412.165 264.085C411.579 263.499 411.25 262.704 411.25 261.875C411.25 261.046 411.579 260.251 412.165 259.665C412.751 259.079 413.546 258.75 414.375 258.75ZM385 221.25C383.674 221.25 382.402 221.777 381.464 222.714C380.527 223.652 380 224.924 380 226.25V233.75C380 235.076 380.527 236.348 381.464 237.286C382.402 238.223 383.674 238.75 385 238.75H475C476.326 238.75 477.598 238.223 478.536 237.286C479.473 236.348 480 235.076 480 233.75V226.25C480 224.924 479.473 223.652 478.536 222.714C477.598 221.777 476.326 221.25 475 221.25H385Z" fill="#3F4CFF"/>
<rect width="100" height="100" transform="translate(270 215)" fill="white"/>
<path d="M349.019 308.75C357.369 308.75 363.75 301.531 363.75 293.125V246.25H276.25V293.125C276.25 301.531 282.631 308.75 290.981 308.75H349.019ZM304.375 258.75H335.625C336.454 258.75 337.249 259.079 337.835 259.665C338.421 260.251 338.75 261.046 338.75 261.875C338.75 262.704 338.421 263.499 337.835 264.085C337.249 264.671 336.454 265 335.625 265H304.375C303.546 265 302.751 264.671 302.165 264.085C301.579 263.499 301.25 262.704 301.25 261.875C301.25 261.046 301.579 260.251 302.165 259.665C302.751 259.079 303.546 258.75 304.375 258.75ZM275 221.25C273.674 221.25 272.402 221.777 271.464 222.714C270.527 223.652 270 224.924 270 226.25V233.75C270 235.076 270.527 236.348 271.464 237.286C272.402 238.223 273.674 238.75 275 238.75H365C366.326 238.75 367.598 238.223 368.536 237.286C369.473 236.348 370 235.076 370 233.75V226.25C370 224.924 369.473 223.652 368.536 222.714C367.598 221.777 366.326 221.25 365 221.25H275Z" fill="#3F4CFF"/>
<rect width="100" height="100" transform="translate(160 215)" fill="white"/>
<path d="M239.019 308.75C247.369 308.75 253.75 301.531 253.75 293.125V246.25H166.25V293.125C166.25 301.531 172.631 308.75 180.981 308.75H239.019ZM194.375 258.75H225.625C226.454 258.75 227.249 259.079 227.835 259.665C228.421 260.251 228.75 261.046 228.75 261.875C228.75 262.704 228.421 263.499 227.835 264.085C227.249 264.671 226.454 265 225.625 265H194.375C193.546 265 192.751 264.671 192.165 264.085C191.579 263.499 191.25 262.704 191.25 261.875C191.25 261.046 191.579 260.251 192.165 259.665C192.751 259.079 193.546 258.75 194.375 258.75ZM165 221.25C163.674 221.25 162.402 221.777 161.464 222.714C160.527 223.652 160 224.924 160 226.25V233.75C160 235.076 160.527 236.348 161.464 237.286C162.402 238.223 163.674 238.75 165 238.75H255C256.326 238.75 257.598 238.223 258.536 237.286C259.473 236.348 260 235.076 260 233.75V226.25C260 224.924 259.473 223.652 258.536 222.714C257.598 221.777 256.326 221.25 255 221.25H165Z" fill="#3F4CFF"/>
<rect width="100" height="100" transform="translate(380 105)" fill="white"/>
<path d="M459.019 198.75C467.369 198.75 473.75 191.531 473.75 183.125V136.25H386.25V183.125C386.25 191.531 392.631 198.75 400.981 198.75H459.019ZM414.375 148.75H445.625C446.454 148.75 447.249 149.079 447.835 149.665C448.421 150.251 448.75 151.046 448.75 151.875C448.75 152.704 448.421 153.499 447.835 154.085C447.249 154.671 446.454 155 445.625 155H414.375C413.546 155 412.751 154.671 412.165 154.085C411.579 153.499 411.25 152.704 411.25 151.875C411.25 151.046 411.579 150.251 412.165 149.665C412.751 149.079 413.546 148.75 414.375 148.75ZM385 111.25C383.674 111.25 382.402 111.777 381.464 112.714C380.527 113.652 380 114.924 380 116.25V123.75C380 125.076 380.527 126.348 381.464 127.286C382.402 128.223 383.674 128.75 385 128.75H475C476.326 128.75 477.598 128.223 478.536 127.286C479.473 126.348 480 125.076 480 123.75V116.25C480 114.924 479.473 113.652 478.536 112.714C477.598 111.777 476.326 111.25 475 111.25H385Z" fill="#3F4CFF"/>
<rect width="100" height="100" transform="translate(270 105)" fill="white"/>
<path d="M349.019 198.75C357.369 198.75 363.75 191.531 363.75 183.125V136.25H276.25V183.125C276.25 191.531 282.631 198.75 290.981 198.75H349.019ZM304.375 148.75H335.625C336.454 148.75 337.249 149.079 337.835 149.665C338.421 150.251 338.75 151.046 338.75 151.875C338.75 152.704 338.421 153.499 337.835 154.085C337.249 154.671 336.454 155 335.625 155H304.375C303.546 155 302.751 154.671 302.165 154.085C301.579 153.499 301.25 152.704 301.25 151.875C301.25 151.046 301.579 150.251 302.165 149.665C302.751 149.079 303.546 148.75 304.375 148.75ZM275 111.25C273.674 111.25 272.402 111.777 271.464 112.714C270.527 113.652 270 114.924 270 116.25V123.75C270 125.076 270.527 126.348 271.464 127.286C272.402 128.223 273.674 128.75 275 128.75H365C366.326 128.75 367.598 128.223 368.536 127.286C369.473 126.348 370 125.076 370 123.75V116.25C370 114.924 369.473 113.652 368.536 112.714C367.598 111.777 366.326 111.25 365 111.25H275Z" fill="#3F4CFF"/>
</svg>
