<svg width="1440" height="1024" viewBox="0 0 1440 1024" fill="none" xmlns="http://www.w3.org/2000/svg">
<g clip-path="url(#clip0_1_3)">
<rect width="1440" height="1024" fill="url(#paint0_linear_1_3)"/>
<path d="M1811 1202C1811 1545.52 1532.3 1824 1188.5 1824C844.703 1824 566 1545.52 566 1202C566 858.479 844.703 580 1188.5 580C1532.3 580 1811 858.479 1811 1202Z" fill="#80D2C8"/>
<path fill-rule="evenodd" clip-rule="evenodd" d="M1135.05 581.675C821.366 608.269 573.988 867.043 566.076 1185.15C566.058 1188.9 566.048 1193.12 566.048 1197.8C566.066 1206.82 566.089 1213.61 566.131 1218.66C566.257 1223.13 566.43 1227.58 566.649 1232.02C566.712 1232.14 566.781 1232.13 566.858 1232.02C567.262 1231.5 567.84 1231.04 568.129 1231.04C568.418 1231.04 570.384 1232.2 572.523 1233.58C574.662 1234.97 577.437 1236.3 578.593 1236.53C581.714 1237.05 595.473 1241.1 601.6 1243.18C626.863 1251.97 640.795 1260.29 645.246 1269.37C647.847 1274.74 648.714 1278.85 649.292 1289.08C650.275 1305.5 650.68 1308.1 653.108 1312.03C655.709 1316.19 658.426 1317.29 668.658 1318.33C677.85 1319.25 683.052 1321.05 698.603 1328.79C716.755 1337.81 721.379 1339.26 733.982 1339.95C753.521 1341.05 764.678 1342.78 779.882 1347C802.369 1353.3 817.573 1361.92 823.296 1371.51C823.932 1372.55 824.105 1374.64 824.105 1379.03C824.047 1384.23 823.758 1385.85 822.197 1390.47C818.613 1401 813.353 1410.71 799.594 1432.27C787.397 1451.29 785.662 1456.32 780.806 1485.4C777.569 1504.93 774.794 1515.4 769.649 1527.6C762.597 1544.24 752.365 1557.08 746.121 1557.08C736.93 1557.08 718.778 1569.74 710.743 1581.76C706.754 1587.72 705.771 1590.03 706.581 1591.59C706.985 1592.34 707.505 1592.92 707.794 1592.92C708.026 1592.92 708.257 1593.21 708.257 1593.5C708.257 1593.84 708.835 1594.77 709.587 1595.52C710.28 1596.27 711.552 1597.72 712.419 1598.82C713.281 1599.85 714.543 1601.34 715.182 1602.1L715.194 1602.11C715.83 1602.92 716.234 1603.9 716.061 1604.31C715.945 1604.77 716.061 1604.94 716.35 1604.77C717.102 1604.31 722.767 1610.32 722.42 1611.24C722.304 1611.71 722.536 1611.82 723.114 1611.59C723.865 1611.3 723.981 1611.48 723.692 1612.23C723.461 1612.81 723.518 1613.09 723.865 1612.86C724.212 1612.63 724.848 1612.92 725.368 1613.38C725.831 1613.9 726.12 1614.31 725.946 1614.31C725.773 1614.31 727.276 1616.04 729.357 1618.18C731.438 1620.38 732.999 1622.46 732.826 1622.86C732.652 1623.33 732.826 1623.44 733.172 1623.21C733.519 1622.98 736.294 1625.47 739.531 1628.82C742.711 1632.11 745.543 1635.06 745.832 1635.41C746.64 1636.16 750.383 1639.9 750.916 1640.43L750.92 1640.44C751.04 1640.56 751.885 1641.37 753.133 1642.57C754.277 1643.67 755.761 1645.1 757.336 1646.62C760.689 1649.86 763.175 1652.64 762.944 1652.98C762.712 1653.33 762.828 1653.5 763.291 1653.33C763.695 1653.16 765.776 1654.72 767.973 1656.8C770.112 1658.88 771.846 1660.38 771.846 1660.21C771.846 1660.03 772.251 1660.32 772.771 1660.79C773.234 1661.31 773.523 1661.94 773.291 1662.29C773.06 1662.64 773.349 1662.69 773.927 1662.46C774.679 1662.17 774.852 1662.29 774.563 1663.04C774.332 1663.62 774.448 1663.85 774.91 1663.73C775.835 1663.39 781.847 1669.05 781.385 1669.8C781.211 1670.09 781.385 1670.21 781.847 1670.09C782.252 1669.92 783.234 1670.32 784.044 1670.96C784.795 1671.6 786.298 1672.87 787.339 1673.74C788.437 1674.6 789.882 1675.87 790.634 1676.57C791.385 1677.32 792.195 1677.9 792.368 1677.9C792.542 1677.9 793.293 1678.42 793.987 1679.11C794.68 1679.81 796.183 1681.02 797.282 1681.83C798.38 1682.7 800.23 1684.26 801.328 1685.24C802.427 1686.28 803.525 1687.15 803.814 1687.15C804.045 1687.15 805.028 1687.96 806.069 1688.88C807.051 1689.86 808.092 1690.62 808.323 1690.62C808.554 1690.62 809.422 1691.25 810.231 1692.06C811.04 1692.87 811.965 1693.51 812.312 1693.51C812.601 1693.51 812.89 1693.68 812.89 1693.91C812.89 1694.2 813.873 1695.01 815.029 1695.82C816.185 1696.63 817.746 1697.84 818.44 1698.53C819.191 1699.29 820.058 1699.86 820.405 1699.86C820.694 1699.86 820.983 1700.15 820.983 1700.5C820.983 1700.79 821.215 1700.96 821.504 1700.79C821.735 1700.62 822.428 1700.96 823.007 1701.6C823.585 1702.23 824.394 1702.76 824.856 1702.76C825.319 1702.76 825.492 1702.99 825.319 1703.33C825.146 1703.68 825.377 1703.91 825.839 1703.91C826.359 1703.91 826.764 1704.14 826.764 1704.49C826.764 1704.78 827.169 1705.07 827.631 1705.07C828.094 1705.07 829.076 1705.7 829.886 1706.51C830.695 1707.32 831.62 1707.96 831.967 1707.96C832.256 1707.96 832.545 1708.19 832.545 1708.54C832.545 1708.82 832.95 1709.11 833.412 1709.11C833.875 1709.11 834.279 1709.29 834.279 1709.52C834.279 1709.81 835.609 1710.73 837.17 1711.72C838.788 1712.64 840.06 1713.62 840.06 1713.85C840.06 1714.09 840.465 1714.32 840.927 1714.32C841.39 1714.32 841.794 1714.55 841.794 1714.78C841.794 1715.07 842.835 1715.76 844.107 1716.4C845.378 1716.98 846.419 1717.67 846.419 1717.9C846.419 1718.19 846.708 1718.36 846.997 1718.36C847.344 1718.36 848.095 1718.83 848.731 1719.35C849.309 1719.92 850.812 1720.91 852.026 1721.54C853.24 1722.18 854.628 1723.1 855.09 1723.57C855.553 1724.03 857.056 1724.95 858.385 1725.59C859.773 1726.23 860.871 1726.92 860.871 1727.15C860.871 1727.44 861.276 1727.61 861.738 1727.61C862.201 1727.61 862.605 1727.84 862.605 1728.19C862.605 1728.48 863.01 1728.77 863.53 1728.77C863.993 1728.77 864.224 1729 864.051 1729.35C863.877 1729.64 864.108 1729.92 864.629 1729.92C865.091 1729.92 866.536 1730.56 867.808 1731.37C869.08 1732.18 870.352 1732.82 870.698 1732.82C870.988 1732.82 871.277 1733.05 871.277 1733.39C871.277 1733.68 871.681 1733.97 872.144 1733.97C872.606 1733.97 873.011 1734.14 873.011 1734.38C873.011 1734.67 874.167 1735.36 875.612 1735.99C877.057 1736.63 878.214 1737.32 878.214 1737.56C878.214 1737.84 878.618 1738.02 879.081 1738.02C879.543 1738.02 879.948 1738.25 879.948 1738.6C879.948 1738.89 880.353 1739.17 880.815 1739.17C881.277 1739.17 881.682 1739.41 881.682 1739.75C881.682 1740.04 882.087 1740.33 882.607 1740.33C883.648 1740.33 887.058 1742.12 887.347 1742.76C887.463 1743.05 887.925 1743.22 888.388 1743.22C888.85 1743.22 889.197 1743.39 889.197 1743.68C889.197 1744.15 893.417 1746.11 894.4 1746.11C894.747 1746.11 894.978 1746.34 894.978 1746.69C894.978 1746.98 895.383 1747.27 895.845 1747.27C896.308 1747.27 896.712 1747.5 896.712 1747.85C896.712 1748.13 897.233 1748.42 897.868 1748.42C898.504 1748.42 899.025 1748.65 899.025 1749C899.025 1749.29 899.429 1749.58 899.892 1749.58C900.354 1749.58 900.759 1749.81 900.759 1750.16C900.759 1750.45 901.164 1750.74 901.626 1750.74C902.609 1750.74 908.447 1753.68 908.736 1754.32C908.852 1754.61 909.43 1754.78 910.066 1754.78C910.644 1754.78 911.164 1755.07 911.164 1755.42C911.164 1755.71 911.396 1755.88 911.627 1755.71C911.916 1755.53 912.956 1755.94 913.939 1756.57C914.98 1757.15 916.194 1757.67 916.656 1757.67C917.119 1757.67 917.523 1757.9 917.523 1758.25C917.523 1758.54 918.101 1758.83 918.795 1758.83C919.489 1758.83 919.836 1759 919.662 1759.23C919.258 1759.58 922.206 1760.91 924.923 1761.55C925.616 1761.72 926.195 1762.07 926.195 1762.36C926.195 1762.64 926.715 1762.88 927.351 1762.88C927.987 1762.88 928.507 1763.11 928.507 1763.45C928.507 1763.74 929.027 1764.03 929.663 1764.03C930.299 1764.03 930.819 1764.26 930.819 1764.61C930.819 1764.9 931.224 1765.19 931.686 1765.19C932.149 1765.19 933.883 1765.82 935.559 1766.63C937.178 1767.44 938.912 1768.08 939.317 1768.08C939.78 1768.08 939.953 1768.31 939.78 1768.66C939.548 1769 940.069 1769.23 940.878 1769.23C941.687 1769.23 942.381 1769.47 942.381 1769.81C942.381 1770.1 942.786 1770.39 943.306 1770.39C944.173 1770.39 947.121 1771.55 949.434 1772.76C950.012 1773.05 950.879 1773.28 951.341 1773.28C951.804 1773.28 952.208 1773.51 952.208 1773.86C952.208 1774.15 952.902 1774.44 953.711 1774.44C954.521 1774.44 955.041 1774.67 954.81 1775.02C954.636 1775.36 955.041 1775.59 955.792 1775.59C956.544 1775.59 957.874 1776 958.798 1776.46C959.666 1776.92 960.937 1777.33 961.515 1777.33C962.151 1777.33 962.614 1777.56 962.614 1777.91C962.614 1778.19 963.308 1778.48 964.117 1778.48C964.926 1778.48 965.446 1778.72 965.215 1779.06C964.984 1779.41 965.504 1779.64 966.314 1779.64C967.123 1779.64 967.817 1779.87 967.817 1780.16C967.817 1780.45 968.857 1780.8 970.129 1781.03C971.458 1781.2 973.019 1781.66 973.597 1781.95C973.915 1782.13 974.334 1782.33 974.754 1782.53C975.173 1782.73 975.592 1782.94 975.91 1783.11C976.546 1783.4 977.586 1783.69 978.222 1783.69C978.916 1783.69 979.263 1783.92 979.089 1784.26C978.858 1784.61 979.494 1784.84 980.477 1784.84C981.459 1784.84 982.269 1785.07 982.269 1785.36C982.269 1785.65 983.425 1786.06 984.87 1786.23C986.257 1786.46 987.587 1786.87 987.76 1787.21C987.992 1787.5 988.743 1787.73 989.553 1787.73C990.304 1787.73 990.94 1787.96 990.94 1788.31C990.94 1788.6 991.749 1788.89 992.674 1788.89C993.657 1788.89 994.408 1789.12 994.408 1789.47C994.408 1789.76 995.218 1790.05 996.143 1790.05C997.125 1790.05 997.877 1790.28 997.877 1790.57C997.877 1790.85 999.207 1791.26 1000.77 1791.49C1002.39 1791.72 1003.66 1792.13 1003.66 1792.42C1003.66 1792.7 1004.47 1792.94 1005.39 1792.94C1006.37 1792.94 1007.13 1793.17 1007.13 1793.51C1007.13 1793.8 1008.05 1794.09 1009.21 1794.09C1010.42 1794.09 1011.12 1794.32 1010.88 1794.67C1010.65 1795.02 1011.29 1795.25 1012.44 1795.25C1013.49 1795.31 1015.39 1795.65 1016.66 1796.12C1017.94 1796.58 1019.56 1796.98 1020.31 1796.98C1021 1796.98 1021.58 1797.21 1021.58 1797.56C1021.58 1797.85 1022.5 1798.14 1023.6 1798.14C1024.7 1798.14 1025.62 1798.37 1025.62 1798.72C1025.62 1799.01 1026.55 1799.29 1027.71 1799.29C1028.8 1799.29 1029.61 1799.53 1029.44 1799.82C1029.27 1800.1 1030.77 1800.51 1032.85 1800.74C1034.93 1800.91 1036.72 1801.38 1036.9 1801.67C1037.13 1801.95 1038.11 1802.19 1039.21 1802.19C1040.31 1802.19 1041.35 1802.42 1041.52 1802.76C1041.7 1803.05 1042.79 1803.34 1043.89 1803.34C1044.99 1803.34 1045.86 1803.57 1045.86 1803.92C1045.86 1804.21 1046.9 1804.5 1048.17 1804.5C1049.44 1804.5 1050.48 1804.73 1050.48 1805.02C1050.48 1805.31 1052.56 1805.71 1055.11 1805.94C1057.65 1806.17 1059.73 1806.58 1059.73 1806.87C1059.73 1807.16 1060.89 1807.39 1062.33 1807.39C1063.78 1807.39 1064.93 1807.62 1064.93 1807.97C1064.93 1808.26 1066.09 1808.54 1067.54 1808.54C1068.98 1808.54 1070.14 1808.78 1070.14 1809.12C1070.14 1809.41 1071.47 1809.7 1073.09 1809.7C1074.65 1809.7 1075.86 1809.93 1075.69 1810.22C1075.51 1810.51 1078.06 1810.91 1081.41 1811.15C1084.76 1811.38 1087.65 1811.78 1087.83 1812.07C1088 1812.36 1089.39 1812.59 1091.01 1812.59C1092.57 1812.59 1093.84 1812.82 1093.84 1813.17C1093.84 1813.52 1095.46 1813.75 1097.6 1813.75C1099.74 1813.75 1101.35 1813.98 1101.35 1814.32C1101.35 1814.67 1102.97 1814.9 1105.11 1814.9C1107.19 1814.9 1108.87 1815.13 1108.87 1815.42C1108.87 1815.71 1112.92 1816.12 1117.83 1816.35C1122.74 1816.58 1126.96 1816.98 1127.14 1817.27C1127.31 1817.56 1130.03 1817.79 1133.21 1817.79C1136.62 1817.79 1138.93 1818.02 1138.93 1818.37C1138.93 1818.72 1142.05 1818.95 1147.2 1818.95C1152.69 1818.95 1155.12 1819.12 1154.54 1819.53C1153.96 1819.87 1165.87 1820.11 1188.64 1820.11C1211.42 1820.11 1223.33 1819.87 1222.75 1819.53C1222.17 1819.12 1224.6 1818.95 1230.15 1818.95C1235.24 1818.95 1238.36 1818.72 1238.36 1818.37C1238.36 1818.02 1240.67 1817.79 1244.08 1817.79C1247.26 1817.79 1249.98 1817.56 1250.15 1817.27C1250.33 1816.98 1254.55 1816.58 1259.46 1816.35C1264.37 1816.12 1268.42 1815.71 1268.42 1815.42C1268.42 1815.13 1270.1 1814.9 1272.18 1814.9C1274.32 1814.9 1275.94 1814.67 1275.94 1814.32C1275.94 1813.98 1277.55 1813.75 1279.69 1813.75C1281.83 1813.75 1283.45 1813.52 1283.45 1813.17C1283.45 1812.82 1284.72 1812.59 1286.28 1812.59C1287.9 1812.59 1289.29 1812.36 1289.46 1812.07C1289.64 1811.78 1292.53 1811.38 1295.88 1811.15C1299.23 1810.91 1301.78 1810.51 1301.6 1810.22C1301.43 1809.93 1302.64 1809.7 1304.2 1809.7C1305.82 1809.7 1307.15 1809.41 1307.15 1809.12C1307.15 1808.78 1308.31 1808.54 1309.75 1808.54C1311.2 1808.54 1312.35 1808.26 1312.35 1807.97C1312.35 1807.62 1313.51 1807.39 1314.96 1807.39C1316.4 1807.39 1317.56 1807.16 1317.56 1806.87C1317.56 1806.58 1319.64 1806.17 1322.18 1805.94C1324.73 1805.71 1326.81 1805.31 1326.81 1805.02C1326.81 1804.73 1328.02 1804.5 1329.47 1804.5C1331.03 1804.5 1331.95 1804.27 1331.72 1803.92C1331.49 1803.57 1332.18 1803.34 1333.4 1803.34C1334.5 1803.34 1335.59 1803.05 1335.77 1802.76C1335.94 1802.42 1336.98 1802.19 1338.08 1802.19C1339.18 1802.19 1340.16 1801.95 1340.39 1801.67C1340.57 1801.38 1342.36 1800.91 1344.44 1800.74C1346.52 1800.51 1348.02 1800.1 1347.85 1799.82C1347.68 1799.53 1348.48 1799.29 1349.58 1799.29C1350.74 1799.29 1351.66 1799.01 1351.66 1798.72C1351.66 1798.37 1352.59 1798.14 1353.69 1798.14C1354.79 1798.14 1355.71 1797.85 1355.71 1797.56C1355.71 1797.21 1356.29 1796.98 1357.04 1796.98C1357.73 1796.98 1359.35 1796.58 1360.62 1796.12C1361.9 1795.65 1363.8 1795.31 1364.84 1795.25C1366 1795.25 1366.64 1795.02 1366.41 1794.67C1366.17 1794.32 1366.87 1794.09 1368.08 1794.09C1369.24 1794.09 1370.16 1793.8 1370.16 1793.51C1370.16 1793.17 1370.97 1792.94 1371.9 1792.94C1372.88 1792.94 1373.63 1792.7 1373.63 1792.42C1373.63 1792.01 1375.83 1791.43 1378.95 1790.97C1379.12 1790.91 1379.53 1790.74 1379.76 1790.51C1379.99 1790.22 1380.8 1790.05 1381.55 1790.05C1382.3 1790.05 1382.88 1789.76 1382.88 1789.47C1382.88 1789.12 1383.69 1788.89 1384.62 1788.89C1385.6 1788.89 1386.35 1788.6 1386.35 1788.31C1386.35 1787.96 1386.99 1787.73 1387.74 1787.73C1388.55 1787.73 1389.3 1787.5 1389.53 1787.21C1389.7 1786.87 1391.03 1786.46 1392.42 1786.23C1393.86 1786.06 1395.02 1785.65 1395.02 1785.36C1395.02 1785.07 1395.83 1784.84 1396.81 1784.84C1397.8 1784.84 1398.43 1784.61 1398.2 1784.26C1397.97 1783.92 1398.6 1783.69 1399.59 1783.69C1400.57 1783.69 1401.38 1783.4 1401.38 1783.11C1401.38 1782.76 1401.9 1782.53 1402.48 1782.53C1403.11 1782.53 1403.75 1782.3 1403.98 1782.01C1404.15 1781.66 1405.48 1781.26 1406.87 1781.03C1408.32 1780.85 1409.47 1780.45 1409.47 1780.16C1409.47 1779.87 1410.17 1779.64 1410.98 1779.64C1411.79 1779.64 1412.31 1779.41 1412.07 1779.06C1411.84 1778.72 1412.36 1778.48 1413.17 1778.48C1413.98 1778.48 1414.68 1778.19 1414.68 1777.91C1414.68 1777.56 1415.14 1777.33 1415.77 1777.33C1416.35 1777.33 1417.62 1776.92 1418.49 1776.46C1419.42 1776 1420.75 1775.59 1421.5 1775.59C1422.25 1775.59 1422.65 1775.36 1422.48 1775.02C1422.25 1774.67 1422.77 1774.44 1423.58 1774.44C1424.39 1774.44 1425.08 1774.15 1425.08 1773.86C1425.08 1773.51 1425.49 1773.28 1425.95 1773.28C1426.41 1773.28 1427.28 1773.05 1427.86 1772.76C1430.17 1771.55 1433.12 1770.39 1433.98 1770.39C1434.5 1770.39 1434.91 1770.1 1434.91 1769.81C1434.91 1769.47 1435.54 1769.23 1436.3 1769.23C1437.05 1769.23 1437.8 1769 1437.91 1768.77C1438.2 1768.08 1444.62 1765.19 1445.89 1765.19C1446.53 1765.19 1447.05 1764.9 1447.05 1764.61C1447.05 1764.26 1447.57 1764.03 1448.26 1764.03C1448.9 1764.03 1449.24 1763.8 1449.07 1763.45C1448.9 1763.11 1449.24 1762.88 1449.88 1762.88C1450.57 1762.88 1451.09 1762.64 1451.09 1762.36C1451.09 1762.07 1451.67 1761.72 1452.42 1761.55C1455.08 1760.91 1458.03 1759.58 1457.63 1759.23C1457.45 1759 1457.8 1758.83 1458.49 1758.83C1459.19 1758.83 1459.77 1758.54 1459.77 1758.25C1459.77 1757.9 1460.17 1757.67 1460.63 1757.67C1461.1 1757.67 1462.31 1757.15 1463.35 1756.57C1464.33 1755.94 1465.37 1755.53 1465.66 1755.71C1465.89 1755.88 1466.12 1755.71 1466.12 1755.42C1466.12 1755.07 1466.65 1754.78 1467.22 1754.78C1467.86 1754.78 1468.44 1754.61 1468.55 1754.32C1468.84 1753.68 1474.68 1750.74 1475.66 1750.74C1476.13 1750.74 1476.53 1750.45 1476.53 1750.16C1476.53 1749.81 1476.93 1749.58 1477.4 1749.58C1477.86 1749.58 1478.26 1749.29 1478.26 1749C1478.26 1748.65 1478.78 1748.42 1479.42 1748.42C1480.06 1748.42 1480.58 1748.13 1480.58 1747.85C1480.58 1747.5 1480.98 1747.27 1481.44 1747.27C1481.91 1747.27 1482.31 1747.04 1482.31 1746.75C1482.31 1746.46 1483.06 1746.05 1484.05 1745.82C1484.97 1745.59 1485.9 1745.19 1486.07 1744.9C1486.3 1744.61 1486.94 1744.38 1487.57 1744.38C1488.21 1744.38 1488.55 1744.15 1488.38 1743.8C1488.21 1743.51 1488.44 1743.22 1488.9 1743.22C1489.42 1743.22 1489.83 1742.99 1489.83 1742.76C1489.83 1742.53 1491.16 1741.83 1492.72 1741.2C1494.34 1740.56 1495.61 1739.87 1495.61 1739.64C1495.61 1739.41 1496.13 1739.17 1496.82 1739.17C1497.46 1739.17 1497.8 1738.89 1497.63 1738.6C1497.46 1738.25 1497.69 1738.02 1498.15 1738.02C1498.67 1738.02 1499.08 1737.84 1499.08 1737.56C1499.08 1737.32 1500.23 1736.63 1501.68 1735.99C1503.12 1735.36 1504.28 1734.67 1504.28 1734.38C1504.28 1734.14 1504.68 1733.97 1505.15 1733.97C1505.61 1733.97 1506.01 1733.68 1506.01 1733.39C1506.01 1733.05 1506.53 1732.82 1507.17 1732.82C1507.8 1732.82 1508.33 1732.64 1508.33 1732.35C1508.33 1731.83 1511.62 1729.92 1512.6 1729.92C1512.95 1729.92 1513.64 1729.4 1514.11 1728.77C1514.57 1728.13 1515.26 1727.61 1515.67 1727.61C1516.07 1727.61 1516.42 1727.38 1516.42 1727.09C1516.42 1726.63 1518.56 1725.7 1519.48 1725.82C1519.71 1725.88 1519.89 1725.59 1519.89 1725.3C1519.89 1724.95 1520.18 1724.72 1520.52 1724.72C1520.93 1724.72 1521.62 1724.26 1522.14 1723.68C1522.66 1723.16 1524.11 1722.18 1525.38 1721.54C1526.65 1720.91 1528.1 1719.92 1528.62 1719.35C1529.14 1718.83 1529.83 1718.36 1530.23 1718.36C1530.58 1718.36 1530.87 1718.19 1530.87 1717.9C1530.87 1717.67 1531.91 1716.98 1533.18 1716.4C1534.45 1715.76 1535.49 1715.07 1535.49 1714.78C1535.49 1714.55 1535.78 1714.32 1536.07 1714.32C1536.42 1714.32 1537.23 1713.85 1537.87 1713.22C1538.5 1712.64 1540 1711.66 1541.16 1711.08C1542.32 1710.44 1543.7 1709.52 1544.22 1708.94C1544.74 1708.42 1545.38 1707.96 1545.67 1707.96C1545.96 1707.96 1546.59 1707.44 1547.06 1706.86C1547.46 1706.22 1548.04 1705.82 1548.33 1705.99C1548.56 1706.17 1548.79 1705.99 1548.79 1705.7C1548.79 1705.36 1549.2 1705.07 1549.66 1705.07C1550.12 1705.07 1550.53 1704.78 1550.53 1704.49C1550.53 1704.14 1550.93 1703.91 1551.45 1703.91C1551.91 1703.91 1552.14 1703.62 1551.97 1703.33C1551.8 1702.99 1551.97 1702.76 1552.43 1702.76C1552.84 1702.76 1553.76 1702.23 1554.4 1701.66C1555.09 1701.02 1555.79 1700.67 1555.96 1700.85C1556.13 1701.08 1556.31 1700.91 1556.31 1700.56C1556.31 1700.15 1556.6 1699.86 1556.88 1699.86C1557.23 1699.86 1558.27 1699.11 1559.31 1698.13C1560.29 1697.21 1561.34 1696.4 1561.57 1696.4C1561.8 1696.4 1562.66 1695.76 1563.47 1694.95C1564.28 1694.14 1565.09 1693.51 1565.27 1693.51C1565.44 1693.51 1566.25 1692.87 1567.06 1692.06C1567.87 1691.25 1568.73 1690.62 1568.97 1690.62C1569.2 1690.62 1570.24 1689.81 1571.22 1688.88C1572.26 1687.9 1573.24 1687.15 1573.47 1687.15C1573.76 1687.15 1575.09 1686.11 1576.42 1684.83C1577.81 1683.56 1579.14 1682.52 1579.31 1682.52C1579.54 1682.52 1580.82 1681.48 1582.2 1680.21C1583.53 1678.94 1584.75 1677.9 1584.92 1677.9C1585.09 1677.9 1585.9 1677.32 1586.66 1676.57C1587.41 1675.87 1588.85 1674.6 1589.95 1673.74C1590.4 1673.36 1590.93 1672.92 1591.45 1672.48C1592.14 1671.89 1592.82 1671.32 1593.25 1670.96C1594.05 1670.32 1595.04 1669.92 1595.44 1670.09C1595.9 1670.21 1596.08 1670.09 1595.9 1669.8C1595.5 1669.11 1601.28 1663.68 1602.32 1663.79C1602.73 1663.85 1602.9 1663.5 1602.67 1662.98C1602.44 1662.35 1602.61 1662.17 1603.36 1662.46C1603.94 1662.69 1604.23 1662.64 1604 1662.29C1603.59 1661.6 1605.15 1659.86 1605.67 1660.38C1605.85 1660.61 1606.02 1660.44 1606.02 1660.09C1606.02 1659.69 1606.31 1659.4 1606.66 1659.4C1607 1659.4 1608.33 1658.24 1609.66 1656.8C1610.93 1655.35 1612.32 1654.25 1612.73 1654.43C1613.25 1654.6 1613.36 1654.43 1613.13 1653.79C1612.84 1653.1 1613.02 1652.92 1613.71 1653.21C1614.4 1653.44 1614.52 1653.33 1614.29 1652.64C1614 1651.88 1614.17 1651.77 1614.92 1652.06C1615.56 1652.29 1615.79 1652.23 1615.5 1651.83C1615.21 1651.36 1621.8 1644.48 1626.37 1640.55C1626.77 1640.21 1627.53 1639.34 1627.99 1638.7C1628.57 1637.78 1628.91 1637.66 1629.26 1638.18C1629.55 1638.65 1629.72 1638.41 1629.72 1637.55C1629.72 1636.8 1629.95 1636.33 1630.19 1636.51C1630.47 1636.68 1631.05 1636.28 1631.51 1635.58C1633.08 1633.33 1635.33 1631.13 1635.73 1631.48C1635.91 1631.65 1636.08 1631.54 1636.08 1631.13C1636.08 1630.03 1642.27 1623.96 1642.96 1624.37C1643.37 1624.66 1643.42 1624.42 1643.19 1623.79C1642.9 1623.04 1643.02 1622.86 1643.77 1623.15C1644.46 1623.38 1644.58 1623.27 1644.35 1622.57C1644.06 1621.88 1644.23 1621.71 1644.93 1622C1645.56 1622.23 1645.74 1622.11 1645.56 1621.59C1645.39 1621.13 1645.91 1620.26 1646.72 1619.63C1647.53 1618.99 1648.22 1618.18 1648.22 1617.78C1648.22 1617.43 1648.51 1617.31 1648.8 1617.49C1649.15 1617.66 1649.38 1617.55 1649.38 1617.14C1649.38 1616.79 1649.96 1615.98 1650.65 1615.41C1651.29 1614.77 1651.69 1614.31 1651.46 1614.31C1651.23 1614.31 1651.46 1613.9 1651.92 1613.38C1652.44 1612.92 1653.08 1612.63 1653.42 1612.86C1653.77 1613.09 1653.83 1612.81 1653.6 1612.23C1653.31 1611.42 1653.42 1611.3 1654.23 1611.59C1654.87 1611.82 1655.1 1611.76 1654.87 1611.36C1654.64 1611.07 1655.16 1610.15 1655.97 1609.39C1656.78 1608.64 1657.47 1607.72 1657.47 1607.37C1657.47 1607.02 1657.76 1606.91 1658.05 1607.08C1658.4 1607.26 1658.63 1607.14 1658.63 1606.79C1658.63 1605.81 1660.25 1604.37 1660.94 1604.77C1661.23 1604.94 1661.34 1604.77 1661.17 1604.31C1661 1603.84 1661.52 1602.8 1662.33 1602C1663.14 1601.13 1663.83 1600.32 1663.83 1600.15C1663.83 1599.97 1664.41 1599.22 1665.16 1598.47C1665.85 1597.72 1666.78 1596.56 1667.24 1595.93C1667.7 1595.23 1668.28 1594.83 1668.57 1595C1668.8 1595.17 1669.03 1594.71 1669.03 1593.96C1669.03 1592.92 1669.15 1592.8 1669.61 1593.5C1670.07 1594.25 1670.19 1594.19 1670.19 1593.27C1670.19 1592.69 1670.82 1591.59 1671.63 1590.84C1672.44 1590.09 1673.08 1589.22 1673.08 1588.87C1673.08 1588.53 1673.37 1588.41 1673.66 1588.58C1674 1588.76 1674.23 1588.41 1674.23 1587.72C1674.23 1587.02 1674.52 1586.68 1674.81 1586.85C1675.16 1587.02 1675.39 1586.79 1675.39 1586.33C1675.39 1585.87 1676.03 1585 1676.84 1584.36C1677.65 1583.73 1678.28 1582.8 1678.28 1582.22C1678.28 1581.7 1678.57 1581.47 1678.86 1581.65C1679.21 1581.82 1679.44 1581.59 1679.44 1581.01C1679.44 1580.26 1679.61 1580.2 1680.25 1580.72C1680.94 1581.3 1681 1581.18 1680.77 1580.26C1680.59 1579.45 1680.77 1578.93 1681.4 1578.7C1681.92 1578.52 1682.33 1577.95 1682.33 1577.48C1682.33 1576.44 1683.77 1574.94 1684.29 1575.4C1684.47 1575.63 1684.64 1575.17 1684.64 1574.48C1684.64 1573.78 1684.87 1573.38 1685.22 1573.55C1685.57 1573.73 1685.8 1573.61 1685.8 1573.26C1685.8 1572.28 1687.88 1569.74 1688.34 1570.2C1688.51 1570.37 1688.69 1570.08 1688.69 1569.45C1688.69 1568.81 1689.21 1567.95 1689.84 1567.48C1690.48 1567.02 1691 1566.33 1691 1565.92C1691 1565.52 1691.29 1565.17 1691.64 1565.17C1691.92 1565.17 1692.1 1564.94 1691.92 1564.71C1691.75 1564.42 1692.16 1563.84 1692.79 1563.44C1693.37 1562.97 1693.89 1562.11 1693.89 1561.53C1693.89 1560.95 1694.18 1560.66 1694.47 1560.84C1694.81 1561.01 1695.05 1560.78 1695.05 1560.2C1695.05 1559.45 1695.22 1559.39 1695.86 1559.91C1696.49 1560.43 1696.55 1560.32 1696.38 1559.16C1696.2 1558.23 1696.55 1557.37 1697.59 1556.33C1698.4 1555.52 1699.09 1554.53 1699.09 1554.19C1699.09 1553.9 1699.38 1553.61 1699.67 1553.61C1700.02 1553.61 1700.25 1553.2 1700.25 1552.68C1700.25 1552.22 1700.48 1551.93 1700.77 1552.11C1701.06 1552.28 1701.46 1551.82 1701.64 1551.01C1701.87 1550.2 1702.27 1549.56 1702.56 1549.56C1702.91 1549.56 1703.14 1549.16 1703.14 1548.64C1703.14 1548.18 1703.43 1547.94 1703.72 1548.12C1704.06 1548.29 1704.3 1547.94 1704.3 1547.31C1704.3 1546.61 1704.58 1546.09 1704.87 1546.09C1705.22 1546.09 1705.45 1545.69 1705.45 1545.17C1705.45 1544.71 1705.68 1544.42 1705.97 1544.59C1706.26 1544.76 1706.67 1544.3 1706.84 1543.49C1707.07 1542.68 1707.47 1542.05 1707.76 1542.05C1708.11 1542.05 1708.34 1541.53 1708.34 1540.83C1708.34 1540.2 1708.63 1539.85 1708.92 1540.02C1709.27 1540.2 1709.5 1539.79 1709.5 1539.04C1709.5 1538 1709.61 1537.89 1710.08 1538.58C1710.54 1539.27 1710.65 1539.22 1710.65 1538.23C1710.65 1537.54 1711.06 1536.67 1711.52 1536.27C1711.98 1535.86 1712.39 1535.17 1712.39 1534.71C1712.39 1534.19 1712.74 1533.95 1713.14 1534.13C1713.72 1534.36 1713.89 1534.01 1713.72 1532.91C1713.49 1531.7 1713.6 1531.53 1714.06 1532.22C1714.59 1532.91 1714.7 1532.86 1714.7 1531.76C1714.7 1531.06 1714.93 1530.49 1715.22 1530.49C1715.51 1530.49 1715.91 1529.85 1716.09 1529.04C1716.32 1528.23 1716.72 1527.6 1717.01 1527.6C1717.36 1527.6 1717.59 1527.08 1717.59 1526.44C1717.59 1525.8 1717.88 1525.28 1718.17 1525.28C1718.52 1525.28 1718.75 1524.88 1718.75 1524.36C1718.75 1523.9 1719.04 1523.66 1719.33 1523.84C1719.67 1524.01 1719.9 1523.66 1719.9 1522.97C1719.9 1522.28 1720.19 1521.93 1720.48 1522.1C1720.83 1522.28 1721.06 1521.93 1721.06 1521.24C1721.06 1520.6 1721.46 1519.91 1721.93 1519.73C1722.39 1519.5 1722.79 1518.87 1722.79 1518.29C1722.79 1517.71 1723.08 1517.19 1723.37 1517.19C1723.72 1517.19 1723.95 1516.67 1723.95 1515.98C1723.95 1515.34 1724.24 1514.99 1724.53 1515.17C1724.88 1515.34 1725.11 1514.99 1725.11 1514.3C1725.11 1513.61 1725.4 1513.26 1725.68 1513.43C1726.03 1513.61 1726.26 1513.26 1726.26 1512.62C1726.26 1511.99 1726.67 1511.12 1727.13 1510.6C1727.59 1510.14 1728 1509.27 1728 1508.69C1728 1507.83 1728.11 1507.77 1728.57 1508.52C1729.04 1509.21 1729.15 1509.04 1729.15 1507.77C1729.15 1506.84 1729.38 1506.26 1729.73 1506.5C1730.08 1506.67 1730.31 1506.32 1730.31 1505.69C1730.31 1504.99 1730.6 1504.47 1730.89 1504.47C1731.23 1504.47 1731.47 1503.95 1731.47 1503.37C1731.47 1502.74 1731.87 1501.87 1732.33 1501.35C1732.79 1500.89 1733.2 1500.08 1733.2 1499.56C1733.2 1499.04 1733.49 1498.81 1733.78 1498.98C1734.12 1499.15 1734.36 1498.81 1734.36 1498.11C1734.36 1497.42 1734.64 1497.07 1734.93 1497.25C1735.28 1497.42 1735.51 1497.07 1735.51 1496.44C1735.51 1495.74 1735.74 1495.22 1736.03 1495.22C1736.32 1495.22 1736.73 1494.3 1736.9 1493.2C1737.13 1492.1 1737.54 1491.18 1737.82 1491.18C1738.17 1491.18 1738.4 1490.77 1738.4 1490.31C1738.4 1489.85 1738.69 1489.44 1738.98 1489.44C1739.33 1489.44 1739.56 1488.92 1739.56 1488.23C1739.56 1487.59 1739.85 1487.25 1740.14 1487.42C1740.48 1487.59 1740.71 1487.36 1740.71 1486.84C1740.71 1486.32 1741.12 1485.51 1741.58 1485.05C1742.04 1484.53 1742.45 1483.66 1742.45 1483.03C1742.45 1482.45 1742.74 1481.93 1743.03 1481.93C1743.37 1481.93 1743.61 1481.41 1743.61 1480.77C1743.61 1480.14 1743.89 1479.61 1744.18 1479.61C1744.53 1479.61 1744.76 1479.09 1744.76 1478.4C1744.76 1477.77 1745.05 1477.42 1745.34 1477.59C1745.69 1477.82 1745.92 1477.3 1745.92 1476.49C1745.92 1475.68 1746.21 1474.99 1746.55 1474.99C1746.84 1474.99 1746.96 1474.76 1746.78 1474.41C1746.61 1474.07 1746.73 1473.83 1747.02 1473.83C1747.36 1473.83 1747.65 1473.31 1747.65 1472.68C1747.65 1472.04 1747.94 1471.52 1748.23 1471.52C1748.58 1471.52 1748.81 1470.83 1748.81 1469.9C1748.81 1468.69 1748.92 1468.52 1749.39 1469.21C1749.79 1469.85 1749.96 1469.56 1749.96 1468.05C1749.96 1466.55 1750.14 1466.26 1750.54 1466.9C1751 1467.59 1751.12 1467.42 1751.12 1466.2C1751.12 1465.34 1751.52 1464.3 1751.99 1463.78C1752.51 1463.31 1752.91 1462.73 1752.85 1462.56C1752.74 1460.77 1752.97 1459.96 1753.43 1460.25C1753.78 1460.48 1754.01 1459.96 1754.01 1459.09C1754.01 1458.23 1754.24 1457.71 1754.59 1457.94C1754.94 1458.17 1755.17 1457.65 1755.17 1456.78C1755.17 1455.91 1755.4 1455.39 1755.74 1455.62C1756.09 1455.8 1756.32 1455.34 1756.32 1454.53C1756.32 1453.77 1756.73 1452.73 1757.19 1452.21C1757.65 1451.75 1758.06 1450.83 1758.06 1450.19C1758.06 1449.5 1758.35 1448.98 1758.64 1448.98C1758.98 1448.98 1759.21 1448.28 1759.21 1447.47C1759.21 1446.66 1759.44 1446.14 1759.79 1446.38C1760.14 1446.61 1760.37 1446.09 1760.37 1445.22C1760.37 1444.41 1760.6 1443.83 1760.89 1444C1761.18 1444.18 1761.53 1443.31 1761.76 1442.04C1761.93 1440.77 1762.39 1439.73 1762.68 1439.73C1763.03 1439.73 1763.26 1439.03 1763.26 1438.22C1763.26 1437.41 1763.49 1436.89 1763.84 1437.13C1764.18 1437.36 1764.42 1436.72 1764.42 1435.68C1764.42 1434.64 1764.65 1434 1764.99 1434.24C1765.34 1434.47 1765.57 1433.83 1765.57 1432.79C1765.57 1431.81 1765.8 1431.11 1766.09 1431.29C1766.38 1431.46 1766.73 1430.59 1766.96 1429.32C1767.13 1428.05 1767.6 1427.01 1767.88 1427.01C1768.23 1427.01 1768.46 1426.2 1768.46 1425.22C1768.46 1424.23 1768.69 1423.6 1769.04 1423.83C1769.39 1424.06 1769.62 1423.43 1769.62 1422.27C1769.62 1420.82 1769.79 1420.59 1770.2 1421.23C1770.38 1421.52 1770.52 1421.63 1770.61 1421.52C1770.65 1421.44 1770.68 1421.35 1770.71 1421.27C1770.75 1421.05 1770.77 1420.69 1770.77 1420.19C1770.77 1419.21 1771.01 1418.34 1771.3 1418.34C1771.64 1418.34 1772.05 1417.18 1772.28 1415.74C1772.45 1414.29 1772.86 1413.31 1773.15 1413.48C1773.43 1413.66 1773.67 1412.96 1773.67 1412.04C1773.67 1411.05 1773.95 1410.24 1774.24 1410.24C1774.59 1410.24 1774.82 1409.44 1774.82 1408.45C1774.82 1407.47 1775.05 1406.83 1775.4 1407.07C1775.75 1407.3 1775.98 1406.72 1775.98 1405.68C1775.98 1404.75 1776.27 1403.89 1776.61 1403.77C1776.9 1403.65 1777.37 1402.5 1777.54 1401.11C1777.71 1399.78 1778.06 1398.86 1778.35 1399.03C1778.64 1399.2 1778.87 1398.39 1778.87 1397.24C1778.87 1395.97 1779.1 1395.27 1779.45 1395.5C1779.79 1395.74 1780.02 1395.04 1780.02 1393.83C1780.02 1392.67 1780.31 1391.75 1780.6 1391.75C1780.95 1391.75 1781.18 1390.99 1781.18 1390.07C1781.18 1389.14 1781.47 1388.28 1781.82 1388.16C1782.16 1388.05 1782.57 1386.72 1782.74 1385.21C1782.91 1383.71 1783.32 1382.5 1783.55 1382.5C1783.84 1382.5 1784.07 1381.69 1784.07 1380.7C1784.07 1379.72 1784.3 1379.09 1784.65 1379.32C1785 1379.55 1785.23 1378.68 1785.23 1377.18C1785.23 1375.62 1785.4 1374.98 1785.75 1375.44C1786.04 1375.96 1786.33 1374.98 1786.56 1372.84C1786.73 1370.99 1787.19 1369.43 1787.54 1369.32C1787.83 1369.2 1788.12 1368.04 1788.12 1366.83C1788.12 1365.44 1788.35 1364.63 1788.7 1364.87C1789.04 1365.1 1789.27 1364.23 1789.27 1362.73C1789.27 1360.93 1789.45 1360.47 1789.85 1361.11C1789.92 1361.22 1789.99 1361.3 1790.05 1361.33C1790.17 1360.87 1790.29 1360.4 1790.42 1359.94C1790.43 1359.69 1790.43 1359.4 1790.43 1359.08C1790.43 1357.29 1790.6 1356.48 1790.95 1356.95C1791.03 1357.08 1791.1 1357.1 1791.19 1357C1791.34 1356.42 1791.49 1355.83 1791.64 1355.25C1791.7 1354.8 1791.76 1354.26 1791.82 1353.65C1792.05 1351.4 1792.45 1349.55 1792.8 1349.55C1793.09 1349.55 1793.32 1348.51 1793.32 1347.23C1793.32 1345.96 1793.61 1344.92 1793.9 1344.92C1794.25 1344.92 1794.48 1343.88 1794.48 1342.55C1794.48 1341.16 1794.71 1340.35 1795.05 1340.59C1795.1 1340.62 1795.15 1340.63 1795.19 1340.62C1795.34 1339.99 1795.48 1339.36 1795.63 1338.73C1795.63 1338.58 1795.63 1338.43 1795.63 1338.27C1795.63 1336.83 1795.86 1335.73 1796.15 1335.9C1796.19 1335.93 1796.23 1335.91 1796.27 1335.86C1796.48 1334.92 1796.69 1333.97 1796.89 1333.03C1796.96 1332.48 1797.02 1331.87 1797.08 1331.22C1797.37 1327.98 1797.66 1326.54 1798 1327.06C1798.05 1327.13 1798.09 1327.17 1798.13 1327.19C1798.26 1326.57 1798.38 1325.95 1798.51 1325.32C1798.52 1325.05 1798.52 1324.74 1798.52 1324.4C1798.52 1321.97 1798.7 1321.16 1799.1 1321.8C1799.13 1321.85 1799.16 1321.89 1799.19 1321.92C1799.36 1321.1 1799.52 1320.27 1799.68 1319.45C1799.68 1319.4 1799.68 1319.36 1799.68 1319.31C1799.68 1317.23 1799.91 1316.08 1800.26 1316.31C1800.26 1316.31 1800.27 1316.31 1800.28 1316.32C1800.46 1315.31 1800.65 1314.31 1800.84 1313.3C1800.85 1311.58 1801.07 1310.32 1801.35 1310.46C1801.73 1308.35 1802.09 1306.23 1802.45 1304.11C1802.52 1302.99 1802.57 1301.86 1802.57 1300.81C1802.57 1299.48 1802.8 1298.73 1803.15 1298.96C1803.2 1299 1803.24 1299 1803.28 1298.98C1803.43 1298.05 1803.58 1297.12 1803.72 1296.18C1803.72 1296.02 1803.73 1295.85 1803.73 1295.67C1803.73 1293.28 1803.88 1292.37 1804.23 1292.8C1804.46 1291.28 1804.68 1289.77 1804.89 1288.25C1804.93 1286.35 1805.1 1285.25 1805.33 1285.09C1806.24 1278.38 1807.04 1271.65 1807.74 1264.88C1807.87 1262.95 1808.03 1261.41 1808.17 1260.52C1808.44 1257.62 1808.7 1254.71 1808.94 1251.8C1808.97 1249.49 1809.07 1248.18 1809.25 1247.81C1810.41 1232.31 1811 1216.66 1811 1200.87C1811 1087.09 1780.37 980.458 1726.89 888.734C1726.62 889.028 1726.31 889.362 1725.97 889.739C1724.18 891.762 1721.64 893.901 1720.08 894.653C1717.53 895.867 1716.55 896.04 1709.21 895.982C1700.6 895.982 1698.75 895.693 1681.81 891.358C1667.01 887.542 1660.19 886.444 1651.69 886.444C1644.81 886.444 1643.37 886.617 1639.61 887.889C1632.96 890.144 1628.8 894.132 1626.2 900.78C1625.04 903.786 1624.87 905.174 1624.87 913.382C1624.81 920.204 1625.1 924.019 1625.91 927.835C1627.24 934.483 1630.47 945.929 1631.63 948.125C1633.13 951.073 1637.3 954.658 1640.71 955.929C1644.75 957.49 1653.66 957.606 1659.2 956.218C1667.64 954.08 1677.99 948.992 1682.68 944.772C1686.2 941.535 1688.63 940.668 1693.02 941.188C1705.68 942.749 1719.9 950.611 1732.39 963.098C1739.27 969.977 1742.8 974.37 1747.19 981.538C1751.47 988.649 1752.39 991.597 1752.16 997.783C1751.99 1002.35 1751.76 1003.45 1750.08 1006.69C1745.57 1015.36 1738.81 1021.77 1718.81 1036.23C1685.62 1060.22 1672.15 1073.11 1661.46 1091.03C1656.14 1099.99 1653.42 1103.69 1649.26 1107.68C1645.04 1111.72 1642.38 1113.46 1637.53 1115.48C1634.52 1116.69 1633.13 1116.87 1627.12 1116.87C1618.1 1116.87 1614.11 1115.65 1601.97 1109.35C1597.58 1107.04 1586.37 1099.24 1580.35 1094.32C1577.52 1092.01 1561.91 1078.83 1559.2 1076.52C1558.39 1075.82 1556.48 1074.21 1554.86 1072.93C1543.07 1063.63 1530.29 1050.21 1519.83 1036.23C1509.42 1022.24 1507.86 1019.98 1494.45 999.806C1485.49 986.394 1480.11 978.532 1473.35 969.168C1472.72 968.3 1470.75 965.41 1468.9 962.693C1461.5 951.536 1457.05 947.258 1452.94 947.2C1449.07 947.2 1443.41 951.536 1442.37 955.467C1441.21 959.86 1443.58 970.324 1448.78 983.273C1453.99 996.337 1457.45 1003.79 1470.06 1028.71C1475.89 1040.33 1480.92 1050.04 1481.16 1050.39C1481.39 1050.68 1483.35 1054.32 1485.49 1058.48C1486.5 1060.42 1487.65 1062.6 1488.71 1064.6C1489.89 1066.84 1490.95 1068.85 1491.56 1070.04C1498.15 1082.36 1505.9 1097.56 1508.04 1102.42C1513.64 1115.13 1516.19 1117.97 1527.52 1124.33C1536.94 1129.59 1555.38 1134.44 1573.94 1136.52C1587.29 1138.03 1594 1139.88 1602.38 1144.44C1615.27 1151.49 1621.63 1161.15 1621.74 1173.81C1621.74 1178.95 1620.76 1182.42 1617.7 1188.2C1615.73 1191.96 1609.43 1201.33 1607.35 1203.58C1606.77 1204.22 1605.04 1206.3 1603.48 1208.2C1601.92 1210.11 1595.15 1217.22 1588.45 1223.99C1578.33 1234.22 1572.38 1239.94 1555.96 1255.03C1555.82 1255.15 1555.32 1255.6 1554.6 1256.26C1553.58 1257.19 1552.09 1258.55 1550.53 1259.94C1548.96 1261.34 1547.48 1262.69 1546.45 1263.63C1545.73 1264.29 1545.23 1264.74 1545.09 1264.86C1544.96 1264.99 1544.12 1265.76 1542.81 1266.95C1540.79 1268.81 1537.63 1271.69 1534.22 1274.86C1519.31 1288.56 1515.61 1292.95 1513.76 1299.25C1512.66 1303.01 1512.49 1321.05 1513.53 1328.91C1513.87 1331.51 1514.39 1335.73 1514.68 1338.27C1515.26 1343.13 1517.29 1357.35 1518.15 1362.84C1521.85 1385.91 1523.36 1397.41 1523.36 1403.19C1523.36 1410.19 1522.49 1412.5 1517.11 1419.61C1512.66 1425.45 1509.02 1429.15 1497.34 1439.9C1484.45 1451.69 1470.34 1465.8 1467.97 1469.33C1464.33 1474.64 1463.29 1477.42 1462.66 1483.43C1461.85 1490.6 1459.77 1498.81 1457.45 1504.18C1457.16 1504.82 1456.12 1507.31 1455.14 1509.68C1453.29 1513.95 1447.11 1526.56 1444.91 1530.49C1433.87 1549.91 1411.5 1582.86 1397.62 1600.15C1383.46 1617.72 1374.27 1624.71 1359.7 1628.93C1347.33 1632.52 1342.24 1633.04 1319.87 1633.1H1300.5L1297.09 1631.36C1290.04 1627.78 1285.53 1619.92 1282.29 1605.58C1280.56 1597.78 1280.16 1595.93 1279.46 1592.34C1279.35 1591.82 1279.2 1591.13 1279.03 1590.32C1278.2 1586.48 1276.79 1579.92 1275.94 1576.15C1275.8 1575.64 1275.56 1574.67 1275.27 1573.51C1274.95 1572.21 1274.57 1570.66 1274.2 1569.22C1272.93 1564.19 1270.56 1554.42 1268.42 1545.23C1263.39 1523.9 1259.46 1510.43 1254.55 1498.17C1249.75 1486.03 1245.01 1478 1238.07 1470.08C1229.63 1460.48 1227.38 1455.68 1224.37 1441.17C1223.45 1436.55 1223.45 1412.33 1224.37 1404.75L1224.43 1404.27C1225.13 1398.94 1225.35 1397.32 1227.09 1386.25C1227.35 1384.58 1227.54 1383.38 1227.74 1382.18C1228.29 1378.91 1228.94 1375.66 1231.48 1362.84C1234.6 1347 1235.41 1341.16 1235.47 1333.88C1235.47 1325.09 1233.68 1313.3 1230.79 1302.72C1228.65 1295.21 1222.92 1278.5 1220.67 1273.35C1220.15 1272.2 1219.51 1270.7 1219.28 1270.06C1218.82 1268.9 1210.61 1249.19 1209.05 1245.49C1205.58 1237.34 1201.02 1229.13 1197.72 1225.26C1191.3 1217.63 1181.71 1211.56 1172.11 1209.13C1157.95 1205.49 1142.74 1206.01 1118.12 1210.86C1116.67 1211.15 1112.92 1211.62 1109.74 1211.96C1105.54 1212.34 1101.5 1212.78 1091.05 1213.94C1088.53 1214.22 1085.64 1214.54 1082.28 1214.91C1046.78 1218.84 1014.99 1220.34 997.761 1218.96C980.592 1217.57 977.644 1216.41 962.614 1205.43C944.982 1192.48 937.872 1180.46 933.478 1156.18C931.629 1146 931.108 1137.51 931.108 1118.02C931.108 1096.58 931.918 1084.84 934.345 1070.62C936.6 1057.5 941.225 1040.33 945.445 1029C945.783 1028.17 946.34 1026.62 946.927 1024.98C947.244 1024.09 947.569 1023.18 947.873 1022.35C948.151 1021.59 948.429 1020.82 948.688 1020.1C949.237 1018.58 949.7 1017.29 949.896 1016.86C950.416 1015.65 957.874 995.933 959.723 990.846C961.631 985.758 964.753 976.567 966.892 969.977C975.274 943.905 987.471 929.338 1014.64 912.978C1017.01 911.533 1025.22 906.908 1032.85 902.688C1040.48 898.468 1047.82 894.248 1049.15 893.323C1050.48 892.456 1051.7 891.704 1051.93 891.704C1052.56 891.704 1058.58 887.716 1069.85 879.854C1082.45 871.067 1088.52 867.714 1096.84 864.939C1112.22 859.794 1125.46 859.216 1147.31 862.742C1151.36 863.378 1168.24 866.616 1171.59 867.425C1173.96 867.945 1178.01 868.697 1184.37 869.737C1186.27 870.084 1193.56 870.72 1200.55 871.182C1207.55 871.645 1214.77 872.396 1216.57 872.859C1222.12 874.304 1227.84 877.715 1232.35 882.166C1237.55 887.253 1239.8 890.779 1246.97 904.885C1256.74 923.961 1259.34 926.274 1274.2 928.991C1287.96 931.534 1292.41 931.187 1304.9 926.852L1313.8 923.788L1321.6 923.846C1326.29 923.904 1332.82 924.424 1338.08 925.175C1360.51 928.528 1368.54 929.28 1380.97 929.28C1409.47 929.28 1431.27 921.533 1450.29 904.596C1460.98 895.057 1472.19 880.836 1476.41 871.471C1479.59 864.419 1480.29 861.355 1480.23 853.84C1480.17 847.77 1480 846.383 1478.61 842.625C1474.62 832.046 1469.54 825.225 1450.11 804.992C1435.2 789.442 1432.42 786.493 1428.84 782.158C1423.4 775.625 1422.48 774.642 1417.57 769.671C1411.44 763.485 1408.78 761.982 1403.69 761.925C1398.72 761.925 1397.22 762.734 1388.55 770.133C1376.23 780.655 1371.15 783.545 1359.99 786.435C1356.46 787.36 1342.3 787.245 1337.21 786.204C1326.23 784.007 1318.54 781.464 1305.42 775.683C1288.54 768.168 1284.2 766.434 1273.04 762.792C1258.36 757.994 1253.56 757.011 1244.49 757.011C1229.57 757.011 1223.62 761.115 1208.13 781.868C1190.32 805.801 1181.25 814.415 1165.98 822.103C1146.91 831.699 1124.25 837.075 1096.96 838.521C1080.77 839.388 1060.95 838.232 1051.06 835.919C1050.49 835.755 1049.42 835.504 1048.33 835.248C1047.88 835.143 1047.43 835.037 1047.01 834.937C1042.39 833.838 1035.8 831.526 1032.45 829.734C1019.15 822.681 1017.59 807.767 1027.94 786.493C1031.46 779.209 1036.55 772.099 1043.26 765.22C1053.72 754.352 1063.61 748.918 1072.8 748.918C1075.63 748.918 1082.05 747.82 1085.57 746.721C1090.14 745.276 1094.88 742.154 1099.68 737.356C1103.9 733.194 1105.05 731.575 1107.31 726.951C1111.53 718.222 1112.4 714.348 1112.74 703.249C1112.97 695.04 1112.8 692.786 1111.7 687.063C1108.81 672.033 1109.97 658.217 1115.86 637.637C1115.91 637.492 1115.96 637.301 1116.03 637.071C1116.42 635.741 1117.2 633.115 1117.89 630.7C1121.01 619.832 1126.73 603.356 1132.86 587.344C1133.67 585.272 1134.44 583.275 1135.05 581.675Z" fill="#0069CA"/>
<path d="M439.72 927.44L435 923.84L442.12 916.16L431.8 914.08L433.64 908.16L443.24 912.64L441.96 902.24H448.04L446.76 912.64L456.36 908.16L458.12 914.08L447.88 916.16L455 923.84L450.2 927.44L445 918.16L439.72 927.44Z" fill="white" fill-opacity="0.8"/>
<path d="M944.72 540.44L940 536.84L947.12 529.16L936.8 527.08L938.64 521.16L948.24 525.64L946.96 515.24H953.04L951.76 525.64L961.36 521.16L963.12 527.08L952.88 529.16L960 536.84L955.2 540.44L950 531.16L944.72 540.44Z" fill="white" fill-opacity="0.8"/>
<path d="M360.72 249.44L356 245.84L363.12 238.16L352.8 236.08L354.64 230.16L364.24 234.64L362.96 224.24H369.04L367.76 234.64L377.36 230.16L379.12 236.08L368.88 238.16L376 245.84L371.2 249.44L366 240.16L360.72 249.44Z" fill="white" fill-opacity="0.8"/>
<path d="M1273.4 425.8L1267.5 421.3L1276.4 411.7L1263.5 409.1L1265.8 401.7L1277.8 407.3L1276.2 394.3H1283.8L1282.2 407.3L1294.2 401.7L1296.4 409.1L1283.6 411.7L1292.5 421.3L1286.5 425.8L1280 414.2L1273.4 425.8Z" fill="white" fill-opacity="0.8"/>
<path d="M1094.08 223.16L1087 217.76L1097.68 206.24L1082.2 203.12L1084.96 194.24L1099.36 200.96L1097.44 185.36H1106.56L1104.64 200.96L1119.04 194.24L1121.68 203.12L1106.32 206.24L1117 217.76L1109.8 223.16L1102 209.24L1094.08 223.16Z" fill="white" fill-opacity="0.8"/>
</g>
<defs>
<linearGradient id="paint0_linear_1_3" x1="720" y1="0" x2="720" y2="1024" gradientUnits="userSpaceOnUse">
<stop stop-color="#202550"/>
<stop offset="1" stop-color="#2C326A"/>
</linearGradient>
<clipPath id="clip0_1_3">
<rect width="1440" height="1024" fill="white"/>
</clipPath>
</defs>
</svg>
