<svg width="1890" height="365" viewBox="0 0 1890 365" fill="none" xmlns="http://www.w3.org/2000/svg">
<path d="M433.76 233.248V121.728H453.76V172.288L450.4 172.768C451.787 167.968 453.813 164.128 456.48 161.248C459.253 158.262 462.4 156.128 465.92 154.848C469.547 153.462 473.173 152.768 476.8 152.768C485.76 152.768 492.747 155.328 497.76 160.448C502.88 165.462 505.44 172.555 505.44 181.728V233.248H485.44V189.088C485.44 182.475 484.267 177.675 481.92 174.688C479.573 171.595 475.893 170.048 470.88 170.048C465.227 170.048 460.96 172.075 458.08 176.128C455.2 180.182 453.76 186.635 453.76 195.488V233.248H433.76ZM574.633 233.248L573.033 221.408V183.488C573.033 178.795 571.539 175.328 568.553 173.088C565.673 170.742 561.726 169.568 556.713 169.568C552.553 169.568 548.286 170.422 543.913 172.128C539.646 173.728 535.859 176.022 532.553 179.008L522.473 165.408C528.019 160.928 533.673 157.728 539.433 155.808C545.299 153.782 551.593 152.768 558.313 152.768C569.193 152.768 577.673 155.488 583.753 160.928C589.833 166.368 592.873 173.888 592.873 183.488V233.248H574.633ZM550.793 234.848C545.033 234.848 539.859 233.782 535.273 231.648C530.793 229.515 527.219 226.475 524.553 222.528C521.993 218.582 520.713 214.048 520.713 208.928C520.713 204.342 521.619 200.448 523.433 197.248C525.353 193.942 527.859 191.435 530.953 189.728C533.619 188.128 536.553 187.008 539.753 186.368C543.059 185.728 546.579 185.408 550.313 185.408H574.793V200.128H553.193C551.486 200.128 549.779 200.288 548.073 200.608C546.473 200.822 545.086 201.408 543.913 202.368C542.846 203.115 542.046 204.075 541.513 205.248C540.979 206.315 540.713 207.542 540.713 208.928C540.713 211.915 541.886 214.315 544.233 216.128C546.579 217.942 549.726 218.848 553.673 218.848C557.193 218.848 560.393 218.102 563.273 216.608C566.259 215.008 568.606 212.875 570.313 210.208C572.126 207.435 573.033 204.288 573.033 200.768L578.313 211.328C576.926 216.875 574.793 221.408 571.913 224.928C569.139 228.342 565.939 230.848 562.313 232.448C558.686 234.048 554.846 234.848 550.793 234.848ZM646.136 234.848C639.736 234.848 634.136 233.728 629.336 231.488C624.643 229.142 620.643 226.048 617.336 222.208C614.136 218.368 611.736 213.995 610.136 209.088C608.536 204.182 607.736 199.062 607.736 193.728C607.736 188.502 608.536 183.435 610.136 178.528C611.736 173.622 614.136 169.248 617.336 165.408C620.643 161.568 624.643 158.528 629.336 156.288C634.136 153.942 639.736 152.768 646.136 152.768C654.136 152.768 661.07 154.688 666.936 158.528C672.803 162.368 677.176 168.182 680.056 175.968L662.776 182.848C661.496 179.115 659.523 176.075 656.856 173.728C654.296 171.275 650.723 170.048 646.136 170.048C641.87 170.048 638.35 171.222 635.576 173.568C632.803 175.808 630.776 178.742 629.496 182.368C628.216 185.995 627.576 189.782 627.576 193.728C627.576 197.675 628.216 201.515 629.496 205.248C630.776 208.875 632.803 211.862 635.576 214.208C638.35 216.448 641.87 217.568 646.136 217.568C650.723 217.568 654.296 216.395 656.856 214.048C659.523 211.595 661.496 208.448 662.776 204.608L680.056 211.488C677.176 219.382 672.803 225.248 666.936 229.088C661.07 232.928 654.136 234.848 646.136 234.848ZM748.45 233.248L725.57 197.248L713.25 211.008V186.208L743.49 154.368H768.77L740.13 183.808L772.13 233.248H748.45ZM695.01 233.248V121.728H715.01V233.248H695.01ZM825.341 233.248V207.008H776.061V191.648L827.901 121.728H845.341V188.448H863.101V207.008H845.341V233.248H825.341ZM791.581 195.328L791.261 188.448H825.341V141.408L828.061 144.128L791.581 195.328ZM873.913 233.248V154.368H893.753V233.248H873.913ZM873.273 142.208V121.728H894.553V142.208H873.273ZM913.291 233.248V154.368H933.291V174.848L928.971 178.208C929.718 173.195 930.998 169.035 932.811 165.728C934.625 162.422 936.758 159.862 939.211 158.048C941.771 156.128 944.385 154.795 947.051 154.048C949.825 153.195 952.545 152.768 955.211 152.768C959.371 152.768 963.318 153.568 967.051 155.168C970.785 156.662 974.038 159.275 976.811 163.008C979.585 166.742 981.505 171.862 982.571 178.368L970.731 182.688C972.331 175.222 974.625 169.302 977.611 164.928C980.705 160.555 984.225 157.462 988.171 155.648C992.225 153.728 996.491 152.768 1000.97 152.768C1007.69 152.768 1013.13 154.262 1017.29 157.248C1021.45 160.235 1024.49 164.075 1026.41 168.768C1028.44 173.355 1029.45 178.262 1029.45 183.488V233.248H1009.61V188.288C1009.61 184.342 1009.08 181.035 1008.01 178.368C1007.05 175.595 1005.61 173.515 1003.69 172.128C1001.77 170.742 999.265 170.048 996.171 170.048C992.971 170.048 990.251 170.902 988.011 172.608C985.771 174.315 984.065 176.875 982.891 180.288C981.825 183.702 981.291 188.075 981.291 193.408V233.248H961.451V187.968C961.451 181.995 960.331 177.515 958.091 174.528C955.958 171.542 952.811 170.048 948.651 170.048C945.345 170.048 942.518 170.902 940.171 172.608C937.931 174.315 936.225 176.875 935.051 180.288C933.878 183.702 933.291 188.075 933.291 193.408V233.248H913.291ZM1048.14 265.888V154.368H1067.98V175.488L1063.18 177.088C1064.56 170.795 1066.64 165.888 1069.42 162.368C1072.3 158.848 1075.55 156.395 1079.18 155.008C1082.8 153.515 1086.59 152.768 1090.54 152.768C1097.47 152.768 1103.44 154.582 1108.46 158.208C1113.58 161.728 1117.47 166.582 1120.14 172.768C1122.8 178.955 1124.14 185.995 1124.14 193.888C1124.14 202.422 1122.64 209.782 1119.66 215.968C1116.67 222.048 1112.62 226.742 1107.5 230.048C1102.38 233.248 1096.72 234.848 1090.54 234.848C1086.38 234.848 1082.43 233.995 1078.7 232.288C1074.96 230.582 1071.76 228.022 1069.1 224.608C1066.54 221.088 1064.78 216.662 1063.82 211.328L1067.98 211.968V265.888H1048.14ZM1085.1 216.608C1089.04 216.608 1092.4 215.702 1095.18 213.888C1098.06 211.968 1100.3 209.302 1101.9 205.888C1103.5 202.475 1104.3 198.475 1104.3 193.888C1104.3 189.195 1103.5 185.142 1101.9 181.728C1100.3 178.315 1098.06 175.702 1095.18 173.888C1092.4 171.968 1089.04 171.008 1085.1 171.008C1081.26 171.008 1077.9 171.968 1075.02 173.888C1072.24 175.808 1070.06 178.475 1068.46 181.888C1066.96 185.195 1066.22 189.195 1066.22 193.888C1066.22 198.475 1066.96 202.475 1068.46 205.888C1070.06 209.302 1072.24 211.968 1075.02 213.888C1077.9 215.702 1081.26 216.608 1085.1 216.608ZM1190.57 233.248L1188.97 221.408V183.488C1188.97 178.795 1187.48 175.328 1184.49 173.088C1181.61 170.742 1177.66 169.568 1172.65 169.568C1168.49 169.568 1164.22 170.422 1159.85 172.128C1155.58 173.728 1151.8 176.022 1148.49 179.008L1138.41 165.408C1143.96 160.928 1149.61 157.728 1155.37 155.808C1161.24 153.782 1167.53 152.768 1174.25 152.768C1185.13 152.768 1193.61 155.488 1199.69 160.928C1205.77 166.368 1208.81 173.888 1208.81 183.488V233.248H1190.57ZM1166.73 234.848C1160.97 234.848 1155.8 233.782 1151.21 231.648C1146.73 229.515 1143.16 226.475 1140.49 222.528C1137.93 218.582 1136.65 214.048 1136.65 208.928C1136.65 204.342 1137.56 200.448 1139.37 197.248C1141.29 193.942 1143.8 191.435 1146.89 189.728C1149.56 188.128 1152.49 187.008 1155.69 186.368C1159 185.728 1162.52 185.408 1166.25 185.408H1190.73V200.128H1169.13C1167.42 200.128 1165.72 200.288 1164.01 200.608C1162.41 200.822 1161.02 201.408 1159.85 202.368C1158.78 203.115 1157.98 204.075 1157.45 205.248C1156.92 206.315 1156.65 207.542 1156.65 208.928C1156.65 211.915 1157.82 214.315 1160.17 216.128C1162.52 217.942 1165.66 218.848 1169.61 218.848C1173.13 218.848 1176.33 218.102 1179.21 216.608C1182.2 215.008 1184.54 212.875 1186.25 210.208C1188.06 207.435 1188.97 204.288 1188.97 200.768L1194.25 211.328C1192.86 216.875 1190.73 221.408 1187.85 224.928C1185.08 228.342 1181.88 230.848 1178.25 232.448C1174.62 234.048 1170.78 234.848 1166.73 234.848ZM1262.07 234.848C1255.67 234.848 1250.07 233.728 1245.27 231.488C1240.58 229.142 1236.58 226.048 1233.27 222.208C1230.07 218.368 1227.67 213.995 1226.07 209.088C1224.47 204.182 1223.67 199.062 1223.67 193.728C1223.67 188.502 1224.47 183.435 1226.07 178.528C1227.67 173.622 1230.07 169.248 1233.27 165.408C1236.58 161.568 1240.58 158.528 1245.27 156.288C1250.07 153.942 1255.67 152.768 1262.07 152.768C1270.07 152.768 1277.01 154.688 1282.87 158.528C1288.74 162.368 1293.11 168.182 1295.99 175.968L1278.71 182.848C1277.43 179.115 1275.46 176.075 1272.79 173.728C1270.23 171.275 1266.66 170.048 1262.07 170.048C1257.81 170.048 1254.29 171.222 1251.51 173.568C1248.74 175.808 1246.71 178.742 1245.43 182.368C1244.15 185.995 1243.51 189.782 1243.51 193.728C1243.51 197.675 1244.15 201.515 1245.43 205.248C1246.71 208.875 1248.74 211.862 1251.51 214.208C1254.29 216.448 1257.81 217.568 1262.07 217.568C1266.66 217.568 1270.23 216.395 1272.79 214.048C1275.46 211.595 1277.43 208.448 1278.71 204.608L1295.99 211.488C1293.11 219.382 1288.74 225.248 1282.87 229.088C1277.01 232.928 1270.07 234.848 1262.07 234.848ZM1341.03 234.848C1336.76 234.848 1332.81 234.048 1329.19 232.448C1325.56 230.848 1322.63 228.235 1320.39 224.608C1318.25 220.982 1317.19 216.128 1317.19 210.048V135.968L1337.35 125.248V204.608C1337.35 209.195 1337.93 212.662 1339.11 215.008C1340.39 217.355 1342.84 218.528 1346.47 218.528C1347.53 218.528 1348.71 218.422 1349.99 218.208C1351.37 217.995 1352.87 217.675 1354.47 217.248V232.448C1352.23 233.302 1349.99 233.888 1347.75 234.208C1345.51 234.635 1343.27 234.848 1341.03 234.848ZM1302.79 169.888V154.368H1354.47V169.888H1302.79Z" fill="#657788"/>
<path d="M1411.26 233.248V154.368H1431.26V174.848L1426.94 178.208C1427.69 173.195 1428.97 169.035 1430.78 165.728C1432.59 162.422 1434.73 159.862 1437.18 158.048C1439.74 156.128 1442.35 154.795 1445.02 154.048C1447.79 153.195 1450.51 152.768 1453.18 152.768C1457.34 152.768 1461.29 153.568 1465.02 155.168C1468.75 156.662 1472.01 159.275 1474.78 163.008C1477.55 166.742 1479.47 171.862 1480.54 178.368L1468.7 182.688C1470.3 175.222 1472.59 169.302 1475.58 164.928C1478.67 160.555 1482.19 157.462 1486.14 155.648C1490.19 153.728 1494.46 152.768 1498.94 152.768C1505.66 152.768 1511.1 154.262 1515.26 157.248C1519.42 160.235 1522.46 164.075 1524.38 168.768C1526.41 173.355 1527.42 178.262 1527.42 183.488V233.248H1507.58V188.288C1507.58 184.342 1507.05 181.035 1505.98 178.368C1505.02 175.595 1503.58 173.515 1501.66 172.128C1499.74 170.742 1497.23 170.048 1494.14 170.048C1490.94 170.048 1488.22 170.902 1485.98 172.608C1483.74 174.315 1482.03 176.875 1480.86 180.288C1479.79 183.702 1479.26 188.075 1479.26 193.408V233.248H1459.42V187.968C1459.42 181.995 1458.3 177.515 1456.06 174.528C1453.93 171.542 1450.78 170.048 1446.62 170.048C1443.31 170.048 1440.49 170.902 1438.14 172.608C1435.9 174.315 1434.19 176.875 1433.02 180.288C1431.85 183.702 1431.26 188.075 1431.26 193.408V233.248H1411.26ZM1580.82 234.848C1574.42 234.848 1568.82 233.728 1564.02 231.488C1559.33 229.142 1555.33 226.048 1552.02 222.208C1548.82 218.368 1546.42 213.995 1544.82 209.088C1543.22 204.182 1542.42 199.062 1542.42 193.728C1542.42 188.502 1543.22 183.435 1544.82 178.528C1546.42 173.622 1548.82 169.248 1552.02 165.408C1555.33 161.568 1559.33 158.528 1564.02 156.288C1568.82 153.942 1574.42 152.768 1580.82 152.768C1588.82 152.768 1595.76 154.688 1601.62 158.528C1607.49 162.368 1611.86 168.182 1614.74 175.968L1597.46 182.848C1596.18 179.115 1594.21 176.075 1591.54 173.728C1588.98 171.275 1585.41 170.048 1580.82 170.048C1576.56 170.048 1573.04 171.222 1570.26 173.568C1567.49 175.808 1565.46 178.742 1564.18 182.368C1562.9 185.995 1562.26 189.782 1562.26 193.728C1562.26 197.675 1562.9 201.515 1564.18 205.248C1565.46 208.875 1567.49 211.862 1570.26 214.208C1573.04 216.448 1576.56 217.568 1580.82 217.568C1585.41 217.568 1588.98 216.395 1591.54 214.048C1594.21 211.595 1596.18 208.448 1597.46 204.608L1614.74 211.488C1611.86 219.382 1607.49 225.248 1601.62 229.088C1595.76 232.928 1588.82 234.848 1580.82 234.848ZM1662.98 267.488C1651.24 267.488 1641.96 265.408 1635.14 261.248C1628.42 257.088 1625.06 251.328 1625.06 243.968C1625.06 243.328 1625.11 242.528 1625.22 241.568C1625.32 240.715 1625.48 239.862 1625.7 239.008L1647.78 225.248L1652.74 230.848L1642.66 243.168C1642.55 243.488 1642.5 243.755 1642.5 243.968C1642.5 244.182 1642.5 244.395 1642.5 244.608C1642.5 247.595 1644.36 249.888 1648.1 251.488C1651.83 253.088 1656.79 253.888 1662.98 253.888C1668.2 253.888 1672.2 253.195 1674.98 251.808C1677.75 250.528 1679.14 248.608 1679.14 246.048C1679.14 244.662 1678.76 243.542 1678.02 242.688C1677.27 241.835 1676.04 241.142 1674.34 240.608C1672.63 240.075 1670.39 239.595 1667.62 239.168C1664.95 238.742 1661.7 238.262 1657.86 237.728C1652.95 237.195 1648.15 236.182 1643.46 234.688C1638.76 233.302 1634.87 231.222 1631.78 228.448C1628.68 225.568 1627.14 221.782 1627.14 217.088C1627.14 212.928 1628.58 209.142 1631.46 205.728C1634.34 202.208 1638.12 199.328 1642.82 197.088L1652.42 204.768C1649.54 205.195 1647.35 206.155 1645.86 207.648C1644.47 209.142 1643.78 210.902 1643.78 212.928C1643.78 214.635 1644.47 216.022 1645.86 217.088C1647.24 218.048 1649.22 218.795 1651.78 219.328C1654.34 219.862 1657.38 220.342 1660.9 220.768C1666.34 221.515 1671.35 222.315 1675.94 223.168C1680.63 224.022 1684.68 225.248 1688.1 226.848C1691.62 228.342 1694.28 230.422 1696.1 233.088C1698.02 235.755 1698.98 239.222 1698.98 243.488C1698.98 251.275 1695.83 257.195 1689.54 261.248C1683.35 265.408 1674.5 267.488 1662.98 267.488ZM1661.38 211.168C1654.76 211.168 1648.95 209.942 1643.94 207.488C1639.03 204.928 1635.19 201.515 1632.42 197.248C1629.64 192.875 1628.26 187.862 1628.26 182.208C1628.26 176.342 1629.7 171.222 1632.58 166.848C1635.56 162.368 1639.51 158.902 1644.42 156.448C1649.43 153.995 1654.87 152.768 1660.74 152.768C1666.5 152.768 1671.83 153.995 1676.74 156.448C1681.75 158.902 1685.75 162.422 1688.74 167.008C1691.83 171.488 1693.38 176.768 1693.38 182.848C1693.38 188.608 1691.99 193.622 1689.22 197.888C1686.55 202.048 1682.82 205.302 1678.02 207.648C1673.22 209.995 1667.67 211.168 1661.38 211.168ZM1660.9 195.488C1665.16 195.488 1668.31 194.208 1670.34 191.648C1672.47 188.982 1673.54 185.782 1673.54 182.048C1673.54 178.208 1672.42 175.115 1670.18 172.768C1667.94 170.315 1664.84 169.088 1660.9 169.088C1656.95 169.088 1653.8 170.315 1651.46 172.768C1649.22 175.222 1648.1 178.315 1648.1 182.048C1648.1 185.782 1649.16 188.982 1651.3 191.648C1653.43 194.208 1656.63 195.488 1660.9 195.488ZM1687.94 171.008L1673.7 161.728L1691.94 147.168L1702.02 159.488L1687.94 171.008ZM1713.13 233.248V154.368H1732.97V233.248H1713.13ZM1712.49 142.208V121.728H1733.77V142.208H1712.49ZM1770.91 234.848C1765.47 234.848 1760.99 233.195 1757.47 229.888C1753.95 226.582 1752.19 221.355 1752.19 214.208V121.728H1771.87V210.368C1771.87 212.608 1772.4 214.208 1773.47 215.168C1774.54 216.022 1775.92 216.448 1777.63 216.448C1778.48 216.448 1779.39 216.395 1780.35 216.288C1781.31 216.075 1782.32 215.808 1783.39 215.488V232.448C1781.15 233.302 1778.91 233.888 1776.67 234.208C1774.54 234.635 1772.62 234.848 1770.91 234.848ZM1815.44 234.848C1810 234.848 1805.52 233.195 1802 229.888C1798.48 226.582 1796.72 221.355 1796.72 214.208V121.728H1816.4V210.368C1816.4 212.608 1816.93 214.208 1818 215.168C1819.07 216.022 1820.45 216.448 1822.16 216.448C1823.01 216.448 1823.92 216.395 1824.88 216.288C1825.84 216.075 1826.85 215.808 1827.92 215.488V232.448C1825.68 233.302 1823.44 233.888 1821.2 234.208C1819.07 234.635 1817.15 234.848 1815.44 234.848Z" fill="#F2594B"/>
<path d="M365 182.5C365 283.292 283.292 365 182.5 365C81.7081 365 4.56286e-05 283.292 4.56286e-05 182.5C4.56286e-05 81.7081 81.7081 3.33195e-05 182.5 3.33195e-05C283.292 3.33195e-05 365 81.7081 365 182.5Z" fill="#80D2C8"/>
<path fill-rule="evenodd" clip-rule="evenodd" d="M166.907 1.08499C74.9762 8.87895 2.47865 84.7184 0.163147 177.945C0.15783 179.044 0.155029 180.279 0.155029 181.646C0.160217 184.287 0.166992 186.274 0.179247 187.754C0.216118 189.064 0.266862 190.372 0.331335 191.675C0.349576 191.709 0.369789 191.706 0.392208 191.675C0.510797 191.523 0.68021 191.387 0.764916 191.387C0.849623 191.387 1.42563 191.726 2.05246 192.133C2.67928 192.539 3.49247 192.929 3.83129 192.997C4.74612 193.149 8.77815 194.335 10.5739 194.945C17.9773 197.52 22.0601 199.96 23.3646 202.619C24.127 204.195 24.3811 205.398 24.5505 208.396C24.8385 213.208 24.9571 213.97 25.6686 215.122C26.431 216.342 27.2272 216.664 30.2259 216.969C32.9195 217.24 34.4442 217.765 39.0014 220.035C44.321 222.678 45.6763 223.102 49.3695 223.305C55.0957 223.627 58.3654 224.135 62.8209 225.372C69.4111 227.218 73.8667 229.742 75.5438 232.555C75.7302 232.86 75.781 233.47 75.781 234.757C75.7641 236.282 75.6794 236.756 75.222 238.111C74.1716 241.195 72.6299 244.041 68.5979 250.36C65.0233 255.934 64.5151 257.408 63.092 265.929C62.1433 271.655 61.3301 274.722 59.8223 278.296C57.7555 283.175 54.7569 286.936 52.9272 286.936C50.2335 286.936 44.914 290.646 42.5591 294.17C41.3902 295.915 41.1022 296.593 41.3393 297.05C41.4579 297.27 41.6104 297.44 41.6951 297.44C41.7629 297.44 41.8306 297.525 41.8306 297.609C41.8306 297.711 42.0001 297.982 42.2203 298.202C42.4236 298.422 42.7963 298.846 43.0504 299.168C43.3045 299.473 43.6772 299.913 43.8636 300.134C44.05 300.371 44.1685 300.659 44.1177 300.777C44.0838 300.913 44.1177 300.964 44.2024 300.913C44.4227 300.777 46.0829 302.539 45.9813 302.81C45.9474 302.946 46.0151 302.98 46.1846 302.912C46.4048 302.827 46.4387 302.878 46.354 303.098C46.2862 303.268 46.3031 303.352 46.4048 303.285C46.5064 303.217 46.6928 303.302 46.8453 303.437C46.9808 303.59 47.0655 303.708 47.0147 303.708C46.9639 303.708 47.4043 304.216 48.0142 304.843C48.6241 305.487 49.0815 306.097 49.0307 306.215C48.9799 306.351 49.0307 306.385 49.1323 306.317C49.234 306.249 50.0472 306.978 50.9959 307.96C51.9277 308.926 52.7578 309.79 52.8425 309.892C53.0797 310.112 54.1809 311.213 54.3333 311.366C54.3687 311.401 54.6168 311.64 54.9834 311.993C55.3185 312.315 55.7526 312.733 56.2138 313.178C57.1964 314.127 57.9249 314.94 57.8571 315.042C57.7894 315.144 57.8232 315.194 57.9588 315.144C58.0774 315.093 58.6872 315.55 59.331 316.16C59.9578 316.77 60.4661 317.21 60.4661 317.16C60.4661 317.109 60.5847 317.193 60.7371 317.329C60.8727 317.481 60.9574 317.668 60.8896 317.769C60.8218 317.871 60.9066 317.888 61.076 317.82C61.2962 317.736 61.347 317.769 61.2623 317.99C61.1946 318.159 61.2284 318.227 61.364 318.193C61.635 318.091 63.3969 319.752 63.2614 319.972C63.2106 320.056 63.2614 320.09 63.3969 320.056C63.5155 320.006 63.8035 320.124 64.0407 320.311C64.2609 320.497 64.7014 320.87 65.0064 321.124C65.3282 321.378 65.7518 321.751 65.972 321.954C66.1922 322.174 66.4294 322.344 66.4802 322.344C66.5311 322.344 66.7513 322.496 66.9546 322.699C67.1579 322.903 67.5984 323.258 67.9203 323.496C68.2421 323.75 68.7843 324.207 69.1062 324.495C69.428 324.8 69.7499 325.054 69.8346 325.054C69.9024 325.054 70.1904 325.291 70.4953 325.562C70.7833 325.85 71.0883 326.071 71.156 326.071C71.2238 326.071 71.4779 326.257 71.7151 326.494C71.9523 326.731 72.2233 326.918 72.325 326.918C72.4097 326.918 72.4944 326.969 72.4944 327.036C72.4944 327.121 72.7824 327.358 73.1212 327.595C73.4601 327.833 73.9175 328.188 74.1208 328.392C74.341 328.612 74.5951 328.781 74.6968 328.781C74.7815 328.781 74.8662 328.866 74.8662 328.968C74.8662 329.052 74.934 329.103 75.0187 329.052C75.0864 329.001 75.2897 329.103 75.4591 329.289C75.6286 329.476 75.8657 329.628 76.0013 329.628C76.1368 329.628 76.1876 329.696 76.1368 329.798C76.086 329.899 76.1537 329.967 76.2893 329.967C76.4417 329.967 76.5603 330.035 76.5603 330.137C76.5603 330.221 76.6789 330.306 76.8144 330.306C76.95 330.306 77.238 330.492 77.4752 330.73C77.7123 330.967 77.9834 331.153 78.085 331.153C78.1697 331.153 78.2545 331.221 78.2545 331.322C78.2545 331.407 78.3731 331.492 78.5086 331.492C78.6441 331.492 78.7627 331.543 78.7627 331.61C78.7627 331.695 79.1523 331.966 79.6098 332.254C80.0841 332.525 80.4568 332.813 80.4568 332.881C80.4568 332.949 80.5754 333.017 80.7109 333.017C80.8465 333.017 80.9651 333.084 80.9651 333.152C80.9651 333.237 81.27 333.44 81.6427 333.626C82.0154 333.796 82.3204 333.999 82.3204 334.067C82.3204 334.152 82.4051 334.202 82.4898 334.202C82.5914 334.202 82.8117 334.338 82.998 334.49C83.1674 334.66 83.6079 334.948 83.9637 335.134C84.3194 335.321 84.726 335.592 84.8616 335.727C84.9971 335.863 85.4376 336.134 85.8272 336.32C86.2338 336.506 86.5557 336.71 86.5557 336.778C86.5557 336.862 86.6743 336.913 86.8098 336.913C86.9453 336.913 87.0639 336.981 87.0639 337.082C87.0639 337.167 87.1825 337.252 87.335 337.252C87.4705 337.252 87.5383 337.32 87.4875 337.421C87.4366 337.506 87.5044 337.591 87.6569 337.591C87.7924 337.591 88.2159 337.777 88.5886 338.014C88.9614 338.251 89.3341 338.438 89.4357 338.438C89.5204 338.438 89.6051 338.506 89.6051 338.607C89.6051 338.692 89.7237 338.777 89.8593 338.777C89.9948 338.777 90.1134 338.827 90.1134 338.895C90.1134 338.98 90.4522 339.183 90.8757 339.37C91.2993 339.556 91.6381 339.759 91.6381 339.827C91.6381 339.912 91.7567 339.962 91.8922 339.962C92.0277 339.962 92.1463 340.03 92.1463 340.132C92.1463 340.217 92.2649 340.301 92.4004 340.301C92.536 340.301 92.6546 340.369 92.6546 340.471C92.6546 340.555 92.7731 340.64 92.9256 340.64C93.2306 340.64 94.2301 341.165 94.3148 341.352C94.3487 341.436 94.4842 341.487 94.6198 341.487C94.7553 341.487 94.8569 341.538 94.8569 341.623C94.8569 341.758 96.0936 342.334 96.3817 342.334C96.4833 342.334 96.5511 342.402 96.5511 342.504C96.5511 342.588 96.6697 342.673 96.8052 342.673C96.9407 342.673 97.0593 342.741 97.0593 342.843C97.0593 342.927 97.2118 343.012 97.3981 343.012C97.5845 343.012 97.737 343.08 97.737 343.181C97.737 343.266 97.8556 343.351 97.9911 343.351C98.1266 343.351 98.2452 343.419 98.2452 343.52C98.2452 343.605 98.3638 343.69 98.4993 343.69C98.7873 343.69 100.498 344.554 100.583 344.74C100.617 344.825 100.786 344.875 100.973 344.875C101.142 344.875 101.295 344.96 101.295 345.062C101.295 345.147 101.362 345.197 101.43 345.147C101.515 345.096 101.82 345.214 102.108 345.401C102.413 345.57 102.769 345.723 102.904 345.723C103.04 345.723 103.158 345.79 103.158 345.892C103.158 345.977 103.328 346.061 103.531 346.061C103.734 346.061 103.836 346.112 103.785 346.18C103.666 346.282 104.53 346.671 105.327 346.858C105.53 346.908 105.699 347.01 105.699 347.095C105.699 347.179 105.852 347.247 106.038 347.247C106.225 347.247 106.377 347.315 106.377 347.417C106.377 347.501 106.529 347.586 106.716 347.586C106.902 347.586 107.055 347.654 107.055 347.755C107.055 347.84 107.173 347.925 107.309 347.925C107.444 347.925 107.953 348.111 108.444 348.348C108.918 348.586 109.426 348.772 109.545 348.772C109.681 348.772 109.731 348.84 109.681 348.941C109.613 349.043 109.765 349.111 110.002 349.111C110.24 349.111 110.443 349.179 110.443 349.28C110.443 349.365 110.562 349.45 110.714 349.45C110.968 349.45 111.832 349.788 112.51 350.144C112.679 350.229 112.933 350.297 113.069 350.297C113.204 350.297 113.323 350.364 113.323 350.466C113.323 350.551 113.526 350.636 113.763 350.636C114.001 350.636 114.153 350.703 114.085 350.805C114.034 350.907 114.153 350.974 114.373 350.974C114.594 350.974 114.983 351.093 115.254 351.228C115.508 351.364 115.881 351.483 116.051 351.483C116.237 351.483 116.372 351.55 116.372 351.652C116.372 351.737 116.576 351.821 116.813 351.821C117.05 351.821 117.203 351.889 117.135 351.991C117.067 352.092 117.219 352.16 117.457 352.16C117.694 352.16 117.897 352.228 117.897 352.313C117.897 352.397 118.202 352.499 118.575 352.567C118.964 352.618 119.422 352.753 119.591 352.838C119.684 352.889 119.807 352.948 119.93 353.007C120.053 353.067 120.176 353.126 120.269 353.177C120.455 353.261 120.76 353.346 120.947 353.346C121.15 353.346 121.251 353.414 121.201 353.516C121.133 353.617 121.319 353.685 121.607 353.685C121.895 353.685 122.132 353.753 122.132 353.837C122.132 353.922 122.471 354.041 122.895 354.092C123.301 354.159 123.691 354.278 123.742 354.38C123.81 354.464 124.03 354.532 124.267 354.532C124.487 354.532 124.674 354.6 124.674 354.701C124.674 354.786 124.911 354.871 125.182 354.871C125.47 354.871 125.69 354.939 125.69 355.04C125.69 355.125 125.927 355.21 126.198 355.21C126.486 355.21 126.707 355.277 126.707 355.362C126.707 355.447 127.096 355.565 127.554 355.633C128.028 355.701 128.401 355.82 128.401 355.904C128.401 355.989 128.638 356.057 128.909 356.057C129.197 356.057 129.417 356.124 129.417 356.226C129.417 356.311 129.688 356.396 130.027 356.396C130.383 356.396 130.586 356.463 130.518 356.565C130.451 356.667 130.637 356.734 130.976 356.734C131.281 356.751 131.84 356.853 132.213 356.988C132.585 357.124 133.06 357.243 133.28 357.243C133.483 357.243 133.653 357.31 133.653 357.412C133.653 357.497 133.924 357.581 134.245 357.581C134.567 357.581 134.838 357.649 134.838 357.751C134.838 357.836 135.109 357.92 135.448 357.92C135.77 357.92 136.007 357.988 135.957 358.073C135.906 358.157 136.346 358.276 136.956 358.344C137.566 358.395 138.091 358.53 138.142 358.615C138.21 358.7 138.498 358.767 138.82 358.767C139.142 358.767 139.446 358.835 139.497 358.937C139.548 359.021 139.87 359.106 140.192 359.106C140.514 359.106 140.768 359.174 140.768 359.276C140.768 359.36 141.073 359.445 141.446 359.445C141.818 359.445 142.123 359.513 142.123 359.597C142.123 359.682 142.733 359.801 143.478 359.869C144.224 359.936 144.834 360.055 144.834 360.14C144.834 360.224 145.173 360.292 145.596 360.292C146.02 360.292 146.359 360.36 146.359 360.461C146.359 360.546 146.697 360.631 147.121 360.631C147.544 360.631 147.883 360.699 147.883 360.8C147.883 360.885 148.273 360.97 148.747 360.97C149.205 360.97 149.56 361.037 149.51 361.122C149.459 361.207 150.204 361.325 151.187 361.393C152.169 361.461 153.016 361.58 153.067 361.664C153.118 361.749 153.525 361.817 153.999 361.817C154.456 361.817 154.829 361.885 154.829 361.986C154.829 362.088 155.304 362.156 155.93 362.156C156.557 362.156 157.032 362.223 157.032 362.325C157.032 362.427 157.506 362.494 158.133 362.494C158.743 362.494 159.234 362.562 159.234 362.647C159.234 362.732 160.42 362.85 161.86 362.918C163.3 362.986 164.537 363.104 164.587 363.189C164.638 363.274 165.434 363.341 166.366 363.341C167.366 363.341 168.043 363.409 168.043 363.511C168.043 363.613 168.958 363.68 170.466 363.68C172.075 363.68 172.787 363.731 172.618 363.85C172.448 363.951 175.938 364.019 182.613 364.019C189.288 364.019 192.778 363.951 192.608 363.85C192.439 363.731 193.15 363.68 194.777 363.68C196.268 363.68 197.182 363.613 197.182 363.511C197.182 363.409 197.86 363.341 198.86 363.341C199.791 363.341 200.588 363.274 200.638 363.189C200.689 363.104 201.926 362.986 203.366 362.918C204.806 362.85 205.992 362.732 205.992 362.647C205.992 362.562 206.483 362.494 207.093 362.494C207.72 362.494 208.194 362.427 208.194 362.325C208.194 362.223 208.669 362.156 209.295 362.156C209.922 362.156 210.397 362.088 210.397 361.986C210.397 361.885 210.769 361.817 211.227 361.817C211.701 361.817 212.108 361.749 212.159 361.664C212.209 361.58 213.056 361.461 214.039 361.393C215.022 361.325 215.767 361.207 215.716 361.122C215.665 361.037 216.021 360.97 216.479 360.97C216.953 360.97 217.343 360.885 217.343 360.8C217.343 360.699 217.681 360.631 218.105 360.631C218.528 360.631 218.867 360.546 218.867 360.461C218.867 360.36 219.206 360.292 219.63 360.292C220.053 360.292 220.392 360.224 220.392 360.14C220.392 360.055 221.002 359.936 221.747 359.869C222.493 359.801 223.103 359.682 223.103 359.597C223.103 359.513 223.458 359.445 223.882 359.445C224.339 359.445 224.61 359.377 224.543 359.276C224.475 359.174 224.678 359.106 225.034 359.106C225.356 359.106 225.678 359.021 225.729 358.937C225.779 358.835 226.084 358.767 226.406 358.767C226.728 358.767 227.016 358.7 227.084 358.615C227.135 358.53 227.66 358.395 228.27 358.344C228.88 358.276 229.32 358.157 229.269 358.073C229.218 357.988 229.456 357.92 229.778 357.92C230.116 357.92 230.387 357.836 230.387 357.751C230.387 357.649 230.658 357.581 230.98 357.581C231.302 357.581 231.573 357.497 231.573 357.412C231.573 357.31 231.743 357.243 231.963 357.243C232.166 357.243 232.641 357.124 233.013 356.988C233.386 356.853 233.945 356.751 234.25 356.734C234.589 356.734 234.775 356.667 234.707 356.565C234.64 356.463 234.843 356.396 235.199 356.396C235.538 356.396 235.809 356.311 235.809 356.226C235.809 356.124 236.046 356.057 236.317 356.057C236.605 356.057 236.825 355.989 236.825 355.904C236.825 355.786 237.469 355.616 238.384 355.481C238.435 355.464 238.553 355.413 238.621 355.345C238.689 355.26 238.926 355.21 239.146 355.21C239.366 355.21 239.536 355.125 239.536 355.04C239.536 354.939 239.773 354.871 240.044 354.871C240.332 354.871 240.552 354.786 240.552 354.701C240.552 354.6 240.739 354.532 240.959 354.532C241.196 354.532 241.416 354.464 241.484 354.38C241.535 354.278 241.924 354.159 242.331 354.092C242.755 354.041 243.093 353.922 243.093 353.837C243.093 353.753 243.331 353.685 243.619 353.685C243.907 353.685 244.093 353.617 244.025 353.516C243.957 353.414 244.144 353.346 244.432 353.346C244.72 353.346 244.957 353.261 244.957 353.177C244.957 353.075 245.109 353.007 245.279 353.007C245.465 353.007 245.652 352.94 245.719 352.855C245.77 352.753 246.16 352.635 246.566 352.567C246.99 352.516 247.329 352.397 247.329 352.313C247.329 352.228 247.532 352.16 247.769 352.16C248.006 352.16 248.159 352.092 248.091 351.991C248.023 351.889 248.176 351.821 248.413 351.821C248.65 351.821 248.853 351.737 248.853 351.652C248.853 351.55 248.989 351.483 249.175 351.483C249.345 351.483 249.717 351.364 249.972 351.228C250.243 351.093 250.632 350.974 250.852 350.974C251.073 350.974 251.191 350.907 251.14 350.805C251.073 350.703 251.225 350.636 251.462 350.636C251.7 350.636 251.903 350.551 251.903 350.466C251.903 350.364 252.021 350.297 252.157 350.297C252.293 350.297 252.547 350.229 252.716 350.144C253.394 349.788 254.258 349.45 254.512 349.45C254.664 349.45 254.783 349.365 254.783 349.28C254.783 349.179 254.969 349.111 255.189 349.111C255.41 349.111 255.63 349.043 255.664 348.975C255.749 348.772 257.629 347.925 258.002 347.925C258.188 347.925 258.341 347.84 258.341 347.755C258.341 347.654 258.493 347.586 258.696 347.586C258.883 347.586 258.984 347.518 258.933 347.417C258.883 347.315 258.984 347.247 259.171 347.247C259.374 347.247 259.526 347.179 259.526 347.095C259.526 347.01 259.696 346.908 259.916 346.858C260.695 346.671 261.559 346.282 261.441 346.18C261.39 346.112 261.492 346.061 261.695 346.061C261.898 346.061 262.068 345.977 262.068 345.892C262.068 345.79 262.186 345.723 262.322 345.723C262.457 345.723 262.813 345.57 263.118 345.401C263.406 345.214 263.711 345.096 263.796 345.147C263.863 345.197 263.931 345.147 263.931 345.062C263.931 344.96 264.084 344.875 264.253 344.875C264.439 344.875 264.609 344.825 264.643 344.74C264.727 344.554 266.438 343.69 266.726 343.69C266.862 343.69 266.981 343.605 266.981 343.52C266.981 343.419 267.099 343.351 267.235 343.351C267.37 343.351 267.489 343.266 267.489 343.181C267.489 343.08 267.641 343.012 267.828 343.012C268.014 343.012 268.167 342.927 268.167 342.843C268.167 342.741 268.285 342.673 268.421 342.673C268.556 342.673 268.675 342.605 268.675 342.521C268.675 342.436 268.895 342.317 269.183 342.25C269.454 342.182 269.725 342.063 269.776 341.978C269.844 341.894 270.03 341.826 270.216 341.826C270.403 341.826 270.504 341.758 270.454 341.657C270.403 341.572 270.471 341.487 270.606 341.487C270.759 341.487 270.877 341.419 270.877 341.352C270.877 341.284 271.267 341.081 271.724 340.894C272.199 340.708 272.571 340.505 272.571 340.437C272.571 340.369 272.724 340.301 272.927 340.301C273.113 340.301 273.215 340.217 273.164 340.132C273.113 340.03 273.181 339.962 273.317 339.962C273.469 339.962 273.588 339.912 273.588 339.827C273.588 339.759 273.927 339.556 274.35 339.37C274.774 339.183 275.112 338.98 275.112 338.895C275.112 338.827 275.231 338.777 275.367 338.777C275.502 338.777 275.621 338.692 275.621 338.607C275.621 338.506 275.773 338.438 275.96 338.438C276.146 338.438 276.298 338.387 276.298 338.302C276.298 338.15 277.264 337.591 277.552 337.591C277.654 337.591 277.857 337.438 277.992 337.252C278.128 337.066 278.331 336.913 278.45 336.913C278.568 336.913 278.67 336.845 278.67 336.761C278.67 336.625 279.297 336.354 279.568 336.388C279.636 336.405 279.687 336.32 279.687 336.235C279.687 336.134 279.771 336.066 279.873 336.066C279.992 336.066 280.195 335.93 280.347 335.761C280.5 335.609 280.923 335.321 281.296 335.134C281.669 334.948 282.092 334.66 282.245 334.49C282.397 334.338 282.6 334.202 282.719 334.202C282.821 334.202 282.905 334.152 282.905 334.067C282.905 333.999 283.21 333.796 283.583 333.626C283.956 333.44 284.261 333.237 284.261 333.152C284.261 333.084 284.345 333.017 284.43 333.017C284.532 333.017 284.769 332.881 284.955 332.695C285.142 332.525 285.582 332.237 285.921 332.068C286.26 331.881 286.666 331.61 286.819 331.441C286.971 331.289 287.158 331.153 287.242 331.153C287.327 331.153 287.513 331.001 287.649 330.831C287.768 330.645 287.937 330.526 288.022 330.577C288.089 330.628 288.157 330.577 288.157 330.492C288.157 330.391 288.276 330.306 288.411 330.306C288.547 330.306 288.665 330.221 288.665 330.137C288.665 330.035 288.784 329.967 288.937 329.967C289.072 329.967 289.14 329.882 289.089 329.798C289.038 329.696 289.089 329.628 289.225 329.628C289.343 329.628 289.614 329.476 289.801 329.306C290.004 329.12 290.207 329.018 290.258 329.069C290.309 329.137 290.36 329.086 290.36 328.985C290.36 328.866 290.444 328.781 290.529 328.781C290.631 328.781 290.936 328.561 291.241 328.273C291.529 328.002 291.834 327.765 291.901 327.765C291.969 327.765 292.223 327.578 292.46 327.341C292.697 327.104 292.935 326.918 292.986 326.918C293.036 326.918 293.274 326.731 293.511 326.494C293.748 326.257 294.002 326.071 294.07 326.071C294.138 326.071 294.442 325.833 294.73 325.562C295.035 325.274 295.323 325.054 295.391 325.054C295.476 325.054 295.866 324.749 296.255 324.377C296.662 324.004 297.051 323.699 297.102 323.699C297.17 323.699 297.543 323.394 297.949 323.021C298.339 322.649 298.695 322.344 298.746 322.344C298.796 322.344 299.034 322.174 299.254 321.954C299.474 321.751 299.898 321.378 300.219 321.124C300.524 320.87 300.965 320.497 301.185 320.311C301.422 320.124 301.71 320.006 301.829 320.056C301.964 320.09 302.015 320.056 301.964 319.972C301.846 319.768 303.54 318.176 303.845 318.21C303.963 318.227 304.014 318.125 303.947 317.973C303.879 317.786 303.93 317.736 304.15 317.82C304.319 317.888 304.404 317.871 304.336 317.769C304.218 317.566 304.675 317.058 304.828 317.21C304.878 317.278 304.929 317.227 304.929 317.126C304.929 317.007 305.014 316.922 305.115 316.922C305.217 316.922 305.607 316.584 305.996 316.16C306.369 315.736 306.776 315.415 306.894 315.465C307.047 315.516 307.081 315.465 307.013 315.279C306.928 315.076 306.979 315.025 307.182 315.11C307.386 315.177 307.419 315.144 307.352 314.94C307.267 314.72 307.318 314.686 307.538 314.771C307.724 314.839 307.792 314.822 307.708 314.703C307.623 314.568 309.554 312.551 310.892 311.399C311.011 311.298 311.231 311.044 311.367 310.857C311.536 310.586 311.638 310.552 311.74 310.705C311.824 310.84 311.875 310.773 311.875 310.519C311.875 310.298 311.943 310.163 312.011 310.214C312.095 310.264 312.265 310.146 312.4 309.943C312.858 309.282 313.518 308.638 313.637 308.74C313.688 308.791 313.739 308.757 313.739 308.638C313.739 308.316 315.551 306.537 315.755 306.656C315.873 306.741 315.89 306.673 315.822 306.487C315.738 306.266 315.772 306.215 315.992 306.3C316.195 306.368 316.229 306.334 316.161 306.131C316.077 305.927 316.127 305.877 316.331 305.961C316.517 306.029 316.568 305.995 316.517 305.843C316.466 305.707 316.619 305.453 316.856 305.267C317.093 305.08 317.296 304.843 317.296 304.725C317.296 304.623 317.381 304.589 317.466 304.64C317.567 304.691 317.635 304.657 317.635 304.538C317.635 304.437 317.805 304.199 318.008 304.03C318.194 303.844 318.313 303.708 318.245 303.708C318.177 303.708 318.245 303.59 318.381 303.437C318.533 303.302 318.719 303.217 318.821 303.285C318.923 303.352 318.94 303.268 318.872 303.098C318.787 302.861 318.821 302.827 319.058 302.912C319.245 302.98 319.312 302.963 319.245 302.844C319.177 302.759 319.329 302.488 319.566 302.268C319.804 302.048 320.007 301.777 320.007 301.675C320.007 301.574 320.092 301.54 320.176 301.59C320.278 301.641 320.346 301.607 320.346 301.506C320.346 301.218 320.82 300.794 321.023 300.913C321.108 300.964 321.142 300.913 321.091 300.777C321.04 300.642 321.193 300.337 321.43 300.1C321.667 299.846 321.87 299.608 321.87 299.558C321.87 299.507 322.04 299.286 322.26 299.066C322.463 298.846 322.734 298.507 322.87 298.321C323.006 298.118 323.175 297.999 323.26 298.05C323.327 298.101 323.395 297.965 323.395 297.745C323.395 297.44 323.429 297.406 323.565 297.609C323.7 297.83 323.734 297.813 323.734 297.542C323.734 297.372 323.92 297.05 324.158 296.83C324.395 296.61 324.581 296.356 324.581 296.254C324.581 296.152 324.666 296.118 324.75 296.169C324.852 296.22 324.92 296.118 324.92 295.915C324.92 295.712 325.005 295.61 325.089 295.661C325.191 295.712 325.259 295.644 325.259 295.509C325.259 295.373 325.445 295.119 325.682 294.933C325.919 294.746 326.106 294.475 326.106 294.306C326.106 294.153 326.19 294.085 326.275 294.136C326.377 294.187 326.445 294.119 326.445 293.95C326.445 293.73 326.495 293.713 326.682 293.865C326.885 294.035 326.902 294.001 326.834 293.73C326.783 293.493 326.834 293.34 327.021 293.272C327.173 293.221 327.292 293.052 327.292 292.917C327.292 292.612 327.715 292.171 327.868 292.307C327.918 292.374 327.969 292.239 327.969 292.036C327.969 291.832 328.037 291.714 328.139 291.765C328.24 291.815 328.308 291.781 328.308 291.68C328.308 291.392 328.918 290.646 329.054 290.782C329.104 290.833 329.155 290.748 329.155 290.562C329.155 290.375 329.308 290.121 329.494 289.986C329.68 289.85 329.833 289.647 329.833 289.528C329.833 289.41 329.918 289.308 330.019 289.308C330.104 289.308 330.155 289.24 330.104 289.173C330.053 289.088 330.172 288.918 330.358 288.8C330.527 288.664 330.68 288.41 330.68 288.241C330.68 288.071 330.765 287.987 330.849 288.037C330.951 288.088 331.019 288.02 331.019 287.851C331.019 287.631 331.07 287.614 331.256 287.766C331.442 287.919 331.459 287.885 331.408 287.546C331.358 287.275 331.459 287.021 331.764 286.716C332.001 286.479 332.205 286.191 332.205 286.089C332.205 286.005 332.289 285.92 332.374 285.92C332.476 285.92 332.543 285.801 332.543 285.649C332.543 285.513 332.611 285.428 332.696 285.479C332.781 285.53 332.899 285.395 332.95 285.157C333.018 284.92 333.136 284.734 333.221 284.734C333.323 284.734 333.391 284.615 333.391 284.463C333.391 284.327 333.475 284.26 333.56 284.31C333.662 284.361 333.729 284.26 333.729 284.073C333.729 283.87 333.814 283.717 333.899 283.717C334 283.717 334.068 283.599 334.068 283.446C334.068 283.311 334.136 283.226 334.221 283.277C334.305 283.328 334.424 283.192 334.475 282.955C334.543 282.718 334.661 282.532 334.746 282.532C334.847 282.532 334.915 282.379 334.915 282.176C334.915 281.989 335 281.888 335.085 281.939C335.186 281.989 335.254 281.871 335.254 281.651C335.254 281.346 335.288 281.312 335.424 281.515C335.559 281.718 335.593 281.701 335.593 281.413C335.593 281.21 335.712 280.956 335.847 280.837C335.983 280.719 336.101 280.516 336.101 280.38C336.101 280.228 336.203 280.16 336.321 280.211C336.491 280.278 336.542 280.177 336.491 279.855C336.423 279.499 336.457 279.448 336.592 279.652C336.745 279.855 336.779 279.838 336.779 279.516C336.779 279.313 336.847 279.143 336.931 279.143C337.016 279.143 337.135 278.957 337.185 278.72C337.253 278.483 337.372 278.296 337.456 278.296C337.558 278.296 337.626 278.144 337.626 277.957C337.626 277.771 337.711 277.619 337.795 277.619C337.897 277.619 337.965 277.5 337.965 277.347C337.965 277.212 338.049 277.144 338.134 277.195C338.236 277.246 338.304 277.144 338.304 276.941C338.304 276.738 338.388 276.636 338.473 276.687C338.575 276.738 338.642 276.636 338.642 276.433C338.642 276.246 338.761 276.043 338.896 275.992C339.032 275.924 339.151 275.738 339.151 275.569C339.151 275.399 339.235 275.247 339.32 275.247C339.422 275.247 339.489 275.094 339.489 274.891C339.489 274.705 339.574 274.603 339.659 274.654C339.76 274.705 339.828 274.603 339.828 274.4C339.828 274.196 339.913 274.095 339.998 274.146C340.099 274.196 340.167 274.095 340.167 273.908C340.167 273.722 340.286 273.468 340.421 273.315C340.557 273.18 340.675 272.926 340.675 272.756C340.675 272.502 340.709 272.485 340.845 272.706C340.98 272.909 341.014 272.858 341.014 272.485C341.014 272.214 341.082 272.045 341.184 272.113C341.285 272.163 341.353 272.062 341.353 271.875C341.353 271.672 341.438 271.52 341.522 271.52C341.624 271.52 341.692 271.367 341.692 271.198C341.692 271.011 341.81 270.757 341.946 270.605C342.081 270.469 342.2 270.232 342.2 270.08C342.2 269.927 342.285 269.859 342.369 269.91C342.471 269.961 342.539 269.859 342.539 269.656C342.539 269.453 342.624 269.351 342.708 269.402C342.81 269.453 342.878 269.351 342.878 269.165C342.878 268.962 342.945 268.809 343.03 268.809C343.115 268.809 343.233 268.538 343.284 268.216C343.352 267.894 343.471 267.623 343.555 267.623C343.657 267.623 343.725 267.505 343.725 267.369C343.725 267.234 343.809 267.115 343.894 267.115C343.996 267.115 344.064 266.963 344.064 266.759C344.064 266.573 344.148 266.471 344.233 266.522C344.335 266.573 344.402 266.505 344.402 266.353C344.402 266.2 344.521 265.963 344.657 265.827C344.792 265.675 344.911 265.421 344.911 265.234C344.911 265.065 344.995 264.913 345.08 264.913C345.182 264.913 345.249 264.76 345.249 264.574C345.249 264.387 345.334 264.235 345.419 264.235C345.521 264.235 345.588 264.082 345.588 263.879C345.588 263.693 345.673 263.591 345.758 263.642C345.859 263.71 345.927 263.557 345.927 263.32C345.927 263.083 346.012 262.88 346.113 262.88C346.198 262.88 346.232 262.812 346.181 262.71C346.13 262.609 346.164 262.541 346.249 262.541C346.351 262.541 346.435 262.388 346.435 262.202C346.435 262.016 346.52 261.863 346.605 261.863C346.706 261.863 346.774 261.66 346.774 261.389C346.774 261.033 346.808 260.982 346.944 261.185C347.062 261.372 347.113 261.287 347.113 260.847C347.113 260.406 347.164 260.321 347.282 260.508C347.418 260.711 347.452 260.66 347.452 260.305C347.452 260.05 347.57 259.745 347.706 259.593C347.858 259.458 347.977 259.288 347.96 259.237C347.926 258.712 347.994 258.475 348.129 258.56C348.231 258.627 348.299 258.475 348.299 258.221C348.299 257.967 348.367 257.814 348.468 257.882C348.57 257.95 348.638 257.797 348.638 257.543C348.638 257.289 348.705 257.137 348.807 257.204C348.909 257.255 348.977 257.12 348.977 256.882C348.977 256.662 349.095 256.357 349.231 256.205C349.366 256.069 349.485 255.798 349.485 255.612C349.485 255.409 349.569 255.256 349.654 255.256C349.756 255.256 349.824 255.053 349.824 254.816C349.824 254.578 349.891 254.426 349.993 254.494C350.095 254.561 350.162 254.409 350.162 254.155C350.162 253.918 350.23 253.748 350.315 253.799C350.4 253.85 350.501 253.596 350.569 253.223C350.62 252.85 350.755 252.545 350.84 252.545C350.942 252.545 351.01 252.342 351.01 252.105C351.01 251.868 351.077 251.715 351.179 251.783C351.281 251.851 351.348 251.665 351.348 251.36C351.348 251.055 351.416 250.868 351.518 250.936C351.619 251.004 351.687 250.817 351.687 250.512C351.687 250.225 351.755 250.021 351.84 250.072C351.924 250.123 352.026 249.869 352.094 249.496C352.145 249.123 352.28 248.818 352.365 248.818C352.466 248.818 352.534 248.581 352.534 248.293C352.534 248.005 352.602 247.819 352.704 247.887C352.805 247.954 352.873 247.768 352.873 247.429C352.873 247.006 352.924 246.938 353.042 247.124C353.097 247.21 353.137 247.242 353.165 247.21C353.174 247.186 353.183 247.162 353.193 247.137C353.206 247.072 353.212 246.967 353.212 246.819C353.212 246.531 353.28 246.277 353.364 246.277C353.466 246.277 353.585 245.938 353.652 245.515C353.703 245.091 353.822 244.803 353.906 244.854C353.991 244.905 354.059 244.702 354.059 244.431C354.059 244.143 354.144 243.905 354.228 243.905C354.33 243.905 354.398 243.668 354.398 243.38C354.398 243.092 354.466 242.906 354.567 242.974C354.669 243.041 354.737 242.872 354.737 242.567C354.737 242.296 354.821 242.042 354.923 242.008C355.008 241.974 355.143 241.635 355.194 241.229C355.245 240.839 355.346 240.568 355.431 240.619C355.516 240.67 355.584 240.432 355.584 240.094C355.584 239.721 355.651 239.518 355.753 239.585C355.855 239.653 355.922 239.45 355.922 239.094C355.922 238.755 356.007 238.484 356.092 238.484C356.194 238.484 356.261 238.264 356.261 237.993C356.261 237.722 356.346 237.468 356.448 237.434C356.549 237.4 356.668 237.01 356.719 236.57C356.77 236.129 356.888 235.774 356.956 235.774C357.041 235.774 357.108 235.536 357.108 235.248C357.108 234.96 357.176 234.774 357.278 234.842C357.379 234.91 357.447 234.655 357.447 234.215C357.447 233.758 357.498 233.571 357.6 233.707C357.684 233.859 357.769 233.571 357.837 232.944C357.888 232.402 358.023 231.945 358.125 231.911C358.21 231.877 358.294 231.538 358.294 231.182C358.294 230.776 358.362 230.539 358.464 230.606C358.565 230.674 358.633 230.42 358.633 229.98C358.633 229.454 358.684 229.319 358.802 229.505C358.824 229.539 358.843 229.561 358.86 229.571C358.896 229.435 358.932 229.299 358.968 229.162C358.971 229.089 358.972 229.006 358.972 228.912C358.972 228.387 359.023 228.15 359.124 228.286C359.147 228.325 359.17 228.331 359.193 228.303C359.238 228.132 359.282 227.96 359.326 227.789C359.345 227.656 359.363 227.499 359.378 227.32C359.446 226.659 359.565 226.117 359.666 226.117C359.751 226.117 359.819 225.812 359.819 225.439C359.819 225.067 359.904 224.762 359.988 224.762C360.09 224.762 360.158 224.457 360.158 224.067C360.158 223.661 360.226 223.423 360.327 223.491C360.342 223.501 360.355 223.504 360.368 223.5C360.411 223.316 360.453 223.132 360.495 222.948C360.496 222.905 360.497 222.86 360.497 222.814C360.497 222.39 360.564 222.068 360.649 222.119C360.66 222.125 360.672 222.121 360.683 222.107C360.745 221.83 360.805 221.553 360.866 221.277C360.886 221.115 360.904 220.936 360.92 220.747C361.005 219.798 361.09 219.374 361.191 219.527C361.204 219.547 361.217 219.559 361.228 219.565C361.266 219.383 361.303 219.201 361.34 219.019C361.343 218.938 361.344 218.847 361.344 218.748C361.344 218.036 361.395 217.799 361.513 217.985C361.523 218 361.532 218.013 361.54 218.022C361.588 217.78 361.636 217.538 361.682 217.296C361.682 217.283 361.683 217.27 361.683 217.257C361.683 216.647 361.75 216.308 361.852 216.376C361.854 216.377 361.856 216.378 361.857 216.379C361.913 216.085 361.968 215.79 362.021 215.496C362.024 214.991 362.09 214.621 362.172 214.664C362.282 214.044 362.39 213.423 362.494 212.801C362.516 212.475 362.53 212.142 362.53 211.836C362.53 211.446 362.597 211.226 362.699 211.293C362.713 211.303 362.726 211.304 362.739 211.298C362.782 211.025 362.825 210.752 362.867 210.48C362.868 210.431 362.868 210.38 362.868 210.328C362.868 209.626 362.913 209.36 363.018 209.486C363.083 209.043 363.148 208.6 363.21 208.155C363.222 207.598 363.27 207.274 363.339 207.227C363.605 205.263 363.84 203.289 364.044 201.306C364.084 200.741 364.129 200.286 364.17 200.026C364.251 199.176 364.327 198.325 364.396 197.471C364.405 196.795 364.434 196.412 364.487 196.302C364.827 191.761 365 187.174 365 182.546C365 149.203 356.024 117.952 340.351 91.0715C340.271 91.1577 340.182 91.2557 340.082 91.366C339.557 91.959 338.812 92.5858 338.354 92.8061C337.609 93.1618 337.321 93.2127 335.169 93.1957C332.645 93.1957 332.103 93.111 327.139 91.8404C322.802 90.7223 320.803 90.4004 318.313 90.4004C316.297 90.4004 315.873 90.4512 314.772 90.8239C312.824 91.4846 311.604 92.6536 310.842 94.6019C310.503 95.4828 310.452 95.8894 310.452 98.295C310.435 100.294 310.52 101.412 310.757 102.53C311.147 104.479 312.095 107.833 312.434 108.477C312.875 109.341 314.094 110.391 315.094 110.764C316.28 111.221 318.889 111.255 320.515 110.849C322.989 110.222 326.021 108.731 327.393 107.494C328.427 106.545 329.138 106.291 330.426 106.444C334.136 106.901 338.304 109.205 341.963 112.865C343.979 114.881 345.012 116.168 346.3 118.269C347.553 120.353 347.825 121.217 347.757 123.029C347.706 124.368 347.638 124.69 347.147 125.638C345.825 128.179 343.843 130.06 337.982 134.295C328.257 141.326 324.31 145.104 321.176 150.356C319.617 152.982 318.821 154.066 317.601 155.235C316.365 156.421 315.585 156.929 314.162 157.522C313.281 157.878 312.875 157.928 311.113 157.928C308.47 157.928 307.301 157.573 303.743 155.726C302.456 155.048 299.169 152.761 297.407 151.321C296.577 150.644 292.003 146.781 291.207 146.103C290.97 145.9 290.41 145.426 289.936 145.053C286.48 142.325 282.736 138.395 279.67 134.295C276.62 130.195 276.163 129.535 272.232 123.622C269.606 119.692 268.031 117.388 266.049 114.643C265.872 114.402 265.342 113.624 264.825 112.864L264.744 112.746C262.576 109.476 261.271 108.223 260.069 108.206C258.933 108.206 257.273 109.476 256.968 110.628C256.629 111.916 257.324 114.982 258.849 118.777C260.374 122.606 261.39 124.791 265.083 132.093C266.794 135.498 268.268 138.344 268.336 138.446C268.404 138.531 268.98 139.598 269.607 140.818C269.902 141.385 270.24 142.025 270.549 142.611C270.895 143.267 271.206 143.857 271.385 144.206C273.317 147.814 275.587 152.27 276.214 153.693C277.857 157.42 278.602 158.25 281.923 160.114C284.684 161.655 290.089 163.079 295.527 163.688C299.44 164.129 301.405 164.671 303.862 166.009C307.64 168.076 309.503 170.905 309.537 174.616C309.537 176.123 309.249 177.14 308.351 178.834C307.775 179.935 305.929 182.68 305.319 183.34C305.149 183.527 304.641 184.137 304.184 184.696C303.726 185.255 301.744 187.338 299.779 189.321C296.814 192.319 295.069 193.996 290.258 198.418C290.216 198.453 290.071 198.585 289.861 198.777C289.56 199.052 289.124 199.449 288.665 199.858C288.207 200.267 287.772 200.664 287.471 200.939C287.26 201.131 287.115 201.263 287.073 201.298C287.033 201.338 286.788 201.562 286.406 201.912C285.813 202.455 284.888 203.301 283.888 204.229C279.517 208.244 278.433 209.532 277.891 211.378C277.569 212.479 277.518 217.765 277.823 220.069C277.925 220.831 278.077 222.068 278.162 222.814C278.331 224.237 278.924 228.404 279.178 230.014C280.263 236.773 280.703 240.144 280.703 241.839C280.703 243.888 280.449 244.566 278.873 246.65C277.569 248.361 276.502 249.445 273.079 252.596C269.302 256.052 265.168 260.186 264.473 261.219C263.406 262.778 263.101 263.591 262.915 265.353C262.678 267.454 262.068 269.859 261.39 271.435C261.305 271.621 261 272.35 260.712 273.044C260.17 274.298 258.357 277.991 257.714 279.143C254.478 284.836 247.922 294.492 243.856 299.558C239.705 304.708 237.011 306.758 232.742 307.994C229.117 309.045 227.626 309.197 221.07 309.214H215.394L214.395 308.706C212.328 307.655 211.007 305.351 210.058 301.15C209.55 298.863 209.431 298.321 209.228 297.27C209.195 297.12 209.152 296.918 209.101 296.681C208.86 295.557 208.446 293.632 208.194 292.527C208.154 292.376 208.085 292.093 208.001 291.753C207.906 291.371 207.794 290.916 207.686 290.494C207.313 289.02 206.619 286.157 205.992 283.463C204.518 277.212 203.366 273.265 201.926 269.673C200.52 266.115 199.131 263.761 197.098 261.44C194.624 258.627 193.964 257.221 193.083 252.969C192.812 251.614 192.812 244.515 193.083 242.296L193.101 242.156C193.306 240.593 193.369 240.117 193.879 236.875C193.956 236.384 194.011 236.032 194.071 235.681C194.232 234.723 194.423 233.77 195.166 230.014C196.081 225.372 196.318 223.661 196.335 221.526C196.335 218.951 195.81 215.495 194.963 212.395C194.336 210.192 192.659 205.296 191.998 203.788C191.846 203.45 191.66 203.009 191.592 202.823C191.456 202.484 189.051 196.707 188.593 195.623C187.577 193.234 186.238 190.828 185.273 189.693C183.392 187.457 180.58 185.678 177.768 184.967C173.617 183.899 169.162 184.052 161.945 185.475C161.521 185.56 160.42 185.695 159.488 185.797C158.26 185.906 157.075 186.037 154.012 186.376C153.273 186.458 152.425 186.552 151.441 186.661C141.039 187.813 131.721 188.253 126.673 187.847C121.641 187.44 120.777 187.101 116.372 183.882C111.205 180.088 109.122 176.564 107.834 169.448C107.292 166.467 107.139 163.976 107.139 158.267C107.139 151.982 107.377 148.543 108.088 144.375C108.749 140.53 110.104 135.498 111.341 132.178C111.44 131.936 111.603 131.479 111.775 130.998C111.868 130.739 111.963 130.473 112.052 130.229C112.134 130.007 112.215 129.78 112.291 129.57C112.452 129.123 112.588 128.747 112.645 128.62C112.798 128.264 114.983 122.487 115.525 120.996C116.084 119.506 116.999 116.812 117.626 114.881C120.083 107.24 123.657 102.971 131.62 98.1765C132.314 97.7529 134.72 96.3976 136.956 95.1609C139.192 93.9242 141.344 92.6875 141.734 92.4164C142.123 92.1623 142.479 91.9421 142.547 91.9421C142.733 91.9421 144.495 90.7731 147.799 88.4691C151.492 85.894 153.271 84.9114 155.71 84.0982C160.216 82.5905 164.096 82.421 170.5 83.4545C171.686 83.6408 176.633 84.5895 177.615 84.8267C178.31 84.9792 179.496 85.1994 181.359 85.5044C181.918 85.606 184.053 85.7924 186.103 85.9279C188.153 86.0634 190.27 86.2837 190.796 86.4192C192.422 86.8427 194.099 87.8423 195.421 89.1468C196.945 90.6376 197.606 91.671 199.707 95.8047C202.57 101.395 203.332 102.073 207.686 102.869C211.718 103.615 213.023 103.513 216.682 102.242L219.291 101.344L221.578 101.361C222.95 101.378 224.865 101.531 226.406 101.751C232.979 102.734 235.334 102.954 238.977 102.954C247.329 102.954 253.716 100.684 259.289 95.72C262.423 92.9247 265.71 88.7571 266.947 86.0126C267.878 83.9458 268.082 83.0479 268.065 80.8455C268.048 79.0667 267.997 78.6601 267.591 77.5589C266.422 74.4586 264.931 72.4596 259.238 66.5302C254.868 61.973 254.054 61.1089 253.004 59.8383C251.412 57.924 251.141 57.636 249.7 56.179C247.905 54.3663 247.125 53.9258 245.635 53.9089C244.178 53.9089 243.737 54.146 241.196 56.3145C237.587 59.3978 236.097 60.2449 232.827 61.092C231.794 61.363 227.643 61.3292 226.152 61.0242C222.933 60.3805 220.68 59.635 216.834 57.9409C211.887 55.7385 210.617 55.2303 207.347 54.163C203.044 52.7569 201.638 52.4689 198.978 52.4689C194.607 52.4689 192.862 53.6717 188.322 59.7536C183.104 66.7673 180.444 69.2915 175.972 71.5447C170.381 74.357 163.74 75.9325 155.744 76.3561C151 76.6102 145.19 76.2714 142.293 75.5937C142.124 75.5457 141.811 75.4721 141.492 75.397C141.362 75.3663 141.23 75.3353 141.107 75.3057C139.751 74.9838 137.82 74.3062 136.837 73.781C132.941 71.7141 132.484 67.3433 135.516 61.1089C136.549 58.9743 138.04 56.8905 140.006 54.8745C143.072 51.6896 145.969 50.0971 148.663 50.0971C149.493 50.0971 151.373 49.7752 152.407 49.4533C153.745 49.0298 155.134 48.115 156.54 46.7088C157.777 45.4891 158.116 45.0147 158.776 43.6594C160.013 41.1013 160.267 39.9662 160.369 36.7135C160.437 34.3078 160.386 33.6471 160.064 31.9699C159.217 27.5652 159.556 23.5162 161.284 17.4851C161.296 17.443 161.313 17.3876 161.332 17.321C161.447 16.9316 161.674 16.161 161.877 15.4521C162.792 12.2672 164.469 7.43893 166.265 2.74619C166.501 2.13914 166.727 1.55411 166.907 1.08499Z" fill="#0069CA"/>
</svg>
