<svg width="1053" height="370" viewBox="0 0 1053 370" fill="none" xmlns="http://www.w3.org/2000/svg">
<path d="M308.433 185.669C308.433 254.008 252.934 309.407 184.472 309.407C116.011 309.407 60.512 254.008 60.512 185.669C60.512 117.33 116.011 61.9298 184.472 61.9298C252.934 61.9298 308.433 117.33 308.433 185.669Z" fill="#80D2C8"/>
<path fill-rule="evenodd" clip-rule="evenodd" d="M173.842 62.3785C111.379 67.6741 62.1208 119.205 60.5506 182.549C60.547 183.294 60.5451 184.131 60.5451 185.058C60.5486 186.848 60.5532 188.196 60.5615 189.201C60.5866 190.094 60.6211 190.984 60.665 191.872C60.6774 191.895 60.6911 191.893 60.7063 191.872C60.7868 191.769 60.9019 191.676 60.9595 191.676C61.017 191.676 61.4084 191.907 61.8343 192.183C62.2602 192.459 62.8127 192.724 63.0429 192.77C63.6644 192.874 66.4039 193.679 67.6241 194.094C72.6541 195.843 75.4282 197.501 76.3145 199.308C76.8324 200.378 77.0051 201.196 77.1202 203.233C77.3159 206.502 77.3964 207.02 77.8799 207.803C78.3979 208.631 78.9389 208.85 80.9762 209.057C82.8064 209.241 83.8423 209.598 86.9386 211.141C90.5529 212.936 91.4738 213.224 93.983 213.362C97.8736 213.581 100.095 213.926 103.122 214.766C107.6 216.021 110.627 217.736 111.767 219.647C111.893 219.854 111.928 220.268 111.928 221.143C111.916 222.179 111.859 222.501 111.548 223.422C110.834 225.517 109.787 227.451 107.047 231.744C104.619 235.531 104.273 236.533 103.307 242.323C102.662 246.213 102.109 248.296 101.085 250.725C99.6807 254.04 97.6434 256.595 96.4002 256.595C94.5701 256.595 90.9558 259.116 89.3558 261.51C88.5616 262.696 88.3659 263.156 88.5271 263.467C88.6076 263.617 88.7112 263.732 88.7688 263.732C88.8148 263.732 88.8609 263.79 88.8609 263.847C88.8609 263.916 88.976 264.1 89.1256 264.25C89.2637 264.4 89.517 264.687 89.6896 264.906C89.8623 265.113 90.1155 265.413 90.2421 265.562C90.3688 265.723 90.4493 265.919 90.4148 266C90.3918 266.092 90.4148 266.126 90.4723 266.092C90.622 266 91.75 267.197 91.6809 267.381C91.6579 267.473 91.704 267.496 91.8191 267.45C91.9687 267.392 91.9917 267.427 91.9342 267.576C91.8881 267.692 91.8996 267.749 91.9687 267.703C92.0378 267.657 92.1644 267.715 92.268 267.807C92.3601 267.91 92.4176 267.991 92.3831 267.991C92.3486 267.991 92.6478 268.336 93.0622 268.762C93.4766 269.199 93.7874 269.614 93.7528 269.694C93.7183 269.786 93.7528 269.809 93.8219 269.763C93.891 269.717 94.4435 270.212 95.088 270.88C95.7211 271.536 96.2851 272.123 96.3427 272.192C96.5038 272.342 97.252 273.09 97.3556 273.194C97.3796 273.218 97.5476 273.379 97.7959 273.618C98.0238 273.838 98.3193 274.122 98.6333 274.425C99.3009 275.07 99.7958 275.622 99.7498 275.691C99.7038 275.76 99.7268 275.795 99.8189 275.76C99.8994 275.726 100.314 276.037 100.751 276.451C101.177 276.865 101.522 277.165 101.522 277.13C101.522 277.096 101.603 277.153 101.707 277.245C101.799 277.349 101.856 277.475 101.81 277.545C101.764 277.614 101.822 277.625 101.937 277.579C102.086 277.522 102.121 277.545 102.063 277.694C102.017 277.809 102.04 277.855 102.132 277.832C102.317 277.763 103.514 278.891 103.422 279.041C103.387 279.098 103.422 279.121 103.514 279.098C103.594 279.064 103.79 279.144 103.951 279.271C104.101 279.398 104.4 279.651 104.607 279.824C104.826 279.996 105.114 280.249 105.263 280.388C105.413 280.537 105.574 280.652 105.609 280.652C105.643 280.652 105.793 280.756 105.931 280.894C106.069 281.032 106.368 281.274 106.587 281.435C106.806 281.608 107.174 281.918 107.393 282.114C107.611 282.321 107.83 282.494 107.888 282.494C107.934 282.494 108.129 282.655 108.337 282.839C108.532 283.035 108.739 283.185 108.786 283.185C108.832 283.185 109.004 283.311 109.165 283.472C109.327 283.634 109.511 283.76 109.58 283.76C109.637 283.76 109.695 283.795 109.695 283.841C109.695 283.898 109.891 284.059 110.121 284.221C110.351 284.382 110.662 284.623 110.8 284.762C110.949 284.911 111.122 285.026 111.191 285.026C111.249 285.026 111.306 285.084 111.306 285.153C111.306 285.21 111.352 285.245 111.41 285.21C111.456 285.176 111.594 285.245 111.709 285.372C111.824 285.498 111.985 285.602 112.078 285.602C112.17 285.602 112.204 285.648 112.17 285.717C112.135 285.786 112.181 285.832 112.273 285.832C112.377 285.832 112.457 285.878 112.457 285.947C112.457 286.005 112.538 286.062 112.63 286.062C112.722 286.062 112.918 286.189 113.079 286.35C113.24 286.511 113.424 286.638 113.493 286.638C113.551 286.638 113.608 286.684 113.608 286.753C113.608 286.81 113.689 286.868 113.781 286.868C113.873 286.868 113.954 286.903 113.954 286.949C113.954 287.006 114.218 287.19 114.529 287.386C114.852 287.57 115.105 287.766 115.105 287.812C115.105 287.858 115.185 287.904 115.277 287.904C115.37 287.904 115.45 287.95 115.45 287.996C115.45 288.054 115.657 288.192 115.91 288.318C116.164 288.433 116.371 288.572 116.371 288.618C116.371 288.675 116.428 288.71 116.486 288.71C116.555 288.71 116.705 288.802 116.831 288.905C116.946 289.02 117.246 289.216 117.487 289.343C117.729 289.469 118.005 289.654 118.097 289.746C118.19 289.838 118.489 290.022 118.754 290.148C119.03 290.275 119.249 290.413 119.249 290.459C119.249 290.517 119.329 290.551 119.421 290.551C119.513 290.551 119.594 290.597 119.594 290.666C119.594 290.724 119.674 290.782 119.778 290.782C119.87 290.782 119.916 290.828 119.882 290.897C119.847 290.954 119.893 291.012 119.997 291.012C120.089 291.012 120.377 291.138 120.63 291.3C120.883 291.461 121.136 291.587 121.205 291.587C121.263 291.587 121.32 291.633 121.32 291.702C121.32 291.76 121.401 291.817 121.493 291.817C121.585 291.817 121.666 291.852 121.666 291.898C121.666 291.956 121.896 292.094 122.184 292.22C122.471 292.347 122.702 292.485 122.702 292.531C122.702 292.589 122.782 292.623 122.874 292.623C122.966 292.623 123.047 292.669 123.047 292.738C123.047 292.796 123.128 292.853 123.22 292.853C123.312 292.853 123.392 292.899 123.392 292.969C123.392 293.026 123.473 293.084 123.576 293.084C123.784 293.084 124.463 293.44 124.52 293.567C124.543 293.625 124.635 293.659 124.728 293.659C124.82 293.659 124.889 293.694 124.889 293.751C124.889 293.843 125.729 294.235 125.925 294.235C125.994 294.235 126.04 294.281 126.04 294.35C126.04 294.407 126.12 294.465 126.212 294.465C126.304 294.465 126.385 294.511 126.385 294.58C126.385 294.638 126.489 294.695 126.615 294.695C126.742 294.695 126.845 294.741 126.845 294.81C126.845 294.868 126.926 294.925 127.018 294.925C127.11 294.925 127.191 294.971 127.191 295.04C127.191 295.098 127.271 295.156 127.363 295.156C127.559 295.156 128.722 295.743 128.779 295.869C128.802 295.927 128.917 295.961 129.044 295.961C129.159 295.961 129.263 296.019 129.263 296.088C129.263 296.145 129.309 296.18 129.355 296.145C129.412 296.111 129.619 296.191 129.815 296.318C130.022 296.433 130.264 296.537 130.356 296.537C130.448 296.537 130.529 296.583 130.529 296.652C130.529 296.709 130.644 296.767 130.782 296.767C130.92 296.767 130.989 296.802 130.955 296.848C130.874 296.917 131.461 297.181 132.002 297.308C132.14 297.343 132.255 297.412 132.255 297.469C132.255 297.527 132.359 297.573 132.486 297.573C132.612 297.573 132.716 297.619 132.716 297.688C132.716 297.745 132.819 297.803 132.946 297.803C133.073 297.803 133.176 297.849 133.176 297.918C133.176 297.976 133.257 298.033 133.349 298.033C133.441 298.033 133.786 298.16 134.12 298.321C134.442 298.482 134.788 298.609 134.868 298.609C134.96 298.609 134.995 298.655 134.96 298.724C134.914 298.793 135.018 298.839 135.179 298.839C135.34 298.839 135.478 298.885 135.478 298.954C135.478 299.012 135.559 299.069 135.662 299.069C135.835 299.069 136.422 299.299 136.883 299.541C136.998 299.599 137.17 299.645 137.262 299.645C137.355 299.645 137.435 299.691 137.435 299.76C137.435 299.817 137.573 299.875 137.734 299.875C137.896 299.875 137.999 299.921 137.953 299.99C137.919 300.059 137.999 300.105 138.149 300.105C138.298 300.105 138.563 300.186 138.747 300.278C138.92 300.37 139.173 300.45 139.288 300.45C139.415 300.45 139.507 300.496 139.507 300.565C139.507 300.623 139.645 300.681 139.806 300.681C139.967 300.681 140.071 300.727 140.025 300.796C139.979 300.865 140.083 300.911 140.244 300.911C140.405 300.911 140.543 300.957 140.543 301.014C140.543 301.072 140.75 301.141 141.003 301.187C141.268 301.222 141.579 301.314 141.694 301.371C141.757 301.406 141.841 301.446 141.924 301.486C142.008 301.527 142.091 301.567 142.154 301.601C142.281 301.659 142.488 301.717 142.615 301.717C142.753 301.717 142.822 301.763 142.787 301.832C142.741 301.901 142.868 301.947 143.064 301.947C143.259 301.947 143.421 301.993 143.421 302.05C143.421 302.108 143.651 302.188 143.939 302.223C144.215 302.269 144.48 302.35 144.514 302.419C144.56 302.476 144.71 302.522 144.871 302.522C145.021 302.522 145.147 302.568 145.147 302.637C145.147 302.695 145.308 302.752 145.492 302.752C145.688 302.752 145.838 302.798 145.838 302.868C145.838 302.925 145.999 302.983 146.183 302.983C146.379 302.983 146.528 303.029 146.528 303.086C146.528 303.144 146.793 303.224 147.104 303.27C147.426 303.316 147.679 303.397 147.679 303.455C147.679 303.512 147.841 303.558 148.025 303.558C148.22 303.558 148.37 303.604 148.37 303.673C148.37 303.731 148.554 303.788 148.784 303.788C149.026 303.788 149.164 303.834 149.118 303.903C149.072 303.973 149.199 304.019 149.429 304.019C149.636 304.03 150.016 304.099 150.269 304.191C150.523 304.283 150.845 304.364 150.994 304.364C151.133 304.364 151.248 304.41 151.248 304.479C151.248 304.537 151.432 304.594 151.651 304.594C151.869 304.594 152.053 304.64 152.053 304.709C152.053 304.767 152.238 304.824 152.468 304.824C152.686 304.824 152.848 304.87 152.813 304.928C152.779 304.985 153.078 305.066 153.492 305.112C153.907 305.147 154.263 305.239 154.298 305.296C154.344 305.354 154.54 305.4 154.758 305.4C154.977 305.4 155.184 305.446 155.219 305.515C155.253 305.573 155.472 305.63 155.691 305.63C155.909 305.63 156.082 305.676 156.082 305.745C156.082 305.803 156.289 305.86 156.542 305.86C156.796 305.86 157.003 305.906 157.003 305.964C157.003 306.021 157.417 306.102 157.924 306.148C158.43 306.194 158.845 306.275 158.845 306.332C158.845 306.39 159.075 306.436 159.363 306.436C159.65 306.436 159.881 306.482 159.881 306.551C159.881 306.608 160.111 306.666 160.398 306.666C160.686 306.666 160.916 306.712 160.916 306.781C160.916 306.839 161.181 306.896 161.504 306.896C161.814 306.896 162.056 306.942 162.021 307C161.987 307.057 162.493 307.138 163.161 307.184C163.829 307.23 164.404 307.311 164.439 307.368C164.473 307.426 164.749 307.472 165.072 307.472C165.383 307.472 165.636 307.518 165.636 307.587C165.636 307.656 165.958 307.702 166.384 307.702C166.81 307.702 167.132 307.748 167.132 307.817C167.132 307.886 167.454 307.932 167.88 307.932C168.295 307.932 168.628 307.978 168.628 308.036C168.628 308.093 169.434 308.174 170.413 308.22C171.391 308.266 172.231 308.347 172.266 308.404C172.3 308.462 172.841 308.508 173.474 308.508C174.154 308.508 174.614 308.554 174.614 308.623C174.614 308.692 175.236 308.738 176.26 308.738C177.353 308.738 177.837 308.772 177.722 308.853C177.607 308.922 179.978 308.968 184.513 308.968C189.048 308.968 191.419 308.922 191.304 308.853C191.189 308.772 191.672 308.738 192.777 308.738C193.79 308.738 194.412 308.692 194.412 308.623C194.412 308.554 194.872 308.508 195.551 308.508C196.185 308.508 196.726 308.462 196.76 308.404C196.795 308.347 197.635 308.266 198.613 308.22C199.592 308.174 200.397 308.093 200.397 308.036C200.397 307.978 200.731 307.932 201.146 307.932C201.571 307.932 201.894 307.886 201.894 307.817C201.894 307.748 202.216 307.702 202.642 307.702C203.068 307.702 203.39 307.656 203.39 307.587C203.39 307.518 203.643 307.472 203.954 307.472C204.276 307.472 204.553 307.426 204.587 307.368C204.622 307.311 205.197 307.23 205.865 307.184C206.532 307.138 207.039 307.057 207.004 307C206.97 306.942 207.212 306.896 207.522 306.896C207.845 306.896 208.109 306.839 208.109 306.781C208.109 306.712 208.34 306.666 208.627 306.666C208.915 306.666 209.145 306.608 209.145 306.551C209.145 306.482 209.376 306.436 209.663 306.436C209.951 306.436 210.181 306.39 210.181 306.332C210.181 306.275 210.596 306.194 211.102 306.148C211.609 306.102 212.023 306.021 212.023 305.964C212.023 305.906 212.265 305.86 212.552 305.86C212.863 305.86 213.047 305.814 213.001 305.745C212.955 305.676 213.093 305.63 213.335 305.63C213.554 305.63 213.773 305.573 213.807 305.515C213.842 305.446 214.049 305.4 214.268 305.4C214.486 305.4 214.682 305.354 214.728 305.296C214.762 305.239 215.119 305.147 215.534 305.112C215.948 305.066 216.247 304.985 216.213 304.928C216.178 304.87 216.339 304.824 216.558 304.824C216.788 304.824 216.973 304.767 216.973 304.709C216.973 304.64 217.157 304.594 217.375 304.594C217.594 304.594 217.778 304.537 217.778 304.479C217.778 304.41 217.893 304.364 218.043 304.364C218.181 304.364 218.503 304.283 218.757 304.191C219.01 304.099 219.39 304.03 219.597 304.019C219.827 304.019 219.954 303.973 219.908 303.903C219.862 303.834 220 303.788 220.241 303.788C220.472 303.788 220.656 303.731 220.656 303.673C220.656 303.604 220.817 303.558 221.001 303.558C221.197 303.558 221.346 303.512 221.346 303.455C221.346 303.374 221.784 303.259 222.405 303.167C222.44 303.155 222.521 303.121 222.567 303.075C222.613 303.017 222.774 302.983 222.923 302.983C223.073 302.983 223.188 302.925 223.188 302.868C223.188 302.798 223.349 302.752 223.533 302.752C223.729 302.752 223.879 302.695 223.879 302.637C223.879 302.568 224.005 302.522 224.155 302.522C224.316 302.522 224.466 302.476 224.512 302.419C224.546 302.35 224.811 302.269 225.087 302.223C225.375 302.188 225.605 302.108 225.605 302.05C225.605 301.993 225.767 301.947 225.962 301.947C226.158 301.947 226.284 301.901 226.238 301.832C226.192 301.763 226.319 301.717 226.515 301.717C226.71 301.717 226.872 301.659 226.872 301.601C226.872 301.532 226.975 301.486 227.09 301.486C227.217 301.486 227.343 301.44 227.389 301.383C227.424 301.314 227.689 301.233 227.965 301.187C228.253 301.152 228.483 301.072 228.483 301.014C228.483 300.957 228.621 300.911 228.782 300.911C228.943 300.911 229.047 300.865 229.001 300.796C228.955 300.727 229.058 300.681 229.22 300.681C229.381 300.681 229.519 300.623 229.519 300.565C229.519 300.496 229.611 300.45 229.738 300.45C229.853 300.45 230.106 300.37 230.279 300.278C230.463 300.186 230.728 300.105 230.877 300.105C231.027 300.105 231.107 300.059 231.073 299.99C231.027 299.921 231.13 299.875 231.292 299.875C231.453 299.875 231.591 299.817 231.591 299.76C231.591 299.691 231.671 299.645 231.763 299.645C231.856 299.645 232.028 299.599 232.143 299.541C232.604 299.299 233.191 299.069 233.363 299.069C233.467 299.069 233.548 299.012 233.548 298.954C233.548 298.885 233.674 298.839 233.824 298.839C233.973 298.839 234.123 298.793 234.146 298.747C234.204 298.609 235.481 298.033 235.735 298.033C235.861 298.033 235.965 297.976 235.965 297.918C235.965 297.849 236.068 297.803 236.207 297.803C236.333 297.803 236.402 297.757 236.368 297.688C236.333 297.619 236.402 297.573 236.529 297.573C236.667 297.573 236.771 297.527 236.771 297.469C236.771 297.412 236.886 297.343 237.035 297.308C237.565 297.181 238.152 296.917 238.071 296.848C238.037 296.802 238.106 296.767 238.244 296.767C238.382 296.767 238.497 296.709 238.497 296.652C238.497 296.583 238.578 296.537 238.67 296.537C238.762 296.537 239.004 296.433 239.211 296.318C239.406 296.191 239.614 296.111 239.671 296.145C239.717 296.18 239.763 296.145 239.763 296.088C239.763 296.019 239.867 295.961 239.982 295.961C240.109 295.961 240.224 295.927 240.247 295.869C240.304 295.743 241.467 295.156 241.662 295.156C241.755 295.156 241.835 295.098 241.835 295.04C241.835 294.971 241.916 294.925 242.008 294.925C242.1 294.925 242.18 294.868 242.18 294.81C242.18 294.741 242.284 294.695 242.411 294.695C242.537 294.695 242.641 294.638 242.641 294.58C242.641 294.511 242.721 294.465 242.814 294.465C242.906 294.465 242.986 294.419 242.986 294.361C242.986 294.304 243.136 294.223 243.331 294.177C243.516 294.131 243.7 294.051 243.734 293.993C243.78 293.935 243.907 293.889 244.034 293.889C244.16 293.889 244.229 293.843 244.195 293.774C244.16 293.717 244.206 293.659 244.298 293.659C244.402 293.659 244.483 293.613 244.483 293.567C244.483 293.521 244.747 293.383 245.058 293.256C245.38 293.13 245.634 292.992 245.634 292.946C245.634 292.899 245.737 292.853 245.875 292.853C246.002 292.853 246.071 292.796 246.036 292.738C246.002 292.669 246.048 292.623 246.14 292.623C246.244 292.623 246.324 292.589 246.324 292.531C246.324 292.485 246.554 292.347 246.842 292.22C247.13 292.094 247.36 291.956 247.36 291.898C247.36 291.852 247.441 291.817 247.533 291.817C247.625 291.817 247.705 291.76 247.705 291.702C247.705 291.633 247.809 291.587 247.936 291.587C248.062 291.587 248.166 291.553 248.166 291.495C248.166 291.392 248.822 291.012 249.018 291.012C249.087 291.012 249.225 290.908 249.317 290.782C249.409 290.655 249.547 290.551 249.628 290.551C249.708 290.551 249.777 290.505 249.777 290.448C249.777 290.356 250.203 290.172 250.387 290.195C250.433 290.206 250.468 290.148 250.468 290.091C250.468 290.022 250.526 289.976 250.595 289.976C250.675 289.976 250.813 289.884 250.917 289.769C251.02 289.665 251.308 289.469 251.561 289.343C251.815 289.216 252.102 289.02 252.206 288.905C252.31 288.802 252.448 288.71 252.528 288.71C252.597 288.71 252.655 288.675 252.655 288.618C252.655 288.572 252.862 288.433 253.115 288.318C253.369 288.192 253.576 288.054 253.576 287.996C253.576 287.95 253.633 287.904 253.691 287.904C253.76 287.904 253.921 287.812 254.048 287.685C254.174 287.57 254.474 287.374 254.704 287.259C254.934 287.133 255.21 286.949 255.314 286.833C255.417 286.73 255.544 286.638 255.602 286.638C255.659 286.638 255.786 286.534 255.878 286.419C255.958 286.292 256.074 286.212 256.131 286.246C256.177 286.281 256.223 286.246 256.223 286.189C256.223 286.12 256.304 286.062 256.396 286.062C256.488 286.062 256.569 286.005 256.569 285.947C256.569 285.878 256.649 285.832 256.753 285.832C256.845 285.832 256.891 285.774 256.856 285.717C256.822 285.648 256.856 285.602 256.948 285.602C257.029 285.602 257.213 285.498 257.34 285.383C257.478 285.257 257.616 285.187 257.651 285.222C257.685 285.268 257.72 285.234 257.72 285.164C257.72 285.084 257.777 285.026 257.835 285.026C257.904 285.026 258.111 284.877 258.318 284.681C258.514 284.497 258.721 284.336 258.767 284.336C258.813 284.336 258.986 284.209 259.147 284.048C259.308 283.887 259.469 283.76 259.504 283.76C259.538 283.76 259.699 283.634 259.861 283.472C260.022 283.311 260.194 283.185 260.24 283.185C260.286 283.185 260.494 283.024 260.689 282.839C260.896 282.644 261.092 282.494 261.138 282.494C261.196 282.494 261.46 282.287 261.725 282.034C262.001 281.78 262.266 281.573 262.301 281.573C262.347 281.573 262.6 281.366 262.876 281.113C263.141 280.86 263.383 280.652 263.417 280.652C263.452 280.652 263.613 280.537 263.763 280.388C263.912 280.249 264.2 279.996 264.419 279.824C264.626 279.651 264.925 279.398 265.075 279.271C265.236 279.144 265.432 279.064 265.512 279.098C265.604 279.121 265.639 279.098 265.604 279.041C265.524 278.903 266.675 277.821 266.882 277.844C266.962 277.855 266.997 277.786 266.951 277.683C266.905 277.556 266.939 277.522 267.089 277.579C267.204 277.625 267.262 277.614 267.216 277.545C267.135 277.406 267.446 277.061 267.55 277.165C267.584 277.211 267.619 277.176 267.619 277.107C267.619 277.027 267.676 276.969 267.745 276.969C267.814 276.969 268.079 276.739 268.344 276.451C268.597 276.163 268.873 275.945 268.954 275.979C269.057 276.014 269.08 275.979 269.034 275.852C268.977 275.714 269.011 275.68 269.15 275.737C269.288 275.783 269.311 275.76 269.265 275.622C269.207 275.473 269.242 275.45 269.391 275.507C269.518 275.553 269.564 275.542 269.506 275.461C269.449 275.369 270.761 273.999 271.67 273.217C271.751 273.148 271.9 272.975 271.993 272.848C272.108 272.664 272.177 272.641 272.246 272.745C272.303 272.837 272.338 272.791 272.338 272.618C272.338 272.468 272.384 272.376 272.43 272.411C272.488 272.445 272.603 272.365 272.695 272.227C273.005 271.778 273.454 271.34 273.535 271.409C273.57 271.444 273.604 271.421 273.604 271.34C273.604 271.122 274.836 269.913 274.974 269.994C275.054 270.051 275.066 270.005 275.02 269.879C274.962 269.729 274.985 269.694 275.135 269.752C275.273 269.798 275.296 269.775 275.25 269.637C275.192 269.499 275.227 269.464 275.365 269.522C275.492 269.568 275.526 269.545 275.492 269.441C275.457 269.349 275.561 269.176 275.722 269.05C275.883 268.923 276.021 268.762 276.021 268.681C276.021 268.612 276.079 268.589 276.136 268.624C276.205 268.658 276.251 268.635 276.251 268.555C276.251 268.486 276.367 268.325 276.505 268.21C276.631 268.083 276.712 267.991 276.666 267.991C276.62 267.991 276.666 267.91 276.758 267.807C276.862 267.715 276.988 267.657 277.057 267.703C277.126 267.749 277.138 267.692 277.092 267.576C277.034 267.415 277.057 267.392 277.218 267.45C277.345 267.496 277.391 267.484 277.345 267.404C277.299 267.346 277.402 267.162 277.564 267.012C277.725 266.863 277.863 266.679 277.863 266.61C277.863 266.541 277.92 266.517 277.978 266.552C278.047 266.587 278.093 266.564 278.093 266.494C278.093 266.299 278.415 266.011 278.554 266.092C278.611 266.126 278.634 266.092 278.6 266C278.565 265.907 278.669 265.7 278.83 265.539C278.991 265.366 279.129 265.205 279.129 265.171C279.129 265.136 279.244 264.987 279.394 264.837C279.532 264.687 279.716 264.457 279.808 264.331C279.9 264.192 280.015 264.112 280.073 264.146C280.119 264.181 280.165 264.089 280.165 263.939C280.165 263.732 280.188 263.709 280.28 263.847C280.372 263.997 280.395 263.985 280.395 263.801C280.395 263.686 280.522 263.467 280.683 263.318C280.844 263.168 280.971 262.995 280.971 262.926C280.971 262.857 281.028 262.834 281.086 262.869C281.155 262.903 281.201 262.834 281.201 262.696C281.201 262.558 281.259 262.489 281.316 262.523C281.385 262.558 281.431 262.512 281.431 262.42C281.431 262.328 281.558 262.155 281.719 262.028C281.88 261.902 282.007 261.718 282.007 261.603C282.007 261.499 282.064 261.453 282.122 261.487C282.191 261.522 282.237 261.476 282.237 261.361C282.237 261.211 282.271 261.2 282.398 261.303C282.536 261.418 282.548 261.395 282.502 261.211C282.467 261.05 282.502 260.946 282.628 260.9C282.732 260.866 282.812 260.751 282.812 260.659C282.812 260.451 283.1 260.152 283.204 260.244C283.238 260.29 283.273 260.198 283.273 260.06C283.273 259.922 283.319 259.841 283.388 259.876C283.457 259.91 283.503 259.887 283.503 259.818C283.503 259.623 283.917 259.116 284.01 259.208C284.044 259.243 284.079 259.185 284.079 259.059C284.079 258.932 284.182 258.759 284.309 258.667C284.435 258.575 284.539 258.437 284.539 258.357C284.539 258.276 284.597 258.207 284.666 258.207C284.723 258.207 284.758 258.161 284.723 258.115C284.689 258.057 284.769 257.942 284.896 257.862C285.011 257.77 285.115 257.597 285.115 257.482C285.115 257.367 285.172 257.309 285.23 257.344C285.299 257.378 285.345 257.332 285.345 257.217C285.345 257.067 285.379 257.056 285.506 257.159C285.633 257.263 285.644 257.24 285.609 257.01C285.575 256.826 285.644 256.653 285.851 256.446C286.012 256.285 286.15 256.089 286.15 256.02C286.15 255.962 286.208 255.905 286.266 255.905C286.335 255.905 286.381 255.824 286.381 255.721C286.381 255.629 286.427 255.571 286.484 255.606C286.542 255.64 286.622 255.548 286.657 255.387C286.703 255.226 286.784 255.099 286.841 255.099C286.91 255.099 286.956 255.019 286.956 254.915C286.956 254.823 287.014 254.777 287.071 254.811C287.14 254.846 287.186 254.777 287.186 254.65C287.186 254.512 287.244 254.408 287.301 254.408C287.371 254.408 287.417 254.328 287.417 254.224C287.417 254.132 287.463 254.075 287.52 254.109C287.578 254.144 287.658 254.052 287.693 253.891C287.739 253.729 287.819 253.603 287.877 253.603C287.946 253.603 287.992 253.499 287.992 253.361C287.992 253.234 288.05 253.165 288.107 253.2C288.176 253.234 288.222 253.154 288.222 253.004C288.222 252.797 288.245 252.774 288.337 252.912C288.43 253.05 288.453 253.039 288.453 252.843C288.453 252.705 288.533 252.532 288.625 252.452C288.717 252.371 288.798 252.233 288.798 252.141C288.798 252.037 288.867 251.991 288.947 252.026C289.063 252.072 289.097 252.003 289.063 251.784C289.017 251.542 289.04 251.508 289.132 251.646C289.235 251.784 289.258 251.773 289.258 251.554C289.258 251.416 289.304 251.301 289.362 251.301C289.419 251.301 289.5 251.174 289.535 251.013C289.581 250.852 289.661 250.725 289.719 250.725C289.788 250.725 289.834 250.622 289.834 250.495C289.834 250.368 289.891 250.265 289.949 250.265C290.018 250.265 290.064 250.184 290.064 250.081C290.064 249.988 290.122 249.942 290.179 249.977C290.248 250.011 290.294 249.942 290.294 249.804C290.294 249.666 290.352 249.597 290.409 249.632C290.478 249.666 290.524 249.597 290.524 249.459C290.524 249.332 290.605 249.194 290.697 249.16C290.789 249.114 290.87 248.987 290.87 248.872C290.87 248.757 290.927 248.653 290.985 248.653C291.054 248.653 291.1 248.55 291.1 248.412C291.1 248.285 291.158 248.216 291.215 248.25C291.284 248.285 291.33 248.216 291.33 248.078C291.33 247.94 291.388 247.871 291.445 247.905C291.514 247.94 291.56 247.871 291.56 247.744C291.56 247.617 291.641 247.445 291.733 247.341C291.825 247.249 291.906 247.076 291.906 246.961C291.906 246.789 291.929 246.777 292.021 246.927C292.113 247.065 292.136 247.03 292.136 246.777C292.136 246.593 292.182 246.478 292.251 246.524C292.32 246.558 292.366 246.489 292.366 246.363C292.366 246.225 292.424 246.121 292.481 246.121C292.55 246.121 292.596 246.017 292.596 245.902C292.596 245.776 292.677 245.603 292.769 245.499C292.861 245.407 292.942 245.246 292.942 245.143C292.942 245.039 292.999 244.993 293.057 245.027C293.126 245.062 293.172 244.993 293.172 244.855C293.172 244.717 293.229 244.648 293.287 244.682C293.356 244.717 293.402 244.648 293.402 244.521C293.402 244.383 293.448 244.279 293.506 244.279C293.563 244.279 293.644 244.095 293.678 243.876C293.724 243.658 293.805 243.474 293.862 243.474C293.932 243.474 293.978 243.393 293.978 243.301C293.978 243.209 294.035 243.128 294.093 243.128C294.162 243.128 294.208 243.025 294.208 242.887C294.208 242.76 294.265 242.691 294.323 242.725C294.392 242.76 294.438 242.714 294.438 242.61C294.438 242.507 294.519 242.346 294.611 242.253C294.703 242.15 294.783 241.977 294.783 241.851C294.783 241.735 294.841 241.632 294.898 241.632C294.967 241.632 295.014 241.528 295.014 241.402C295.014 241.275 295.071 241.171 295.129 241.171C295.198 241.171 295.244 241.068 295.244 240.93C295.244 240.803 295.301 240.734 295.359 240.769C295.428 240.815 295.474 240.711 295.474 240.55C295.474 240.389 295.531 240.251 295.601 240.251C295.658 240.251 295.681 240.205 295.647 240.136C295.612 240.066 295.635 240.02 295.693 240.02C295.762 240.02 295.819 239.917 295.819 239.79C295.819 239.664 295.877 239.56 295.934 239.56C296.003 239.56 296.049 239.422 296.049 239.238C296.049 238.996 296.072 238.961 296.165 239.1C296.245 239.226 296.28 239.169 296.28 238.869C296.28 238.57 296.314 238.513 296.395 238.639C296.487 238.777 296.51 238.743 296.51 238.501C296.51 238.328 296.59 238.121 296.683 238.018C296.786 237.926 296.867 237.81 296.855 237.776C296.832 237.419 296.878 237.258 296.97 237.315C297.039 237.361 297.085 237.258 297.085 237.085C297.085 236.913 297.131 236.809 297.201 236.855C297.27 236.901 297.316 236.797 297.316 236.625C297.316 236.452 297.362 236.349 297.431 236.395C297.5 236.429 297.546 236.337 297.546 236.176C297.546 236.026 297.626 235.819 297.718 235.715C297.811 235.623 297.891 235.439 297.891 235.313C297.891 235.175 297.949 235.071 298.006 235.071C298.075 235.071 298.121 234.933 298.121 234.772C298.121 234.61 298.167 234.507 298.236 234.553C298.306 234.599 298.352 234.495 298.352 234.323C298.352 234.162 298.398 234.046 298.455 234.081C298.513 234.116 298.582 233.943 298.628 233.69C298.662 233.436 298.754 233.229 298.812 233.229C298.881 233.229 298.927 233.091 298.927 232.93C298.927 232.769 298.973 232.665 299.042 232.711C299.111 232.757 299.157 232.631 299.157 232.424C299.157 232.216 299.203 232.09 299.272 232.136C299.341 232.182 299.388 232.055 299.388 231.848C299.388 231.652 299.434 231.514 299.491 231.549C299.549 231.583 299.618 231.411 299.664 231.157C299.698 230.904 299.79 230.697 299.848 230.697C299.917 230.697 299.963 230.536 299.963 230.34C299.963 230.144 300.009 230.018 300.078 230.064C300.147 230.11 300.193 229.983 300.193 229.753C300.193 229.465 300.228 229.419 300.308 229.546C300.345 229.604 300.373 229.626 300.392 229.604C300.398 229.588 300.404 229.571 300.41 229.555C300.419 229.51 300.423 229.439 300.423 229.339C300.423 229.143 300.469 228.97 300.527 228.97C300.596 228.97 300.677 228.74 300.723 228.452C300.757 228.165 300.838 227.969 300.895 228.003C300.953 228.038 300.999 227.9 300.999 227.716C300.999 227.52 301.057 227.359 301.114 227.359C301.183 227.359 301.229 227.198 301.229 227.002C301.229 226.806 301.275 226.68 301.344 226.726C301.413 226.772 301.459 226.657 301.459 226.45C301.459 226.265 301.517 226.093 301.586 226.07C301.644 226.047 301.736 225.817 301.77 225.54C301.805 225.276 301.874 225.091 301.931 225.126C301.989 225.16 302.035 224.999 302.035 224.769C302.035 224.516 302.081 224.378 302.15 224.424C302.219 224.47 302.265 224.332 302.265 224.09C302.265 223.86 302.323 223.676 302.38 223.676C302.449 223.676 302.495 223.526 302.495 223.342C302.495 223.158 302.553 222.985 302.622 222.962C302.691 222.939 302.772 222.674 302.806 222.375C302.841 222.076 302.921 221.834 302.967 221.834C303.025 221.834 303.071 221.673 303.071 221.477C303.071 221.281 303.117 221.155 303.186 221.201C303.255 221.247 303.301 221.074 303.301 220.775C303.301 220.464 303.336 220.338 303.405 220.43C303.462 220.533 303.52 220.338 303.566 219.912C303.6 219.543 303.692 219.233 303.762 219.209C303.819 219.186 303.877 218.956 303.877 218.715C303.877 218.438 303.923 218.277 303.992 218.323C304.061 218.369 304.107 218.197 304.107 217.897C304.107 217.54 304.141 217.448 304.222 217.575C304.236 217.598 304.249 217.613 304.261 217.619C304.286 217.527 304.31 217.435 304.335 217.342C304.336 217.292 304.337 217.236 304.337 217.172C304.337 216.815 304.372 216.654 304.441 216.746C304.456 216.773 304.472 216.777 304.488 216.758C304.518 216.642 304.548 216.526 304.577 216.409C304.59 216.319 304.602 216.212 304.613 216.09C304.659 215.641 304.74 215.273 304.809 215.273C304.866 215.273 304.913 215.066 304.913 214.812C304.913 214.559 304.97 214.352 305.028 214.352C305.097 214.352 305.143 214.145 305.143 213.88C305.143 213.604 305.189 213.443 305.258 213.489C305.268 213.495 305.277 213.497 305.286 213.495C305.315 213.37 305.343 213.245 305.372 213.12C305.373 213.091 305.373 213.06 305.373 213.028C305.373 212.741 305.419 212.522 305.477 212.556C305.484 212.561 305.492 212.558 305.5 212.548C305.542 212.36 305.583 212.173 305.624 211.985C305.637 211.875 305.65 211.753 305.661 211.624C305.718 210.98 305.776 210.692 305.845 210.795C305.854 210.809 305.862 210.817 305.87 210.821C305.896 210.698 305.921 210.574 305.946 210.451C305.948 210.395 305.948 210.334 305.948 210.266C305.948 209.782 305.983 209.621 306.064 209.748C306.07 209.758 306.076 209.767 306.082 209.773C306.115 209.609 306.147 209.445 306.179 209.28C306.179 209.271 306.179 209.262 306.179 209.253C306.179 208.839 306.225 208.608 306.294 208.654C306.295 208.655 306.296 208.656 306.298 208.657C306.335 208.457 306.372 208.257 306.409 208.057C306.411 207.714 306.455 207.462 306.511 207.491C306.586 207.07 306.659 206.649 306.73 206.227C306.745 206.004 306.754 205.778 306.754 205.57C306.754 205.305 306.8 205.155 306.869 205.201C306.879 205.208 306.888 205.208 306.897 205.204C306.926 205.019 306.955 204.834 306.984 204.649C306.984 204.616 306.984 204.581 306.984 204.545C306.984 204.068 307.015 203.887 307.086 203.973C307.131 203.673 307.174 203.371 307.217 203.07C307.225 202.69 307.257 202.47 307.304 202.438C307.485 201.105 307.645 199.765 307.783 198.419C307.81 198.032 307.841 197.721 307.869 197.544C307.924 196.968 307.975 196.39 308.022 195.812C308.028 195.35 308.048 195.09 308.084 195.016C308.315 191.93 308.433 188.813 308.433 185.669C308.433 163.014 302.334 141.782 291.686 123.518C291.631 123.577 291.571 123.644 291.503 123.719C291.146 124.122 290.64 124.547 290.329 124.697C289.822 124.939 289.627 124.973 288.165 124.962C286.45 124.962 286.081 124.904 282.709 124.041C279.762 123.281 278.404 123.063 276.712 123.063C275.342 123.063 275.054 123.097 274.306 123.35C272.982 123.799 272.154 124.593 271.636 125.917C271.406 126.516 271.371 126.792 271.371 128.426C271.359 129.785 271.417 130.544 271.578 131.304C271.843 132.628 272.488 134.907 272.718 135.344C273.017 135.931 273.846 136.645 274.525 136.898C275.331 137.209 277.103 137.232 278.208 136.956C279.889 136.53 281.949 135.517 282.882 134.677C283.584 134.032 284.067 133.859 284.942 133.963C287.463 134.274 290.294 135.839 292.781 138.325C294.15 139.695 294.852 140.57 295.727 141.997C296.579 143.413 296.763 144 296.717 145.232C296.683 146.141 296.637 146.36 296.303 147.004C295.405 148.731 294.058 150.009 290.076 152.886C283.469 157.663 280.787 160.23 278.657 163.798C277.598 165.582 277.057 166.319 276.228 167.113C275.388 167.919 274.859 168.264 273.892 168.667C273.293 168.909 273.017 168.943 271.82 168.943C270.024 168.943 269.23 168.702 266.813 167.447C265.938 166.987 263.705 165.433 262.508 164.454C261.944 163.994 258.836 161.369 258.295 160.909C258.134 160.771 257.754 160.449 257.432 160.195C255.084 158.342 252.54 155.672 250.456 152.886C248.385 150.101 248.074 149.652 245.403 145.635C243.619 142.964 242.549 141.399 241.202 139.534C241.082 139.37 240.721 138.84 240.369 138.323L240.316 138.245C238.842 136.023 237.956 135.172 237.139 135.16C236.368 135.16 235.24 136.023 235.032 136.806C234.802 137.681 235.274 139.764 236.31 142.343C237.346 144.944 238.037 146.429 240.546 151.39C241.709 153.703 242.71 155.637 242.756 155.706C242.802 155.764 243.193 156.489 243.619 157.318C243.82 157.703 244.049 158.138 244.26 158.536C244.495 158.982 244.706 159.383 244.828 159.62C246.14 162.072 247.682 165.099 248.108 166.066C249.225 168.598 249.731 169.162 251.987 170.428C253.864 171.476 257.535 172.442 261.23 172.857C263.889 173.156 265.224 173.524 266.893 174.434C269.46 175.838 270.726 177.76 270.749 180.281C270.749 181.306 270.554 181.996 269.944 183.147C269.552 183.895 268.298 185.76 267.883 186.209C267.768 186.336 267.423 186.75 267.112 187.13C266.801 187.51 265.455 188.925 264.119 190.272C262.105 192.31 260.919 193.449 257.651 196.453C257.622 196.477 257.523 196.567 257.38 196.698C257.176 196.884 256.88 197.154 256.569 197.432C256.257 197.71 255.961 197.979 255.756 198.166C255.613 198.297 255.515 198.386 255.487 198.41C255.46 198.437 255.293 198.59 255.033 198.827C254.63 199.196 254.002 199.771 253.323 200.401C250.353 203.129 249.616 204.004 249.248 205.259C249.029 206.007 248.995 209.598 249.202 211.164C249.271 211.682 249.374 212.522 249.432 213.028C249.547 213.995 249.95 216.827 250.123 217.92C250.859 222.513 251.159 224.804 251.159 225.955C251.159 227.347 250.986 227.808 249.915 229.224C249.029 230.386 248.304 231.123 245.979 233.264C243.412 235.612 240.604 238.42 240.132 239.123C239.406 240.182 239.199 240.734 239.073 241.931C238.911 243.358 238.497 244.993 238.037 246.063C237.979 246.19 237.772 246.685 237.576 247.157C237.208 248.009 235.976 250.518 235.539 251.301C233.34 255.168 228.886 261.729 226.123 265.171C223.303 268.67 221.473 270.063 218.572 270.903C216.109 271.617 215.096 271.72 210.642 271.732H206.786L206.107 271.386C204.702 270.673 203.805 269.107 203.16 266.253C202.815 264.699 202.734 264.331 202.596 263.617C202.574 263.515 202.544 263.378 202.51 263.216C202.346 262.453 202.065 261.145 201.894 260.394C201.867 260.291 201.819 260.099 201.762 259.868C201.698 259.608 201.622 259.299 201.548 259.013C201.295 258.011 200.823 256.066 200.397 254.236C199.396 249.988 198.613 247.307 197.635 244.866C196.68 242.449 195.736 240.849 194.354 239.272C192.674 237.361 192.225 236.406 191.626 233.517C191.442 232.596 191.442 227.773 191.626 226.265L191.639 226.171C191.778 225.109 191.821 224.786 192.167 222.582C192.22 222.249 192.257 222.01 192.298 221.771C192.407 221.12 192.537 220.472 193.042 217.92C193.664 214.766 193.825 213.604 193.836 212.154C193.836 210.404 193.48 208.056 192.904 205.949C192.478 204.453 191.339 201.127 190.89 200.102C190.786 199.872 190.66 199.573 190.614 199.446C190.521 199.216 188.887 195.291 188.576 194.554C187.886 192.931 186.976 191.297 186.32 190.525C185.042 189.006 183.132 187.797 181.221 187.314C178.401 186.589 175.374 186.692 170.47 187.659C170.182 187.717 169.434 187.809 168.801 187.878C167.967 187.952 167.162 188.041 165.082 188.272C164.58 188.327 164.003 188.391 163.334 188.465C156.266 189.248 149.935 189.547 146.505 189.271C143.087 188.995 142.5 188.764 139.507 186.577C135.996 183.999 134.58 181.605 133.706 176.77C133.337 174.745 133.234 173.053 133.234 169.174C133.234 164.903 133.395 162.566 133.878 159.735C134.327 157.122 135.248 153.703 136.088 151.447C136.156 151.283 136.267 150.973 136.384 150.646C136.447 150.47 136.511 150.289 136.572 150.124C136.627 149.972 136.683 149.818 136.734 149.675C136.843 149.372 136.936 149.116 136.975 149.03C137.078 148.788 138.563 144.863 138.931 143.85C139.311 142.838 139.933 141.007 140.359 139.695C142.028 134.504 144.456 131.603 149.866 128.346C150.338 128.058 151.973 127.137 153.492 126.297C155.012 125.457 156.473 124.617 156.738 124.432C157.003 124.26 157.245 124.11 157.291 124.11C157.417 124.11 158.614 123.316 160.859 121.75C163.368 120.001 164.577 119.333 166.234 118.781C169.296 117.756 171.932 117.641 176.283 118.343C177.089 118.47 180.45 119.114 181.117 119.276C181.589 119.379 182.395 119.529 183.661 119.736C184.041 119.805 185.491 119.932 186.884 120.024C188.277 120.116 189.716 120.266 190.073 120.358C191.178 120.645 192.317 121.325 193.215 122.211C194.251 123.224 194.7 123.926 196.127 126.734C198.072 130.533 198.59 130.993 201.548 131.534C204.288 132.041 205.174 131.972 207.661 131.108L209.433 130.498L210.987 130.51C211.919 130.521 213.22 130.625 214.268 130.775C218.734 131.442 220.334 131.592 222.808 131.592C228.483 131.592 232.822 130.049 236.609 126.677C238.739 124.778 240.972 121.946 241.812 120.081C242.445 118.677 242.583 118.067 242.572 116.571C242.56 115.362 242.526 115.086 242.249 114.338C241.455 112.231 240.442 110.873 236.575 106.844C233.605 103.748 233.053 103.161 232.339 102.298C231.257 100.997 231.073 100.801 230.094 99.8115C228.874 98.5798 228.345 98.2806 227.332 98.2691C226.342 98.2691 226.043 98.4302 224.316 99.9035C221.864 101.998 220.852 102.574 218.63 103.149C217.928 103.334 215.108 103.311 214.095 103.103C211.908 102.666 210.377 102.16 207.764 101.009C204.403 99.5122 203.54 99.1669 201.318 98.4417C198.395 97.4864 197.439 97.2907 195.632 97.2907C192.662 97.2907 191.477 98.1079 188.392 102.24C184.847 107.005 183.04 108.721 180.001 110.251C176.202 112.162 171.69 113.233 166.257 113.52C163.034 113.693 159.086 113.463 157.118 113.002C157.004 112.97 156.791 112.92 156.574 112.869C156.486 112.848 156.396 112.827 156.312 112.807C155.391 112.588 154.079 112.128 153.412 111.771C150.764 110.367 150.453 107.397 152.514 103.161C153.216 101.711 154.229 100.295 155.564 98.9252C157.647 96.7612 159.616 95.6792 161.446 95.6792C162.01 95.6792 163.288 95.4605 163.99 95.2418C164.899 94.9541 165.843 94.3325 166.798 93.3771C167.639 92.5484 167.869 92.2261 168.318 91.3052C169.158 89.5672 169.331 88.7959 169.4 86.5859C169.446 84.9515 169.411 84.5025 169.192 83.363C168.617 80.3703 168.847 77.6193 170.021 73.5215C170.03 73.493 170.041 73.4555 170.054 73.4104C170.132 73.1459 170.286 72.6221 170.424 72.1403C171.046 69.9763 172.185 66.6959 173.405 63.5075C173.566 63.0949 173.719 62.6973 173.842 62.3785Z" fill="#0069CA"/>
<path d="M367.279 197.5V120.83H381.029V155.59L378.719 155.92C379.672 152.62 381.066 149.98 382.899 148C384.806 145.947 386.969 144.48 389.389 143.6C391.882 142.647 394.376 142.17 396.869 142.17C403.029 142.17 407.832 143.93 411.279 147.45C414.799 150.897 416.559 155.773 416.559 162.08V197.5H402.809V167.14C402.809 162.593 402.002 159.293 400.389 157.24C398.776 155.113 396.246 154.05 392.799 154.05C388.912 154.05 385.979 155.443 383.999 158.23C382.019 161.017 381.029 165.453 381.029 171.54V197.5H367.279ZM464.129 197.5L463.029 189.36V163.29C463.029 160.063 462.002 157.68 459.949 156.14C457.969 154.527 455.255 153.72 451.809 153.72C448.949 153.72 446.015 154.307 443.009 155.48C440.075 156.58 437.472 158.157 435.199 160.21L428.269 150.86C432.082 147.78 435.969 145.58 439.929 144.26C443.962 142.867 448.289 142.17 452.909 142.17C460.389 142.17 466.219 144.04 470.399 147.78C474.579 151.52 476.669 156.69 476.669 163.29V197.5H464.129ZM447.739 198.6C443.779 198.6 440.222 197.867 437.069 196.4C433.989 194.933 431.532 192.843 429.699 190.13C427.939 187.417 427.059 184.3 427.059 180.78C427.059 177.627 427.682 174.95 428.929 172.75C430.249 170.477 431.972 168.753 434.099 167.58C435.932 166.48 437.949 165.71 440.149 165.27C442.422 164.83 444.842 164.61 447.409 164.61H464.239V174.73H449.389C448.215 174.73 447.042 174.84 445.869 175.06C444.769 175.207 443.815 175.61 443.009 176.27C442.275 176.783 441.725 177.443 441.359 178.25C440.992 178.983 440.809 179.827 440.809 180.78C440.809 182.833 441.615 184.483 443.229 185.73C444.842 186.977 447.005 187.6 449.719 187.6C452.139 187.6 454.339 187.087 456.319 186.06C458.372 184.96 459.985 183.493 461.159 181.66C462.405 179.753 463.029 177.59 463.029 175.17L466.659 182.43C465.705 186.243 464.239 189.36 462.259 191.78C460.352 194.127 458.152 195.85 455.659 196.95C453.165 198.05 450.525 198.6 447.739 198.6ZM513.288 198.6C508.888 198.6 505.038 197.83 501.738 196.29C498.511 194.677 495.761 192.55 493.488 189.91C491.288 187.27 489.638 184.263 488.538 180.89C487.438 177.517 486.888 173.997 486.888 170.33C486.888 166.737 487.438 163.253 488.538 159.88C489.638 156.507 491.288 153.5 493.488 150.86C495.761 148.22 498.511 146.13 501.738 144.59C505.038 142.977 508.888 142.17 513.288 142.17C518.788 142.17 523.554 143.49 527.588 146.13C531.621 148.77 534.628 152.767 536.608 158.12L524.728 162.85C523.848 160.283 522.491 158.193 520.658 156.58C518.898 154.893 516.441 154.05 513.288 154.05C510.354 154.05 507.934 154.857 506.028 156.47C504.121 158.01 502.728 160.027 501.848 162.52C500.968 165.013 500.528 167.617 500.528 170.33C500.528 173.043 500.968 175.683 501.848 178.25C502.728 180.743 504.121 182.797 506.028 184.41C507.934 185.95 510.354 186.72 513.288 186.72C516.441 186.72 518.898 185.913 520.658 184.3C522.491 182.613 523.848 180.45 524.728 177.81L536.608 182.54C534.628 187.967 531.621 192 527.588 194.64C523.554 197.28 518.788 198.6 513.288 198.6ZM583.628 197.5L567.898 172.75L559.428 182.21V165.16L580.218 143.27H597.598L577.908 163.51L599.908 197.5H583.628ZM546.888 197.5V120.83H560.638V197.5H546.888ZM636.491 197.5V179.46H602.611V168.9L638.251 120.83H650.241V166.7H662.451V179.46H650.241V197.5H636.491ZM613.281 171.43L613.061 166.7H636.491V134.36L638.361 136.23L613.281 171.43ZM669.884 197.5V143.27H683.524V197.5H669.884ZM669.444 134.91V120.83H684.074V134.91H669.444ZM696.957 197.5V143.27H710.707V157.35L707.737 159.66C708.25 156.213 709.13 153.353 710.377 151.08C711.623 148.807 713.09 147.047 714.777 145.8C716.537 144.48 718.333 143.563 720.167 143.05C722.073 142.463 723.943 142.17 725.777 142.17C728.637 142.17 731.35 142.72 733.917 143.82C736.483 144.847 738.72 146.643 740.627 149.21C742.533 151.777 743.853 155.297 744.587 159.77L736.447 162.74C737.547 157.607 739.123 153.537 741.177 150.53C743.303 147.523 745.723 145.397 748.437 144.15C751.223 142.83 754.157 142.17 757.237 142.17C761.857 142.17 765.597 143.197 768.457 145.25C771.317 147.303 773.407 149.943 774.727 153.17C776.12 156.323 776.817 159.697 776.817 163.29V197.5H763.177V166.59C763.177 163.877 762.81 161.603 762.077 159.77C761.417 157.863 760.427 156.433 759.107 155.48C757.787 154.527 756.063 154.05 753.937 154.05C751.737 154.05 749.867 154.637 748.327 155.81C746.787 156.983 745.613 158.743 744.807 161.09C744.073 163.437 743.707 166.443 743.707 170.11V197.5H730.067V166.37C730.067 162.263 729.297 159.183 727.757 157.13C726.29 155.077 724.127 154.05 721.267 154.05C718.993 154.05 717.05 154.637 715.437 155.81C713.897 156.983 712.723 158.743 711.917 161.09C711.11 163.437 710.707 166.443 710.707 170.11V197.5H696.957ZM789.662 219.94V143.27H803.302V157.79L800.002 158.89C800.955 154.563 802.385 151.19 804.292 148.77C806.272 146.35 808.508 144.663 811.002 143.71C813.495 142.683 816.098 142.17 818.812 142.17C823.578 142.17 827.685 143.417 831.132 145.91C834.652 148.33 837.328 151.667 839.162 155.92C840.995 160.173 841.912 165.013 841.912 170.44C841.912 176.307 840.885 181.367 838.832 185.62C836.778 189.8 833.992 193.027 830.472 195.3C826.952 197.5 823.065 198.6 818.812 198.6C815.952 198.6 813.238 198.013 810.672 196.84C808.105 195.667 805.905 193.907 804.072 191.56C802.312 189.14 801.102 186.097 800.442 182.43L803.302 182.87V219.94H789.662ZM815.072 186.06C817.785 186.06 820.095 185.437 822.002 184.19C823.982 182.87 825.522 181.037 826.622 178.69C827.722 176.343 828.272 173.593 828.272 170.44C828.272 167.213 827.722 164.427 826.622 162.08C825.522 159.733 823.982 157.937 822.002 156.69C820.095 155.37 817.785 154.71 815.072 154.71C812.432 154.71 810.122 155.37 808.142 156.69C806.235 158.01 804.732 159.843 803.632 162.19C802.605 164.463 802.092 167.213 802.092 170.44C802.092 173.593 802.605 176.343 803.632 178.69C804.732 181.037 806.235 182.87 808.142 184.19C810.122 185.437 812.432 186.06 815.072 186.06ZM887.586 197.5L886.486 189.36V163.29C886.486 160.063 885.459 157.68 883.406 156.14C881.426 154.527 878.712 153.72 875.266 153.72C872.406 153.72 869.472 154.307 866.466 155.48C863.532 156.58 860.929 158.157 858.656 160.21L851.726 150.86C855.539 147.78 859.426 145.58 863.386 144.26C867.419 142.867 871.746 142.17 876.366 142.17C883.846 142.17 889.676 144.04 893.856 147.78C898.036 151.52 900.126 156.69 900.126 163.29V197.5H887.586ZM871.196 198.6C867.236 198.6 863.679 197.867 860.526 196.4C857.446 194.933 854.989 192.843 853.156 190.13C851.396 187.417 850.516 184.3 850.516 180.78C850.516 177.627 851.139 174.95 852.386 172.75C853.706 170.477 855.429 168.753 857.556 167.58C859.389 166.48 861.406 165.71 863.606 165.27C865.879 164.83 868.299 164.61 870.866 164.61H887.696V174.73H872.846C871.672 174.73 870.499 174.84 869.326 175.06C868.226 175.207 867.272 175.61 866.466 176.27C865.732 176.783 865.182 177.443 864.816 178.25C864.449 178.983 864.266 179.827 864.266 180.78C864.266 182.833 865.072 184.483 866.686 185.73C868.299 186.977 870.462 187.6 873.176 187.6C875.596 187.6 877.796 187.087 879.776 186.06C881.829 184.96 883.442 183.493 884.616 181.66C885.862 179.753 886.486 177.59 886.486 175.17L890.116 182.43C889.162 186.243 887.696 189.36 885.716 191.78C883.809 194.127 881.609 195.85 879.116 196.95C876.622 198.05 873.982 198.6 871.196 198.6ZM936.745 198.6C932.345 198.6 928.495 197.83 925.195 196.29C921.968 194.677 919.218 192.55 916.945 189.91C914.745 187.27 913.095 184.263 911.995 180.89C910.895 177.517 910.345 173.997 910.345 170.33C910.345 166.737 910.895 163.253 911.995 159.88C913.095 156.507 914.745 153.5 916.945 150.86C919.218 148.22 921.968 146.13 925.195 144.59C928.495 142.977 932.345 142.17 936.745 142.17C942.245 142.17 947.011 143.49 951.045 146.13C955.078 148.77 958.085 152.767 960.065 158.12L948.185 162.85C947.305 160.283 945.948 158.193 944.115 156.58C942.355 154.893 939.898 154.05 936.745 154.05C933.811 154.05 931.391 154.857 929.485 156.47C927.578 158.01 926.185 160.027 925.305 162.52C924.425 165.013 923.985 167.617 923.985 170.33C923.985 173.043 924.425 175.683 925.305 178.25C926.185 180.743 927.578 182.797 929.485 184.41C931.391 185.95 933.811 186.72 936.745 186.72C939.898 186.72 942.355 185.913 944.115 184.3C945.948 182.613 947.305 180.45 948.185 177.81L960.065 182.54C958.085 187.967 955.078 192 951.045 194.64C947.011 197.28 942.245 198.6 936.745 198.6ZM991.025 198.6C988.092 198.6 985.379 198.05 982.885 196.95C980.392 195.85 978.375 194.053 976.835 191.56C975.369 189.067 974.635 185.73 974.635 181.55V130.62L988.495 123.25V177.81C988.495 180.963 988.899 183.347 989.705 184.96C990.585 186.573 992.272 187.38 994.765 187.38C995.499 187.38 996.305 187.307 997.185 187.16C998.139 187.013 999.165 186.793 1000.27 186.5V196.95C998.725 197.537 997.185 197.94 995.645 198.16C994.105 198.453 992.565 198.6 991.025 198.6ZM964.735 153.94V143.27H1000.27V153.94H964.735Z" fill="#657788"/>
<path d="M846.319 253.5V223.92H853.819V231.6L852.199 232.86C852.479 230.98 852.959 229.42 853.639 228.18C854.319 226.94 855.119 225.98 856.039 225.3C856.999 224.58 857.979 224.08 858.979 223.8C860.019 223.48 861.039 223.32 862.039 223.32C863.599 223.32 865.079 223.62 866.479 224.22C867.879 224.78 869.099 225.76 870.139 227.16C871.179 228.56 871.899 230.48 872.299 232.92L867.859 234.54C868.459 231.74 869.319 229.52 870.439 227.88C871.599 226.24 872.919 225.08 874.399 224.4C875.919 223.68 877.519 223.32 879.199 223.32C881.719 223.32 883.759 223.88 885.319 225C886.879 226.12 888.019 227.56 888.739 229.32C889.499 231.04 889.879 232.88 889.879 234.84V253.5H882.439V236.64C882.439 235.16 882.239 233.92 881.839 232.92C881.479 231.88 880.939 231.1 880.219 230.58C879.499 230.06 878.559 229.8 877.399 229.8C876.199 229.8 875.179 230.12 874.339 230.76C873.499 231.4 872.859 232.36 872.419 233.64C872.019 234.92 871.819 236.56 871.819 238.56V253.5H864.379V236.52C864.379 234.28 863.959 232.6 863.119 231.48C862.319 230.36 861.139 229.8 859.579 229.8C858.339 229.8 857.279 230.12 856.399 230.76C855.559 231.4 854.919 232.36 854.479 233.64C854.039 234.92 853.819 236.56 853.819 238.56V253.5H846.319ZM909.905 254.1C907.505 254.1 905.405 253.68 903.605 252.84C901.845 251.96 900.345 250.8 899.105 249.36C897.905 247.92 897.005 246.28 896.405 244.44C895.805 242.6 895.505 240.68 895.505 238.68C895.505 236.72 895.805 234.82 896.405 232.98C897.005 231.14 897.905 229.5 899.105 228.06C900.345 226.62 901.845 225.48 903.605 224.64C905.405 223.76 907.505 223.32 909.905 223.32C912.905 223.32 915.505 224.04 917.705 225.48C919.905 226.92 921.545 229.1 922.625 232.02L916.145 234.6C915.665 233.2 914.925 232.06 913.925 231.18C912.965 230.26 911.625 229.8 909.905 229.8C908.305 229.8 906.985 230.24 905.945 231.12C904.905 231.96 904.145 233.06 903.665 234.42C903.185 235.78 902.945 237.2 902.945 238.68C902.945 240.16 903.185 241.6 903.665 243C904.145 244.36 904.905 245.48 905.945 246.36C906.985 247.2 908.305 247.62 909.905 247.62C911.625 247.62 912.965 247.18 913.925 246.3C914.925 245.38 915.665 244.2 916.145 242.76L922.625 245.34C921.545 248.3 919.905 250.5 917.705 251.94C915.505 253.38 912.905 254.1 909.905 254.1ZM940.713 266.34C936.313 266.34 932.833 265.56 930.273 264C927.753 262.44 926.493 260.28 926.493 257.52C926.493 257.28 926.513 256.98 926.553 256.62C926.593 256.3 926.653 255.98 926.733 255.66L935.013 250.5L936.873 252.6L933.093 257.22C933.053 257.34 933.033 257.44 933.033 257.52C933.033 257.6 933.033 257.68 933.033 257.76C933.033 258.88 933.733 259.74 935.133 260.34C936.533 260.94 938.393 261.24 940.713 261.24C942.673 261.24 944.173 260.98 945.213 260.46C946.253 259.98 946.773 259.26 946.773 258.3C946.773 257.78 946.633 257.36 946.353 257.04C946.073 256.72 945.613 256.46 944.973 256.26C944.333 256.06 943.493 255.88 942.453 255.72C941.453 255.56 940.233 255.38 938.793 255.18C936.953 254.98 935.153 254.6 933.393 254.04C931.633 253.52 930.173 252.74 929.013 251.7C927.853 250.62 927.273 249.2 927.273 247.44C927.273 245.88 927.813 244.46 928.893 243.18C929.973 241.86 931.393 240.78 933.153 239.94L936.753 242.82C935.673 242.98 934.853 243.34 934.293 243.9C933.773 244.46 933.513 245.12 933.513 245.88C933.513 246.52 933.773 247.04 934.293 247.44C934.813 247.8 935.553 248.08 936.513 248.28C937.473 248.48 938.613 248.66 939.933 248.82C941.973 249.1 943.853 249.4 945.573 249.72C947.333 250.04 948.853 250.5 950.133 251.1C951.453 251.66 952.453 252.44 953.133 253.44C953.853 254.44 954.213 255.74 954.213 257.34C954.213 260.26 953.033 262.48 950.673 264C948.353 265.56 945.033 266.34 940.713 266.34ZM940.113 245.22C937.633 245.22 935.453 244.76 933.573 243.84C931.733 242.88 930.293 241.6 929.253 240C928.213 238.36 927.693 236.48 927.693 234.36C927.693 232.16 928.233 230.24 929.313 228.6C930.433 226.92 931.913 225.62 933.753 224.7C935.633 223.78 937.673 223.32 939.873 223.32C942.033 223.32 944.033 223.78 945.873 224.7C947.753 225.62 949.253 226.94 950.373 228.66C951.533 230.34 952.113 232.32 952.113 234.6C952.113 236.76 951.593 238.64 950.553 240.24C949.553 241.8 948.153 243.02 946.353 243.9C944.553 244.78 942.473 245.22 940.113 245.22ZM939.933 239.34C941.533 239.34 942.713 238.86 943.473 237.9C944.273 236.9 944.673 235.7 944.673 234.3C944.673 232.86 944.253 231.7 943.413 230.82C942.573 229.9 941.413 229.44 939.933 229.44C938.453 229.44 937.273 229.9 936.393 230.82C935.553 231.74 935.133 232.9 935.133 234.3C935.133 235.7 935.533 236.9 936.333 237.9C937.133 238.86 938.333 239.34 939.933 239.34ZM950.073 230.16L944.733 226.68L951.573 221.22L955.353 225.84L950.073 230.16ZM959.52 253.5V223.92H966.96V253.5H959.52ZM959.28 219.36V211.68H967.26V219.36H959.28ZM981.187 254.1C979.147 254.1 977.467 253.48 976.147 252.24C974.827 251 974.167 249.04 974.167 246.36V211.68H981.547V244.92C981.547 245.76 981.747 246.36 982.147 246.72C982.547 247.04 983.067 247.2 983.707 247.2C984.027 247.2 984.367 247.18 984.727 247.14C985.087 247.06 985.467 246.96 985.867 246.84V253.2C985.027 253.52 984.187 253.74 983.347 253.86C982.547 254.02 981.827 254.1 981.187 254.1ZM997.887 254.1C995.847 254.1 994.167 253.48 992.847 252.24C991.527 251 990.867 249.04 990.867 246.36V211.68H998.247V244.92C998.247 245.76 998.447 246.36 998.847 246.72C999.247 247.04 999.767 247.2 1000.41 247.2C1000.73 247.2 1001.07 247.18 1001.43 247.14C1001.79 247.06 1002.17 246.96 1002.57 246.84V253.2C1001.73 253.52 1000.89 253.74 1000.05 253.86C999.247 254.02 998.527 254.1 997.887 254.1Z" fill="#F2594B"/>
</svg>
