<svg width="640" height="420" viewBox="0 0 640 420" fill="none" xmlns="http://www.w3.org/2000/svg">
<rect width="640" height="420" fill="white"/>
<path d="M258 81.5C261.315 81.5 264.495 82.817 266.839 85.1612C269.183 87.5054 270.5 90.6848 270.5 94V194C270.5 197.315 269.183 200.495 266.839 202.839C264.495 205.183 261.315 206.5 258 206.5H138.175C131.545 206.501 125.187 209.136 120.5 213.825L95.5 238.825V94C95.5 90.6848 96.817 87.5054 99.1612 85.1612C101.505 82.817 104.685 81.5 108 81.5H258ZM108 69C101.37 69 95.0107 71.6339 90.3223 76.3223C85.6339 81.0107 83 87.3696 83 94V253.913C83.0003 255.149 83.3674 256.358 84.055 257.386C84.7425 258.414 85.7196 259.215 86.8625 259.687C88.0054 260.16 89.2628 260.282 90.4755 260.04C91.6881 259.797 92.8016 259.201 93.675 258.325L129.338 222.663C131.681 220.318 134.86 219.001 138.175 219H258C264.63 219 270.989 216.366 275.678 211.678C280.366 206.989 283 200.63 283 194V94C283 87.3696 280.366 81.0107 275.678 76.3223C270.989 71.6339 264.63 69 258 69H108Z" fill="#3F4CFF"/>
<path d="M145.5 144C145.5 147.315 144.183 150.495 141.839 152.839C139.495 155.183 136.315 156.5 133 156.5C129.685 156.5 126.505 155.183 124.161 152.839C121.817 150.495 120.5 147.315 120.5 144C120.5 140.685 121.817 137.505 124.161 135.161C126.505 132.817 129.685 131.5 133 131.5C136.315 131.5 139.495 132.817 141.839 135.161C144.183 137.505 145.5 140.685 145.5 144ZM195.5 144C195.5 147.315 194.183 150.495 191.839 152.839C189.495 155.183 186.315 156.5 183 156.5C179.685 156.5 176.505 155.183 174.161 152.839C171.817 150.495 170.5 147.315 170.5 144C170.5 140.685 171.817 137.505 174.161 135.161C176.505 132.817 179.685 131.5 183 131.5C186.315 131.5 189.495 132.817 191.839 135.161C194.183 137.505 195.5 140.685 195.5 144ZM245.5 144C245.5 147.315 244.183 150.495 241.839 152.839C239.495 155.183 236.315 156.5 233 156.5C229.685 156.5 226.505 155.183 224.161 152.839C221.817 150.495 220.5 147.315 220.5 144C220.5 140.685 221.817 137.505 224.161 135.161C226.505 132.817 229.685 131.5 233 131.5C236.315 131.5 239.495 132.817 241.839 135.161C244.183 137.505 245.5 140.685 245.5 144Z" fill="#3F4CFF"/>
<path d="M382 163.5C378.685 163.5 375.505 164.817 373.161 167.161C370.817 169.505 369.5 172.685 369.5 176V276C369.5 279.315 370.817 282.495 373.161 284.839C375.505 287.183 378.685 288.5 382 288.5H501.825C508.455 288.501 514.813 291.136 519.5 295.825L544.5 320.825V176C544.5 172.685 543.183 169.505 540.839 167.161C538.495 164.817 535.315 163.5 532 163.5H382ZM532 151C538.63 151 544.989 153.634 549.678 158.322C554.366 163.011 557 169.37 557 176V335.913C557 337.149 556.633 338.358 555.945 339.386C555.257 340.414 554.28 341.215 553.138 341.687C551.995 342.16 550.737 342.282 549.525 342.04C548.312 341.797 547.198 341.201 546.325 340.325L510.663 304.663C508.319 302.318 505.14 301.001 501.825 301H382C375.37 301 369.011 298.366 364.322 293.678C359.634 288.989 357 282.63 357 276V176C357 169.37 359.634 163.011 364.322 158.322C369.011 153.634 375.37 151 382 151H532Z" fill="#3F4CFF"/>
<path d="M448.259 239.961V238.651C448.259 235.028 448.557 232.141 449.153 229.989C449.771 227.837 450.666 226.112 451.838 224.812C453.01 223.491 454.438 222.287 456.121 221.2C457.463 220.348 458.656 219.485 459.7 218.612C460.766 217.717 461.607 216.758 462.225 215.735C462.843 214.712 463.152 213.551 463.152 212.251C463.152 210.994 462.854 209.886 462.257 208.928C461.661 207.969 460.84 207.234 459.796 206.722C458.773 206.19 457.634 205.923 456.376 205.923C455.119 205.923 453.937 206.211 452.829 206.786C451.742 207.362 450.847 208.182 450.144 209.247C449.462 210.291 449.111 211.559 449.089 213.05H434.388C434.452 208.576 435.485 204.911 437.488 202.056C439.512 199.201 442.186 197.092 445.51 195.728C448.834 194.343 452.499 193.651 456.504 193.651C460.893 193.651 464.793 194.332 468.202 195.696C471.632 197.06 474.327 199.073 476.288 201.737C478.248 204.4 479.228 207.66 479.228 211.516C479.228 214.052 478.802 216.289 477.95 218.228C477.097 220.167 475.904 221.882 474.37 223.374C472.857 224.844 471.078 226.186 469.033 227.401C467.435 228.338 466.103 229.318 465.038 230.341C463.994 231.364 463.205 232.536 462.673 233.857C462.14 235.156 461.874 236.754 461.874 238.651V239.961H448.259ZM455.322 260.927C453.021 260.927 451.05 260.117 449.409 258.498C447.79 256.879 446.991 254.918 447.012 252.617C446.991 250.359 447.79 248.43 449.409 246.832C451.05 245.213 453.021 244.403 455.322 244.403C457.516 244.403 459.445 245.213 461.107 246.832C462.768 248.43 463.61 250.359 463.631 252.617C463.61 254.151 463.205 255.547 462.417 256.804C461.65 258.061 460.638 259.062 459.381 259.808C458.145 260.554 456.792 260.927 455.322 260.927Z" fill="#3F4CFF"/>
</svg>
