<svg width="640" height="420" viewBox="0 0 640 420" fill="none" xmlns="http://www.w3.org/2000/svg">
<rect width="640" height="420" fill="white"/>
<path d="M382.5 127C382.5 130.315 381.183 133.495 378.839 135.839C376.495 138.183 373.315 139.5 370 139.5C366.685 139.5 363.505 138.183 361.161 135.839C358.817 133.495 357.5 130.315 357.5 127C357.5 123.685 358.817 120.505 361.161 118.161C363.505 115.817 366.685 114.5 370 114.5C373.315 114.5 376.495 115.817 378.839 118.161C381.183 120.505 382.5 123.685 382.5 127ZM432.5 127C432.5 130.315 431.183 133.495 428.839 135.839C426.495 138.183 423.315 139.5 420 139.5C416.685 139.5 413.505 138.183 411.161 135.839C408.817 133.495 407.5 130.315 407.5 127C407.5 123.685 408.817 120.505 411.161 118.161C413.505 115.817 416.685 114.5 420 114.5C423.315 114.5 426.495 115.817 428.839 118.161C431.183 120.505 432.5 123.685 432.5 127ZM470 139.5C473.315 139.5 476.495 138.183 478.839 135.839C481.183 133.495 482.5 130.315 482.5 127C482.5 123.685 481.183 120.505 478.839 118.161C476.495 115.817 473.315 114.5 470 114.5C466.685 114.5 463.505 115.817 461.161 118.161C458.817 120.505 457.5 123.685 457.5 127C457.5 130.315 458.817 133.495 461.161 135.839C463.505 138.183 466.685 139.5 470 139.5Z" fill="#3F4CFF"/>
<path d="M347.062 224.538L347.312 224.487C370.187 219.95 384.162 213.963 390.662 210.675C400.232 213.227 410.096 214.513 420 214.5C475.225 214.5 520 175.325 520 127C520 78.675 475.225 39.5 420 39.5C364.775 39.5 320 78.675 320 127C320 149 329.288 169.125 344.625 184.5C343.552 194.376 341.354 204.098 338.075 213.475L338.037 213.612C337.106 216.298 336.088 218.954 334.988 221.575C334 223.9 335.913 226.5 338.4 226.1C341.296 225.626 344.184 225.105 347.062 224.538ZM357.062 185.687C357.238 183.857 357.007 182.011 356.387 180.281C355.767 178.55 354.772 176.977 353.475 175.675C340.225 162.375 332.5 145.35 332.5 127C332.5 87.1 370.05 52 420 52C469.95 52 507.5 87.1 507.5 127C507.5 166.913 469.95 202 420 202C411.189 202.013 402.414 200.87 393.9 198.6C390.925 197.803 387.76 198.132 385.013 199.525C380.175 201.975 369.512 206.65 352.087 210.687C354.518 202.527 356.184 194.157 357.062 185.687Z" fill="#3F4CFF"/>
<path d="M220 380.5C196.794 380.5 174.538 371.281 158.128 354.872C141.719 338.462 132.5 316.206 132.5 293C132.5 269.794 141.719 247.538 158.128 231.128C174.538 214.719 196.794 205.5 220 205.5C243.206 205.5 265.462 214.719 281.872 231.128C298.281 247.538 307.5 269.794 307.5 293C307.5 316.206 298.281 338.462 281.872 354.872C265.462 371.281 243.206 380.5 220 380.5ZM220 393C246.522 393 271.957 382.464 290.711 363.711C309.464 344.957 320 319.522 320 293C320 266.478 309.464 241.043 290.711 222.289C271.957 203.536 246.522 193 220 193C193.478 193 168.043 203.536 149.289 222.289C130.536 241.043 120 266.478 120 293C120 319.522 130.536 344.957 149.289 363.711C168.043 382.464 193.478 393 220 393Z" fill="#3F4CFF"/>
<path d="M274.138 311.75C275.235 313.65 275.812 315.806 275.812 318C275.812 320.194 275.235 322.35 274.138 324.25C268.653 333.755 260.762 341.647 251.258 347.133C241.754 352.619 230.973 355.504 220 355.5C209.029 355.502 198.25 352.615 188.749 347.13C179.248 341.644 171.358 333.753 165.875 324.25C164.778 322.351 164.201 320.196 164.2 318.003C164.2 315.81 164.776 313.655 165.872 311.756C166.967 309.856 168.544 308.278 170.442 307.179C172.34 306.081 174.494 305.502 176.688 305.5H263.312C265.507 305.5 267.662 306.078 269.562 307.175C271.462 308.272 273.04 309.85 274.138 311.75ZM207.5 274.25C207.5 284.6 201.9 274.25 195 274.25C188.1 274.25 182.5 284.6 182.5 274.25C182.5 263.9 188.1 255.5 195 255.5C201.9 255.5 207.5 263.9 207.5 274.25ZM257.5 274.25C257.5 284.6 251.9 274.25 245 274.25C238.1 274.25 232.5 284.6 232.5 274.25C232.5 263.9 238.1 255.5 245 255.5C251.9 255.5 257.5 263.9 257.5 274.25Z" fill="#3F4CFF"/>
</svg>
