<svg width="400" height="225" viewBox="0 0 400 225" fill="none" xmlns="http://www.w3.org/2000/svg">
<rect width="400" height="225" fill="url(#paint0_linear_1273_2607)"/>
<path d="M113.12 156.4L111.84 147.44C115.728 147.44 118.88 144.288 118.88 140.4V108.4C118.88 102.745 114.295 98.1599 108.64 98.1599H81.1199C75.4645 98.1599 70.8799 102.745 70.8799 108.4V137.2C70.8799 142.855 75.4645 147.44 81.1199 147.44H90.3999L113.12 156.4Z" fill="#467ABE"/>
<mask id="mask0_1273_2607" style="mask-type:alpha" maskUnits="userSpaceOnUse" x="70" y="98" width="49" height="59">
<path d="M113.12 156.4L111.84 147.44C115.728 147.44 118.88 144.288 118.88 140.4V108.4C118.88 102.745 114.295 98.1599 108.64 98.1599H81.1199C75.4645 98.1599 70.8799 102.745 70.8799 108.4V137.2C70.8799 142.855 75.4645 147.44 81.1199 147.44H90.3999L113.12 156.4Z" fill="#64AEC6"/>
</mask>
<g mask="url(#mask0_1273_2607)">
<path d="M70.8799 148.72L101.6 133.36H70.8799V148.72Z" fill="#467ABE"/>
</g>
<path d="M54.24 70H100C105.655 70 110.24 74.5846 110.24 80.24V124.08C110.24 129.735 105.655 134.32 100 134.32H76L53.92 148.72L52.32 134.32C47.725 134.32 44 130.595 44 126V80.24C44 74.5846 48.5846 70 54.24 70Z" fill="#F1B950"/>
<path d="M110.24 124.08V90.1599L53.9199 148.72L75.9999 134.32H99.9999C105.655 134.32 110.24 129.735 110.24 124.08Z" fill="#F7A4A6"/>
<path d="M98.0802 74.48H114.4V83.76H98.0802V88.24L88.1602 78.96L98.0802 70V74.48Z" fill="#467ABE"/>
<path d="M114.4 97.84V74.48L123.68 84.08V97.84H128.16L118.88 107.76L109.92 97.84H114.4Z" fill="#F1B950"/>
<g filter="url(#filter0_d_1273_2607)">
<path d="M54.8799 96.737H62.7504V118.226L59.0741 118.64C57.7968 118.64 56.7785 118.26 56.019 117.501C55.2596 116.741 54.8799 115.723 54.8799 114.446V96.737ZM59.0741 118.64V112.219H75.333C75.5746 112.564 75.7817 113.013 75.9543 113.565C76.1269 114.083 76.2132 114.67 76.2132 115.326C76.2132 116.431 75.9716 117.259 75.4883 117.811C75.005 118.364 74.3319 118.64 73.4689 118.64H59.0741ZM62.7504 106.575H54.8799V87.0541C55.2251 86.9851 55.7429 86.8988 56.4333 86.7952C57.1582 86.6917 57.8486 86.6399 58.5045 86.6399C60.0234 86.6399 61.1107 86.8988 61.7666 87.4166C62.4225 87.9344 62.7504 88.9182 62.7504 90.368V106.575Z" fill="white"/>
</g>
<g filter="url(#filter1_d_1273_2607)">
<path d="M80.48 96.737H88.3505V118.226L84.6742 118.64C83.3969 118.64 82.3786 118.26 81.6191 117.501C80.8597 116.741 80.48 115.723 80.48 114.446V96.737ZM84.6742 118.64V112.219H100.933C101.175 112.564 101.382 113.013 101.554 113.565C101.727 114.083 101.813 114.67 101.813 115.326C101.813 116.431 101.572 117.259 101.088 117.811C100.605 118.364 99.932 118.64 99.069 118.64H84.6742ZM88.3505 106.575H80.48V87.0541C80.8252 86.9851 81.343 86.8988 82.0334 86.7952C82.7583 86.6917 83.4487 86.6399 84.1046 86.6399C85.6235 86.6399 86.7108 86.8988 87.3667 87.4166C88.0226 87.9344 88.3505 88.9182 88.3505 90.368V106.575Z" fill="white"/>
</g>
<path d="M110.24 83.76H114.4V74.48H110.24V83.76Z" fill="#467ABE"/>
<path d="M123.68 84.0799L119.2 79.5999V107.76L128.16 97.8399H123.68V84.0799Z" fill="#F7A4A6"/>
<path d="M146.08 109.12H151.16V124.72L148.8 125.04C147.973 125.04 147.307 124.8 146.8 124.32C146.32 123.813 146.08 123.16 146.08 122.36V109.12ZM148.8 125.04V120.88H161.52C161.68 121.093 161.813 121.373 161.92 121.72C162.053 122.067 162.12 122.453 162.12 122.88C162.12 123.6 161.947 124.147 161.6 124.52C161.28 124.867 160.84 125.04 160.28 125.04H148.8ZM151.16 114.8H146.08V100.72C146.32 100.667 146.653 100.6 147.08 100.52C147.533 100.44 147.987 100.4 148.44 100.4C149.4 100.4 150.093 100.573 150.52 100.92C150.947 101.24 151.16 101.853 151.16 102.76V114.8ZM165.593 100.44C165.593 99.6667 165.86 99.0133 166.393 98.48C166.953 97.9467 167.647 97.68 168.473 97.68C169.327 97.68 170.007 97.9467 170.513 98.48C171.047 99.0133 171.313 99.6667 171.313 100.44C171.313 101.187 171.047 101.84 170.513 102.4C170.007 102.933 169.327 103.2 168.473 103.2C167.647 103.2 166.953 102.933 166.393 102.4C165.86 101.84 165.593 101.187 165.593 100.44ZM165.993 114.44H170.953V124.92C170.74 125 170.433 125.067 170.033 125.12C169.633 125.2 169.193 125.24 168.713 125.24C167.807 125.24 167.127 125.08 166.673 124.76C166.22 124.413 165.993 123.813 165.993 122.96V114.44ZM170.953 116.96H165.993V106.24C166.207 106.16 166.513 106.093 166.913 106.04C167.34 105.96 167.793 105.92 168.273 105.92C169.207 105.92 169.887 106.093 170.313 106.44C170.74 106.76 170.953 107.36 170.953 108.24V116.96ZM176.303 114.44H181.223V119.16C181.223 120.04 181.476 120.667 181.983 121.04C182.516 121.413 183.263 121.6 184.223 121.6C184.65 121.6 185.103 121.547 185.583 121.44C186.09 121.333 186.516 121.2 186.863 121.04C187.05 121.253 187.223 121.507 187.383 121.8C187.543 122.093 187.623 122.453 187.623 122.88C187.623 123.653 187.25 124.293 186.503 124.8C185.783 125.307 184.65 125.56 183.103 125.56C180.996 125.56 179.33 125.093 178.103 124.16C176.903 123.2 176.303 121.653 176.303 119.52V114.44ZM179.303 110.36V106.48H187.143C187.25 106.667 187.356 106.933 187.463 107.28C187.596 107.627 187.663 107.987 187.663 108.36C187.663 109.027 187.503 109.533 187.183 109.88C186.863 110.2 186.45 110.36 185.943 110.36H179.303ZM181.223 115.52H176.303V101.12C176.516 101.04 176.823 100.96 177.223 100.88C177.65 100.8 178.09 100.76 178.543 100.76C179.476 100.76 180.156 100.933 180.583 101.28C181.01 101.6 181.223 102.187 181.223 103.04V115.52ZM193.384 118.04L193.184 114.6L203.904 113C203.824 111.987 203.437 111.107 202.744 110.36C202.051 109.613 201.037 109.24 199.704 109.24C198.344 109.24 197.211 109.72 196.304 110.68C195.397 111.613 194.931 112.96 194.904 114.72L195.024 116.8C195.264 118.507 195.917 119.76 196.984 120.56C198.077 121.36 199.451 121.76 201.104 121.76C202.224 121.76 203.264 121.6 204.224 121.28C205.184 120.933 205.944 120.56 206.504 120.16C206.877 120.4 207.171 120.707 207.384 121.08C207.624 121.427 207.744 121.813 207.744 122.24C207.744 122.933 207.437 123.533 206.824 124.04C206.211 124.52 205.384 124.893 204.344 125.16C203.304 125.427 202.117 125.56 200.784 125.56C198.731 125.56 196.904 125.187 195.304 124.44C193.731 123.667 192.491 122.52 191.584 121C190.704 119.48 190.264 117.587 190.264 115.32C190.264 113.693 190.517 112.267 191.024 111.04C191.531 109.813 192.211 108.8 193.064 108C193.944 107.173 194.957 106.56 196.104 106.16C197.251 105.733 198.451 105.52 199.704 105.52C201.464 105.52 202.997 105.88 204.304 106.6C205.637 107.293 206.677 108.267 207.424 109.52C208.197 110.773 208.584 112.213 208.584 113.84C208.584 114.587 208.384 115.147 207.984 115.52C207.611 115.867 207.077 116.08 206.384 116.16L193.384 118.04ZM217.472 110.6V116.08H212.552V110.2C212.552 109.533 212.712 108.973 213.032 108.52C213.352 108.04 213.806 107.6 214.392 107.2C215.192 106.72 216.206 106.32 217.432 106C218.659 105.68 219.979 105.52 221.392 105.52C223.899 105.52 225.152 106.293 225.152 107.84C225.152 108.213 225.099 108.56 224.992 108.88C224.886 109.173 224.752 109.44 224.592 109.68C224.326 109.627 223.992 109.587 223.592 109.56C223.192 109.507 222.766 109.48 222.312 109.48C221.352 109.48 220.446 109.587 219.592 109.8C218.766 109.987 218.059 110.253 217.472 110.6ZM212.552 114.44L217.472 114.68V124.92C217.259 125 216.952 125.067 216.552 125.12C216.152 125.2 215.712 125.24 215.232 125.24C214.326 125.24 213.646 125.08 213.192 124.76C212.766 124.413 212.552 123.813 212.552 122.96V114.44ZM235.461 121.84C236.261 121.84 236.981 121.76 237.621 121.6C238.261 121.44 238.728 121.267 239.021 121.08V116.52L235.061 116.92C233.968 117 233.128 117.24 232.541 117.64C231.981 118.013 231.701 118.573 231.701 119.32C231.701 120.093 232.008 120.707 232.621 121.16C233.234 121.613 234.181 121.84 235.461 121.84ZM235.261 105.52C237.874 105.52 239.954 106.08 241.501 107.2C243.048 108.293 243.821 110.027 243.821 112.4V121.6C243.821 122.24 243.661 122.747 243.341 123.12C243.048 123.493 242.661 123.827 242.181 124.12C241.434 124.547 240.488 124.893 239.341 125.16C238.194 125.453 236.901 125.6 235.461 125.6C232.794 125.6 230.701 125.093 229.181 124.08C227.661 123.04 226.901 121.507 226.901 119.48C226.901 117.693 227.461 116.333 228.581 115.4C229.728 114.44 231.381 113.853 233.541 113.64L238.981 113.08V112.36C238.981 111.293 238.608 110.52 237.861 110.04C237.141 109.56 236.114 109.32 234.781 109.32C233.741 109.32 232.728 109.453 231.741 109.72C230.754 109.987 229.874 110.307 229.101 110.68C228.834 110.467 228.594 110.173 228.381 109.8C228.168 109.427 228.061 109.04 228.061 108.64C228.061 107.68 228.594 106.973 229.661 106.52C230.408 106.173 231.274 105.92 232.261 105.76C233.274 105.6 234.274 105.52 235.261 105.52ZM249.16 114.44L254.08 114.68V124.92C253.867 125 253.56 125.067 253.16 125.12C252.76 125.2 252.32 125.24 251.84 125.24C250.934 125.24 250.254 125.08 249.8 124.76C249.374 124.413 249.16 123.813 249.16 122.96V114.44ZM254.08 117.2L249.16 116.96V99C249.347 98.9467 249.64 98.88 250.04 98.8C250.467 98.72 250.907 98.68 251.36 98.68C252.32 98.68 253.014 98.8533 253.44 99.2C253.867 99.52 254.08 100.107 254.08 100.96V117.2ZM259.947 109.12H265.027V124.72L262.667 125.04C261.841 125.04 261.174 124.8 260.667 124.32C260.187 123.813 259.947 123.16 259.947 122.36V109.12ZM262.667 125.04V120.88H275.387C275.547 121.093 275.681 121.373 275.787 121.72C275.921 122.067 275.987 122.453 275.987 122.88C275.987 123.6 275.814 124.147 275.467 124.52C275.147 124.867 274.707 125.04 274.147 125.04H262.667ZM265.027 114.8H259.947V100.72C260.187 100.667 260.521 100.6 260.947 100.52C261.401 100.44 261.854 100.4 262.307 100.4C263.267 100.4 263.961 100.573 264.387 100.92C264.814 101.24 265.027 101.853 265.027 102.76V114.8ZM279.461 100.44C279.461 99.6667 279.727 99.0133 280.261 98.48C280.821 97.9467 281.514 97.68 282.341 97.68C283.194 97.68 283.874 97.9467 284.381 98.48C284.914 99.0133 285.181 99.6667 285.181 100.44C285.181 101.187 284.914 101.84 284.381 102.4C283.874 102.933 283.194 103.2 282.341 103.2C281.514 103.2 280.821 102.933 280.261 102.4C279.727 101.84 279.461 101.187 279.461 100.44ZM279.861 114.44H284.821V124.92C284.607 125 284.301 125.067 283.901 125.12C283.501 125.2 283.061 125.24 282.581 125.24C281.674 125.24 280.994 125.08 280.541 124.76C280.087 124.413 279.861 123.813 279.861 122.96V114.44ZM284.821 116.96H279.861V106.24C280.074 106.16 280.381 106.093 280.781 106.04C281.207 105.96 281.661 105.92 282.141 105.92C283.074 105.92 283.754 106.093 284.181 106.44C284.607 106.76 284.821 107.36 284.821 108.24V116.96ZM307.61 112.64V116.52H302.69V112.84C302.69 111.667 302.357 110.813 301.69 110.28C301.024 109.72 300.13 109.44 299.01 109.44C298.184 109.44 297.437 109.547 296.77 109.76C296.13 109.947 295.557 110.173 295.05 110.44V116.52H290.13V110.12C290.13 109.48 290.264 108.96 290.53 108.56C290.797 108.133 291.197 107.747 291.73 107.4C292.53 106.867 293.557 106.427 294.81 106.08C296.09 105.707 297.504 105.52 299.05 105.52C301.744 105.52 303.837 106.12 305.33 107.32C306.85 108.52 307.61 110.293 307.61 112.64ZM290.13 114.56H295.05V124.92C294.837 125 294.53 125.067 294.13 125.12C293.73 125.2 293.29 125.24 292.81 125.24C291.904 125.24 291.224 125.08 290.77 124.76C290.344 124.413 290.13 123.813 290.13 122.96V114.56ZM302.69 114.56H307.61V124.92C307.424 125 307.117 125.067 306.69 125.12C306.29 125.2 305.864 125.24 305.41 125.24C304.477 125.24 303.784 125.08 303.33 124.76C302.904 124.413 302.69 123.813 302.69 122.96V114.56ZM320.627 124.32C319.053 124.32 317.6 124.027 316.267 123.44C314.933 122.827 313.867 121.827 313.067 120.44C312.267 119.053 311.867 117.227 311.867 114.96C311.867 112.88 312.267 111.147 313.067 109.76C313.893 108.347 315.04 107.293 316.507 106.6C318 105.88 319.707 105.52 321.627 105.52C322.987 105.52 324.24 105.693 325.387 106.04C326.56 106.387 327.493 106.787 328.187 107.24C328.64 107.533 329 107.893 329.267 108.32C329.56 108.72 329.707 109.213 329.707 109.8V122.28H324.907V110.24C324.56 110.027 324.133 109.84 323.627 109.68C323.12 109.52 322.493 109.44 321.747 109.44C320.28 109.44 319.08 109.893 318.147 110.8C317.24 111.707 316.787 113.093 316.787 114.96C316.787 117.013 317.227 118.453 318.107 119.28C319.013 120.107 320.12 120.52 321.427 120.52C322.44 120.52 323.253 120.347 323.867 120C324.507 119.653 325.04 119.28 325.467 118.88L325.627 122.88C325.147 123.253 324.48 123.587 323.627 123.88C322.8 124.173 321.8 124.32 320.627 124.32ZM324.987 125.12V121.2H329.707V125.28C329.707 127.093 329.293 128.56 328.467 129.68C327.64 130.827 326.507 131.667 325.067 132.2C323.653 132.733 322.067 133 320.307 133C318.92 133 317.707 132.867 316.667 132.6C315.653 132.333 314.907 132.053 314.427 131.76C313.547 131.227 313.107 130.493 313.107 129.56C313.107 129.08 313.213 128.653 313.427 128.28C313.64 127.907 313.893 127.627 314.187 127.44C314.853 127.867 315.68 128.24 316.667 128.56C317.68 128.88 318.747 129.04 319.867 129.04C321.467 129.04 322.72 128.72 323.627 128.08C324.533 127.467 324.987 126.48 324.987 125.12ZM353.339 115.52C353.339 117.573 352.939 119.36 352.139 120.88C351.339 122.373 350.205 123.533 348.739 124.36C347.299 125.16 345.592 125.56 343.619 125.56C341.645 125.56 339.925 125.16 338.459 124.36C336.992 123.533 335.845 122.373 335.019 120.88C334.219 119.387 333.819 117.6 333.819 115.52C333.819 113.467 334.232 111.693 335.059 110.2C335.885 108.707 337.032 107.56 338.499 106.76C339.965 105.933 341.672 105.52 343.619 105.52C345.565 105.52 347.259 105.933 348.699 106.76C350.165 107.56 351.299 108.72 352.099 110.24C352.925 111.733 353.339 113.493 353.339 115.52ZM343.619 109.44C342.152 109.44 340.992 109.973 340.139 111.04C339.312 112.107 338.899 113.6 338.899 115.52C338.899 117.493 339.312 119.013 340.139 120.08C340.965 121.12 342.125 121.64 343.619 121.64C345.085 121.64 346.232 121.107 347.059 120.04C347.885 118.973 348.299 117.467 348.299 115.52C348.299 113.627 347.885 112.147 347.059 111.08C346.232 109.987 345.085 109.44 343.619 109.44Z" fill="white"/>
<defs>
<filter id="filter0_d_1273_2607" x="54.8799" y="86.6399" width="23.2535" height="33.92" filterUnits="userSpaceOnUse" color-interpolation-filters="sRGB">
<feFlood flood-opacity="0" result="BackgroundImageFix"/>
<feColorMatrix in="SourceAlpha" type="matrix" values="0 0 0 0 0 0 0 0 0 0 0 0 0 0 0 0 0 0 127 0" result="hardAlpha"/>
<feOffset dx="1.92" dy="1.92"/>
<feComposite in2="hardAlpha" operator="out"/>
<feColorMatrix type="matrix" values="0 0 0 0 0.27451 0 0 0 0 0.478431 0 0 0 0 0.745098 0 0 0 1 0"/>
<feBlend mode="normal" in2="BackgroundImageFix" result="effect1_dropShadow_1273_2607"/>
<feBlend mode="normal" in="SourceGraphic" in2="effect1_dropShadow_1273_2607" result="shape"/>
</filter>
<filter id="filter1_d_1273_2607" x="80.48" y="86.6399" width="23.2535" height="33.92" filterUnits="userSpaceOnUse" color-interpolation-filters="sRGB">
<feFlood flood-opacity="0" result="BackgroundImageFix"/>
<feColorMatrix in="SourceAlpha" type="matrix" values="0 0 0 0 0 0 0 0 0 0 0 0 0 0 0 0 0 0 127 0" result="hardAlpha"/>
<feOffset dx="1.92" dy="1.92"/>
<feComposite in2="hardAlpha" operator="out"/>
<feColorMatrix type="matrix" values="0 0 0 0 0.27451 0 0 0 0 0.478431 0 0 0 0 0.745098 0 0 0 1 0"/>
<feBlend mode="normal" in2="BackgroundImageFix" result="effect1_dropShadow_1273_2607"/>
<feBlend mode="normal" in="SourceGraphic" in2="effect1_dropShadow_1273_2607" result="shape"/>
</filter>
<linearGradient id="paint0_linear_1273_2607" x1="174.676" y1="13.6954" x2="308.324" y2="200.305" gradientUnits="userSpaceOnUse">
<stop stop-color="#5EC6E8"/>
<stop offset="1" stop-color="#60CEB3"/>
</linearGradient>
</defs>
</svg>
